<ttFont>
          <CharString index="0">
            29 1 81 2 44 3 rlinecurve
            -105 callgsubr
            return
          </CharString>
          <CharString index="1">
            -88 -96 57 233 hvcurveto
            241 35 303 76 223 vvcurveto
            179 -126 79 -181 -361 -156 -359 -264 -304 158 -145 251 2 vhcurveto
            160 1 159 60 72 callsubr
            -352 605 rmoveto
            41 48 -28 -66 2 hvcurveto
            3 -102 -80 -89 -221 -40 rrcurveto
            153 16 52 172 139 hhcurveto
            endchar
          </CharString>
          <CharString index="2">
            -8 -158 -107 callsubr
            return
          </CharString>
          <CharString index="3">
            -24 callgsubr
            7 35 7 75 4 74 return
          </CharString>
          <CharString index="4">
            rmoveto
            -466 hlineto
            -9 -158 29 1 81 2 45 3 rlinecurve
            -56 callsubr
            -34 -654 rcurveline
            -2 hlineto
            -30 47 -38 61 -65 88 -584 794 rcurveline
            -321 hlineto
            -9 -158 29 1 81 2 45 3 rlinecurve
            -56 callsubr
            -36 -785 rcurveline
            -9 callsubr
            -92 -5 -8 -135 rcurveline
            467 hlineto
            9 158 -29 -1 -81 -2 -45 -64 callgsubr
            30 639 rcurveline
            2 hlineto
            35 -55 37 -53 32 -45 611 -842 rcurveline
            174 hlineto
            60 1141 rlineto
            return
          </CharString>
          <CharString index="5">
            -8 -158 29 1 81 2 44 3 rlinecurve
            -24 callgsubr
            return
          </CharString>
          <CharString index="6">
            -95 callsubr
            hintmask 10110000
            8 165 55 8 92 67 callsubr
            -81 callgsubr
            -26 -496 rcurveline
            -351 -18 109 -284 462 hhcurveto
            327 255 170 471 25 hvcurveto
            27 513 60 callgsubr
          </CharString>
          <CharString index="7">
            rmoveto
            -5 -35 -3 -49 -36 vvcurveto
            hintmask 01111000
            -100 callgsubr
            hintmask 10111000
            -254 122 -120 149 125 123 69 237 100 vhcurveto
            -78 628 rmoveto
            32 39 -7 -5 14 hvcurveto
            -307 -17 -102 -433 -150 hhcurveto
            -48 -30 69 111 375 108 197 154 hvcurveto
            endchar
          </CharString>
          <CharString index="8">
            100 76 429 -61 callgsubr
            -264 hlineto
            4 -32 2 -79 -37 vvcurveto
            -286 -158 -425 -114 -42 -16 26 61 vhcurveto
            return
          </CharString>
          <CharString index="9">
            rmoveto
            -45 264 -107 280 -58 139 rrcurveto
            103 -43 -74 111 -134 hhcurveto
            -219 -74 -210 -119 -13 hvcurveto
            115 -15 rlineto
            127 15 40 27 37 hhcurveto
            45 32 -69 -43 19 hvcurveto
            106 -240 147 -368 41 -261 -37 -82 -136 -185 -95 28 rrcurveto
            70 -10 -44 41 -71 hhcurveto
            -64 -67 -56 -88 -93 68 -66 125 407 406 937 377 140 -56 148 -151 -69 -73 -45 -95 hvcurveto
            return
          </CharString>
          <CharString index="10">
            rmoveto
            136 156 69 160 7 131 6 123 -57 95 -126 -2 -89 -1 -62 -72 -4 -81 rrcurveto
            -95 -5 66 -41 73 hhcurveto
            15 9 1 6 20 hvcurveto
            -3 -119 -86 -150 -45 -54 rrcurveto
            return
          </CharString>
          <CharString index="11">
            hintmask 11010100
            -250 -139 -152 -143 -144 88 -72 195 -111 hvcurveto
            107 -61 99 -48 -76 vvcurveto
            -65 -42 -63 -120 -41 -73 29 30 -14 vhcurveto
            hintmask 11100100
            93 40 -58 94 -95 hhcurveto
            -73 -58 -59 -84 -146 170 -92 196 236 183 132 184 170 -170 88 -135 78 hvcurveto
            hintmask 11011000
            -167 96 -24 22 57 vvcurveto
            68 80 40 58 36 53 -12 -29 22 vhcurveto
            -88 -39 55 -96 96 hhcurveto
            79 49 62 73 hvcurveto
            hintmask 11101000
            140 -179 85 -165 vhcurveto
            endchar
          </CharString>
          <CharString index="12">
            rmoveto
            -474 hlineto
            -81 callgsubr
            -28 -537 rcurveline
            -16 -302 -141 -144 -225 8 -165 6 -156 86 18 343 30 563 rcurveline
            return
          </CharString>
          <CharString index="13">
            8 165 55 8 92 5 rrcurveto
            return
          </CharString>
          <CharString index="14">
            -126 -51 -276 -162 vvcurveto
            -145 41 -18 callgsubr
            102 -101 callgsubr
            -33 -53 callgsubr
            -16 9 45 hvcurveto
            return
          </CharString>
          <CharString index="15">
            rmoveto
            hintmask 01101010
            -20 callsubr
            hintmask 10100110
            -66 106 136 -35 107 hhcurveto
            317 218 171 242 13 hvcurveto
            14 268 -256 123 -201 83 -221 91 -102 70 7 128 5 102 108 73 116 1 191 2 121 -118 27 callgsubr
            hintmask 10011010
            -27 callgsubr
            3 -84 rlineto
            -2 hlineto
            hintmask 10100110
            -65 callsubr
          </CharString>
          <CharString index="16">
            126 53 276 162 vvcurveto
            145 -43 86 -151 -185 -102 -71 callsubr
            return
          </CharString>
          <CharString index="17">
            hlineto
            -105 callsubr
            return
          </CharString>
          <CharString index="18">
            29 1 81 2 44 3 return
          </CharString>
          <CharString index="19">
            65 -87 -144 33 -107 hhcurveto
            -363 -128 -222 -169 -9 hvcurveto
            -14 -269 192 -128 259 -106 151 -62 172 -60 -8 -143 rrcurveto
            -106 -5 -106 -87 -146 hhcurveto
            -191 -145 116 229 -25 hvcurveto
            return
          </CharString>
          <CharString index="20">
            rmoveto
            -85 -193 -121 -27 -76 7 -86 8 -91 80 7 223 rrcurveto
            163 5 40 272 176 hhcurveto
            48 38 -21 -25 11 hvcurveto
            -15 -27 -5 -34 -24 vvcurveto
            -48 33 -76 94 3 vhcurveto
            80 2 50 56 82 vvcurveto
            150 -143 97 -188 -341 -163 -359 -264 -304 163 -141 239 -2 vhcurveto
            170 2 159 74 72 callsubr
            endchar
          </CharString>
          <CharString index="21">
            12 464 rlineto
            -1236 16 callsubr
            11 222 104 20 callgsubr
            -52 -981 -85 callgsubr
            return
          </CharString>
          <CharString index="22">
            rmoveto
            8 154 rlineto
            -1037 hlineto
            -35 -437 rlineto
            135 hlineto
            12 222 111 85 152 -4 351 -9 rcurveline
            -1 -2 -54 -63 -45 -61 -54 -77 rlinecurve
            -662 -934 -8 -154 rlineto
            1050 hlineto
            35 438 rlineto
            -135 hlineto
            -12 -222 -111 -83 -152 3 -374 8 rcurveline
            1 2 64 72 63 84 61 86 rlinecurve
            endchar
          </CharString>
          <CharString index="23">
            rrcurveto
            -140 -7 88 -71 124 hhcurveto
            97 104 62 95 77 hvcurveto
            -67 88 rlineto
            -38 -45 -46 -21 -40 hhcurveto
            -55 -31 33 49 1 hvcurveto
            return
          </CharString>
          <CharString index="24">
            -79 -74 -72 -89 -5 hvcurveto
            -88 -4 58 -71 90 hhcurveto
            88 61 71 88 4 hvcurveto
            89 5 -59 72 -85 hhcurveto
            return
          </CharString>
          <CharString index="25">
            -91 callsubr
            endchar
          </CharString>
          <CharString index="26">
            583 -63 callsubr
            -81 37 callgsubr
            return
          </CharString>
          <CharString index="27">
            rmoveto
            -139 -180 -191 -75 -163 1 -276 2 -146 260 19 354 15 295 155 296 286 -1 191 -1 110 -124 27 callgsubr
            hintmask 10011100
            -27 callgsubr
            hintmask 10101100
            50 callsubr
            hintmask 11001100
            66 -106 -134 35 -107 hhcurveto
            -477 -260 -398 -373 -20 hvcurveto
            -407 -21 263 -322 422 hhcurveto
            169 250 51 277 214 hvcurveto
            endchar
          </CharString>
          <CharString index="28">
            -76 callsubr
            -4 -74 return
          </CharString>
          <CharString index="29">
            206 0 145 516 144 476 46 callsubr
            1206 -376 309 61 callgsubr
            -45 callsubr
            692 hlineto
            287 213 141 266 14 hvcurveto
            9 170 -113 155 -269 42 rrcurveto
            2 vlineto
            194 52 96 118 14 118 rrcurveto
            hintmask 11100100
            27 251 -199 125 -327 -2 rrcurveto
            -159 -634 rmoveto
            17 318 rlineto
            hintmask 11010100
            8 157 53 13 68 2 104 3 110 -53 -9 -162 -7 -150 -64 -122 -173 -3 rrcurveto
            -115 -148 rmoveto
            3 53 45 -1 68 hhcurveto
            132 129 -59 -188 -10 hvcurveto
            -8 -152 -77 -106 -166 -8 rrcurveto
            -3 -65 -64 0 -72 hhcurveto
            7 35 7 72 67 callgsubr
          </CharString>
          <CharString index="30">
            152 -135 135 return
          </CharString>
          <CharString index="31">
            -94 callgsubr
            -84 callgsubr
            return
          </CharString>
          <CharString index="32">
            hintmask 10110000
            -94 callsubr
            return
          </CharString>
          <CharString index="33">
            35 -522 150 349 136 744 190 -186 186 hstemhm
            258 202 369 279 hintmask 00000000
            hintmask 11011100
            452 738 rmoveto
            6 46 2 23 54 vvcurveto
            145 -80 41 -88 -179 -72 -39 callsubr
            hintmask 11101100
            -89 callgsubr
            15 -11 -49 -87 -13 -273 -59 -641 hvcurveto
            -108 -10 -17 -21 callsubr
            9 168 rcurveline
            -1 23 29 -1 14 hhcurveto
            390 187 290 389 hvcurveto
            hintmask 11011100
            231 -107 160 -196 -108 -147 -63 -246 -96 vhcurveto
            275 123 rmoveto
            59 41 -58 -150 -162 -40 -378 -233 -17 -37 4 8 -29 hvcurveto
            481 36 87 255 133 hhcurveto
            endchar
          </CharString>
          <CharString index="34">
            rmoveto
            89 -83 246 226 57 52 46 89 -60 52 rlinecurve
            -56 48 -85 -53 -54 -75 rrcurveto
            144 -240 rmoveto
            74 -97 277 197 63 45 64 80 -52 64 rlinecurve
            -46 57 -93 -37 -72 -78 rrcurveto
            return
          </CharString>
          <CharString index="35">
            -2 callgsubr
            2033 1121 rmoveto
            -16 callgsubr
            -588 hlineto
            -9 -158 29 1 81 2 45 3 rlinecurve
            -56 callsubr
            -40 -760 73 callgsubr
            -12 -89 -1 -299 -5 rcurveline
            6 36 7 73 4 72 59 callgsubr
            -16 callgsubr
            -588 hlineto
            -9 -158 29 1 81 2 45 3 rlinecurve
            -56 callsubr
            -40 -760 rcurveline
            -9 callsubr
            -89 -5 -291 -5 rcurveline
            50 966 rlineto
            -16 callgsubr
            -588 hlineto
            -48 callsubr
            return
          </CharString>
          <CharString index="36">
            -203 -117 -23 vhcurveto
            return
          </CharString>
          <CharString index="37">
            -49 callsubr
            -580 31 callsubr
            -41 -785 -36 callsubr
            580 hlineto
            9 158 -155 -6 5 24 5 44 4 49 rlinecurve
            626 700 -34 -656 -36 callsubr
            584 hlineto
            9 158 -155 -6 7 35 7 -18 callsubr
            rlinecurve
            endchar
          </CharString>
          <CharString index="38">
            1576 rmoveto
            40 hlineto
            435 313 -41 82 -391 -179 -370 178 -57 -84 rlineto
            return
          </CharString>
          <CharString index="39">
            -375 -247 vvcurveto
            -145 86 -53 99 197 84 182 138 34 vhcurveto
            -111 33 rlineto
            -123 -35 -33 -38 callsubr
            124 31 260 107 935 hvcurveto
            return
          </CharString>
          <CharString index="40">
            -421 -555 145 1285 149 -143 143 387 145 hstemhm
            -236 1103 71 callgsubr
            67 1024 rmoveto
            hintmask 11011000
            -57 callgsubr
            11 71 -50 53 -61 2 rrcurveto
            -93 3 -35 -84 -47 vvcurveto
            -90 71 -58 124 279 128 216 316 37 vhcurveto
            hintmask 10111000
            27 231 32 437 15 234 259 4 rcurveline
            13 141 rlineto
            -263 hlineto
            159 13 21 228 93 hhcurveto
            11 10 -2 -3 5 hvcurveto
            -11 -71 50 -53 61 -2 rrcurveto
            93 -3 35 80 47 vvcurveto
            90 -70 62 -124 -279 -127 -216 -316 -35 vhcurveto
            endchar
          </CharString>
          <CharString index="41">
            431 0 194 1135 138 hstemhm
            74 130 -96 278 795 287 hintmask 00000000
            566 199 rmoveto
            -214 -5 rlineto
            hintmask 11010000
            -110 -38 27 106 hvcurveto
            -130 -327 636 hlineto
            12 217 rlineto
            hintmask 11100000
            -156 19 -180 190 301 vvcurveto
            274 128 328 309 270 88 -256 -257 -326 -176 -232 -194 -41 vhcurveto
            -12 -217 rlineto
            642 hlineto
            34 327 rlineto
            -130 hlineto
            -109 -6 -59 -24 -86 hhcurveto
            -220 5 rlineto
            2 vlineto
            287 83 207 282 279 vvcurveto
            312 -208 310 -436 -447 -269 -373 -334 vhcurveto
            hintmask 11011000
            -267 180 -226 278 -66 vhcurveto
            endchar
          </CharString>
          <CharString index="42">
            -88 callsubr
            endchar
          </CharString>
          <CharString index="43">
            1158 rmoveto
            99 83 -159 286 -39 69 -77 33 -68 -53 rlinecurve
            -67 -59 28 -88 51 -52 rrcurveto
            return
          </CharString>
          <CharString index="44">
            hlineto
            -78 callgsubr
            return
          </CharString>
          <CharString index="45">
            rmoveto
            17 329 8 155 45 18 92 5 rlinecurve
            -49 callsubr
            -539 hlineto
            -8 -158 -76 callsubr
            -3 -74 -10 -190 rcurveline
            -37 -78 -141 -18 -79 hhcurveto
            -279 -140 254 354 19 hvcurveto
            15 295 152 286 286 -1 191 -1 146 -114 25 -229 rrcurveto
            return
          </CharString>
          <CharString index="46">
            9 397 rlineto
            -1020 -90 callsubr
            return
          </CharString>
          <CharString index="47">
            -2 -44 -64 callgsubr
            return
          </CharString>
          <CharString index="48">
            -100 -74 -429 -176 70 callsubr
            268 hlineto
            -2 32 -4 79 37 vvcurveto
            291 137 432 116 -13 vhcurveto
            -66 -3 55 -41 60 hhcurveto
            83 54 69 70 96 -69 61 -102 hvcurveto
            return
          </CharString>
          <CharString index="49">
            -583 -90 callsubr
            return
          </CharString>
          <CharString index="50">
            rmoveto
            -75 -39 -61 -76 -95 hhcurveto
            -96 -61 74 76 -42 hvcurveto
            -119 -58 rlineto
            -197 63 132 -77 115 hhcurveto
            138 106 85 199 71 hvcurveto
            return
          </CharString>
          <CharString index="51">
            -84 callgsubr
            -4 -74 return
          </CharString>
          <CharString index="52">
            357 hmoveto
            78 62 77 89 80 -48 65 -73 -75 -67 -76 -90 -82 52 -63 71 hvcurveto
            return
          </CharString>
          <CharString index="53">
            rmoveto
            -35 -45 -59 -21 -53 hhcurveto
            hintmask 11101000
            -70 -60 38 93 61 30 71 170 98 hvcurveto
            198 111 127 111 145 vvcurveto
            129 -129 91 -206 1 vhcurveto
            -215 1 -159 -106 -130 vvcurveto
            -70 46 -59 83 72 58 45 53 1 vhcurveto
            1 48 -11 23 -27 25 rrcurveto
            22 35 42 13 38 hhcurveto
            56 46 -29 -75 -57 -30 -38 -146 -81 hvcurveto
            -291 -153 -63 -109 -130 vvcurveto
            -194 165 -69 189 224 201 107 149 70 -43 55 -84 -89 -46 -57 -58 vhcurveto
            hintmask 11010000
            -32 14 -33 30 -24 vhcurveto
            endchar
          </CharString>
          <CharString index="54">
            27 callsubr
            -22 -196 -18 -232 -6 -140 rrcurveto
            -170 -5 40 -162 225 hhcurveto
            154 139 86 174 91 hvcurveto
            -103 67 rlineto
            -113 -63 -91 -17 -32 hhcurveto
            -89 -8 83 53 92 28 279 24 198 hvcurveto
            257 4 13 141 rlineto
            return
          </CharString>
          <CharString index="55">
            -89 callgsubr
            14 -9 -45 hvcurveto
            return
          </CharString>
          <CharString index="56">
            rmoveto
            9 183 rlineto
            -582 hlineto
            -9 -190 rlineto
            return
          </CharString>
          <CharString index="57">
            -232 -33 147 1168 -50 callgsubr
            -23 925 -2 callgsubr
            902 43 callsubr
            -593 hlineto
            -8 -158 29 1 91 2 44 3 rlinecurve
            -56 callsubr
            -43 -821 rcurveline
            -116 -6 -34 -47 -59 hhcurveto
            -14 -36 7 27 -10 hvcurveto
            13 24 8 28 1 24 rrcurveto
            69 -38 69 -103 -5 vhcurveto
            -92 -5 -53 -79 -4 -87 rrcurveto
            -127 -7 126 -92 161 hhcurveto
            276 154 159 395 21 hvcurveto
            32 600 60 callgsubr
          </CharString>
          <CharString index="58">
            7 135 rlineto
            return
          </CharString>
          <CharString index="59">
            -9 -158 29 1 81 2 45 3 rlinecurve
            -56 callsubr
            -41 -785 rcurveline
            -9 callsubr
            -93 -5 -54 callgsubr
            return
          </CharString>
          <CharString index="60">
            -46 callgsubr
            rrcurveto
            return
          </CharString>
          <CharString index="61">
            1256 rmoveto
            -310 347 rlineto
            -21 hlineto
            -367 -337 72 -97 279 205 rlineto
            2 hlineto
            256 -212 rlineto
            return
          </CharString>
          <CharString index="62">
            147 1438 rmoveto
            -8 -162 -107 callsubr
            return
          </CharString>
          <CharString index="63">
            -75 callsubr
            hintmask 11010000
            -49 callsubr
            -583 hlineto
            -81 callgsubr
            -41 return
          </CharString>
          <CharString index="64">
            -7 -135 rlineto
            return
          </CharString>
          <CharString index="65">
            -26 callsubr
            hstemhm
            4 682 -507 266 -200 264 57 callgsubr
            return
          </CharString>
          <CharString index="66">
            rmoveto
            -8 -162 -107 callsubr
            603 -63 callsubr
            -101 45 callsubr
            76 3 74 return
          </CharString>
          <CharString index="67">
            30 130 30 227 14 108 rrcurveto
            405 hlineto
            9 144 rlineto
            -396 hlineto
            12 101 15 137 12 85 rrcurveto
            -111 hlineto
            -26 -30 -91 -40 callgsubr
            70 2 44 3 rlinecurve
            -7 -32 -6 -42 -5 -39 rrcurveto
            -160 hlineto
            -9 -148 rlineto
            152 hlineto
            -26 -254 -30 -416 -307 70 callsubr
            263 hlineto
            -2 32 -4 79 60 vvcurveto
            229 152 376 124 42 return
          </CharString>
          <CharString index="68">
            -71 callsubr
            -15 callgsubr
            return
          </CharString>
          <CharString index="69">
            -53 callgsubr
            -15 11 49 return
          </CharString>
          <CharString index="70">
            rmoveto
            -136 -156 -69 -160 -7 -131 -6 -123 57 -95 126 2 89 1 62 72 4 81 rrcurveto
            95 5 -66 41 -73 hhcurveto
            -15 -9 -1 -6 -20 hvcurveto
            3 119 86 150 45 54 rrcurveto
            return
          </CharString>
          <CharString index="71">
            -9 callsubr
            -93 -5 rlinecurve
            -43 callsubr
            return
          </CharString>
          <CharString index="72">
            -36 callgsubr
            hstemhm
            52 279 334 205 71 callgsubr
            return
          </CharString>
          <CharString index="73">
            -100 -74 -429 -176 vvcurveto
            -26 1 -32 5 -40 vhcurveto
            273 hlineto
            -2 35 -4 64 59 vvcurveto
            1 return
          </CharString>
          <CharString index="74">
            1988 rmoveto
            -40 hlineto
            -434 -307 40 -82 394 176 367 -179 57 85 rlineto
            return
          </CharString>
          <CharString index="75">
            150 51 210 151 vvcurveto
            191 -72 124 -174 vhcurveto
            return
          </CharString>
          <CharString index="76">
            rlineto
            hintmask 1010111110000000
            2 -20 -58 2 -20 hhcurveto
            -390 -177 -290 -389 -221 97 -170 206 108 140 68 241 98 hvcurveto
            2 hlineto
            -6 -46 -2 -23 -54 vvcurveto
            hintmask 0110111110000000
            -145 76 -6 callsubr
            76 -101 callgsubr
            -33 -38 callsubr
            124 35 260 32 280 hvcurveto
            return
          </CharString>
          <CharString index="77">
            hintmask 10110000
            -47 callsubr
            return
          </CharString>
          <CharString index="78">
            rmoveto
            -171 -74 -124 -27 -68 hhcurveto
            return
          </CharString>
          <CharString index="79">
            107 -23 190 692 188 hstemhm
            182 264 -190 207 return
          </CharString>
          <CharString index="80">
            313 0 135 -135 152 493 164 467 158 40 callsubr
            return
          </CharString>
          <CharString index="81">
            -439 -23 190 690 78 callsubr
            return
          </CharString>
          <CharString index="82">
            87 22 71 80 4 79 rrcurveto
            145 8 -116 70 -157 hhcurveto
            -191 -92 -114 -78 -4 hvcurveto
            -3 -60 36 -42 62 -2 75 -2 28 63 2 36 1 15 -5 34 -21 18 rrcurveto
            9 11 26 16 36 hhcurveto
            69 42 -47 -73 -3 hvcurveto
            -63 -2 -43 -79 -103 hhcurveto
            -23 -24 2 1 -24 hvcurveto
            return
          </CharString>
          <CharString index="83">
            86 -33 148 -134 87 1251 148 -98 84 hstemhm
            102 144 return
          </CharString>
          <CharString index="84">
            158 -150 150 41 callgsubr
            return
          </CharString>
          <CharString index="85">
            647 hlineto
            287 219 141 266 14 hvcurveto
            11 218 -129 232 -490 -20 rrcurveto
            -80 -148 rmoveto
            116 14 callgsubr
            -77 -107 -167 3 callsubr
          </CharString>
          <CharString index="86">
            -77 -102 hhcurveto
            -133 519 156 vlineto
            -29 -1 -63 -2 -44 -3 8 61 6 83 2 39 return
          </CharString>
          <CharString index="87">
            -25 -479 rlineto
            158 hlineto
            -3 87 rlineto
            2 hlineto
            return
          </CharString>
          <CharString index="88">
            -3 rlinecurve
            7 35 7 return
          </CharString>
          <CharString index="89">
            75 4 74 return
          </CharString>
          <CharString index="90">
            573 236 398 333 17 hvcurveto
            18 341 -219 366 -540 -2 rrcurveto
            return
          </CharString>
          <CharString index="91">
            1632 rmoveto
            78 62 78 88 80 -48 65 -73 -75 -67 -76 -90 return
          </CharString>
          <CharString index="92">
            -6 -119 rlineto
            310 -29 hlineto
            -6 -94 -33 -5 -52 -3 -4 -77 rcurveline
            363 hlineto
            5 90 rlineto
            -17 -46 -1 -2 -25 hvcurveto
            return
          </CharString>
          <CharString index="93">
            -111 hlineto
            0 callsubr
            return
          </CharString>
          <CharString index="94">
            -23 -3 callsubr
            return
          </CharString>
          <CharString index="95">
            144 -132 55 -134 -191 -105 -128 -83 -57 32 -45 61 77 29 67 34 17 -5 32 -19 17 vhcurveto
            17 11 35 13 26 hhcurveto
            55 41 -33 -73 -52 -24 -96 -121 -103 hvcurveto
            -113 -97 -100 -90 -12 -189 rrcurveto
            endchar
          </CharString>
          <CharString index="96">
            1295 -51 callsubr
            return
          </CharString>
          <CharString index="97">
            207 -188 264 return
          </CharString>
          <CharString index="98">
            -12 callgsubr
            -8 return
          </CharString>
          <CharString index="99">
            -22 -47 9 27 -19 hvcurveto
            23 18 9 39 1 15 2 48 -21 56 -75 -2 -62 -2 -43 -55 -3 -60 rrcurveto
            -101 -5 97 -98 169 hhcurveto
            227 120 118 151 1 hvcurveto
            102 -55 75 -128 25 vhcurveto
            1 2 rlineto
            return
          </CharString>
          <CharString index="100">
            -94 callsubr
            endchar
          </CharString>
          <CharString index="101">
            -41 88 179 return
          </CharString>
          <CharString index="102">
            271 -33 155 1206 139 -101 87 0 -20 hstemhm
            78 320 784 144 hintmask 00000000
            hintmask 11001100
            return
          </CharString>
          <CharString index="103">
            rmoveto
            -1 callsubr
            return
          </CharString>
          <CharString index="104">
            188 692 35 callsubr
            43 -20 return
          </CharString>
          <CharString index="105">
            rmoveto
            95 30 -130 -121 11 callsubr
            75 23 191 127 hvcurveto
            return
          </CharString>
          <CharString index="106">
            -26 -30 -90 -40 callgsubr
            71 2 44 3 rlinecurve
            return
          </CharString>
          <CharString index="107">
            -26 -30 -92 -40 callgsubr
            69 2 44 3 rlinecurve
            return
          </CharString>
          <CharString index="108">
            -73 69 -60 84 17 vhcurveto
            30 -34 -3 -80 -2 -29 rrcurveto
            return
          </CharString>
          <CharString index="109">
            -2 -45 -3 rlinecurve
            7 35 return
          </CharString>
          <CharString index="110">
            -7 rrcurveto
            -2 -49 -52 -1 -49 hhcurveto
            7 35 7 72 67 callgsubr
          </CharString>
          <CharString index="111">
            rmoveto
            121 hlineto
            6 112 -121 2 28 531 rlineto
            -71 hlineto
            -463 -522 1 -1 rlineto
            return
          </CharString>
          <CharString index="112">
            rmoveto
            15 41 38 9 33 hhcurveto
            91 57 -65 -164 -9 hvcurveto
            -129 -6 -64 -60 -101 hhcurveto
            return
          </CharString>
          <CharString index="113">
            113 62 -101 127 hhcurveto
            85 115 42 212 73 hvcurveto
            return
          </CharString>
          <CharString index="114">
            123 35 33 40 31 hhcurveto
            22 7 -15 -39 hvcurveto
            return
          </CharString>
          <CharString index="115">
            261 -210 261 hintmask 00000000
            return
          </CharString>
          <CharString index="116">
            126 48 276 232 vvcurveto
            26 0 55 -6 57 vhcurveto
            -265 hlineto
            4 -52 3 -69 -37 vvcurveto
            -286 -151 -415 -124 -42 -16 26 61 vhcurveto
            return
          </CharString>
          <CharString index="117">
            -60 callsubr
            59 callgsubr
            return
          </CharString>
          <CharString index="118">
            -96 -33 -175 -113 -102 -27 154 102 return
          </CharString>
          <CharString index="119">
            171 -22 183 302 129 265 190 -1 -20 21 -20 hstemhm
            17 1221 -1056 273 -199 66 callsubr
            hintmask 11001100
            return
          </CharString>
          <CharString index="120">
            81 56 -79 110 hhcurveto
            82 101 62 171 57 hvcurveto
            return
          </CharString>
          <CharString index="121">
            rmoveto
            -130 106 -977 -1404 124 -96 rlineto
            return
          </CharString>
          <CharString index="122">
            155 2 92 -106 -11 -222 rrcurveto
            return
          </CharString>
          <CharString index="123">
            hlineto
            -36 -464 rlineto
            135 hlineto
            return
          </CharString>
          <CharString index="124">
            -256 135 -210 return
          </CharString>
          <CharString index="125">
            405 -33 163 429 152 607 149 -101 87 0 -20 return
          </CharString>
          <CharString index="126">
            -18 -149 rlineto
            27 callsubr
            return
          </CharString>
          <CharString index="127">
            -49 callsubr
            -584 hlineto
            return
          </CharString>
          <CharString index="128">
            rlinecurve
            -117 57 -85 -193 -121 -27 -76 7 rlinecurve
            -86 8 -91 80 7 223 rrcurveto
            163 5 40 272 176 hhcurveto
            return
          </CharString>
          <CharString index="129">
            hlineto
            hintmask 10010000
            -6 callgsubr
            hintmask 01010000
            29 1 return
          </CharString>
          <CharString index="130">
            vvcurveto
            -165 100 -42 88 179 110 47 callgsubr
            return
          </CharString>
          <CharString index="131">
            -28 callsubr
            273 8 callsubr
            return
          </CharString>
          <CharString index="132">
            -23 186 -186 190 744 136 -4 -20 313 47 callsubr
            hstemhm
            57 279 364 202 return
          </CharString>
          <CharString index="133">
            185 0 152 1144 138 hstem
            return
          </CharString>
          <CharString index="134">
            38 70 1 1 55 hvcurveto
            return
          </CharString>
          <CharString index="135">
            hhcurveto
            -43 callsubr
            return
          </CharString>
          <CharString index="136">
            -83 callsubr
            endchar
          </CharString>
          <CharString index="137">
            257 991 rmoveto
            1 16 32 2 21 hhcurveto
            108 -1 61 -61 -4 -86 rrcurveto
            -81 -5 -56 -61 -84 hhcurveto
            return
          </CharString>
          <CharString index="138">
            45 callgsubr
            -56 callsubr
            rlinecurve
            return
          </CharString>
          <CharString index="139">
            40 callsubr
            72 return
          </CharString>
          <CharString index="140">
            -43 callsubr
            -43 callgsubr
            return
          </CharString>
          <CharString index="141">
            -79 -555 135 397 182 752 136 return
          </CharString>
          <CharString index="142">
            190 -23 -20 return
          </CharString>
          <CharString index="143">
            117 143 63 246 96 hvcurveto
            2 hlineto
            -6 -46 -6 -23 -54 vvcurveto
            -145 84 -41 88 return
          </CharString>
          <CharString index="144">
            203 -92 170 -175 -117 -39 -87 -57 -89 72 -37 54 40 31 18 19 23 return
          </CharString>
          <CharString index="145">
            82 -13 callsubr
            return
          </CharString>
          <CharString index="146">
            hstemhm
            187 -10 callgsubr
            return
          </CharString>
          <CharString index="147">
            -152 -50 callgsubr
            return
          </CharString>
          <CharString index="148">
            7 72 4 74 return
          </CharString>
          <CharString index="149">
            -58 callgsubr
            rrcurveto
            endchar
          </CharString>
          <CharString index="150">
            1434 rmoveto
            return
          </CharString>
          <CharString index="151">
            -91 -34 61 138 19 hvcurveto
            endchar
          </CharString>
          <CharString index="152">
            -2 -44 -19 callsubr
            return
          </CharString>
          <CharString index="153">
            156 -144 144 hstemhm
            72 return
          </CharString>
          <CharString index="154">
            149 61 -20 return
          </CharString>
          <CharString index="155">
            hstemhm
            187 31 callgsubr
            return
          </CharString>
          <CharString index="156">
            417 -33 140 1220 140 return
          </CharString>
          <CharString index="157">
            3 -87 rlineto
            -2 hlineto
            return
          </CharString>
          <CharString index="158">
            -8 -160 -79 callsubr
            return
          </CharString>
          <CharString index="159">
            -33 140 522 140 -104 140 522 140 hstemhm
            return
          </CharString>
          <CharString index="160">
            -83 -23 204 730 136 289 47 callsubr
            hstemhm
            return
          </CharString>
          <CharString index="161">
            -334 -23 197 707 143 return
          </CharString>
          <CharString index="162">
            90 115 113 -110 115 return
          </CharString>
          <CharString index="163">
            155 41 callgsubr
            return
          </CharString>
          <CharString index="164">
            245 275 246 return
          </CharString>
          <CharString index="165">
            2 44 3 -2 -44 return
          </CharString>
          <CharString index="166">
            hhcurveto
            -73 -71 -19 -93 -5 hvcurveto
            -94 -5 71 -20 74 hhcurveto
            14 return
          </CharString>
          <CharString index="167">
            108 387 rlineto
            -200 hlineto
            -111 -387 rlineto
            return
          </CharString>
          <CharString index="168">
            266 90 266 return
          </CharString>
          <CharString index="169">
            -210 278 return
          </CharString>
          <CharString index="170">
            0 157 1124 -50 callgsubr
            return
          </CharString>
          <CharString index="171">
            -2 -42 -3 7 35 7 75 67 callgsubr
          </CharString>
          <CharString index="172">
            123 231 121 return
          </CharString>
          <CharString index="173">
            264 hintmask 00000000
            return
          </CharString>
          <CharString index="174">
            5 rrcurveto
            hintmask 11010000
            20 callsubr
            return
          </CharString>
          <CharString index="175">
            -85 2 21 callgsubr
            -2 hlineto
            return
          </CharString>
          <CharString index="176">
            152 -133 133 hstemhm
            return
          </CharString>
          <CharString index="177">
            vvcurveto
            -26 0 -15 6 -57 vhcurveto
            return
          </CharString>
          <CharString index="178">
            184 hintmask 00000000
            return
          </CharString>
          <CharString index="179">
            43 callgsubr
            rrcurveto
            return
          </CharString>
          <CharString index="180">
            hintmask 10111000
            -94 callsubr
            return
          </CharString>
          <CharString index="181">
            -23 190 690 62 callgsubr
            return
          </CharString>
          <CharString index="182">
            -100 -154 -6 vhcurveto
            -68 461 90 vlineto
            return
          </CharString>
          <CharString index="183">
            74 72 20 94 5 hvcurveto
            93 5 -68 19 return
          </CharString>
          <CharString index="184">
            110 47 callgsubr
            endchar
          </CharString>
          <CharString index="185">
            190 0 -20 return
          </CharString>
        <CharString name=".notdef">
          3 callgsubr
        </CharString>
        <CharString name=".null">
          -1143 endchar
        </CharString>
        <CharString name="A">
          -22 callgsubr
          hstem
          78 callgsubr
          vstem
          786 1470 -107 callgsubr
        </CharString>
        <CharString name="AE">
          763 0 135 -135 156 258 151 107 142 468 69 callsubr
          1423 35 callgsubr
          hintmask 01111011
          1788 1037 rmoveto
          -68 callgsubr
          -2 vlineto
          -710 -930 rlineto
          hintmask 10111011
          -97 -74 -85 -118 -96 hhcurveto
          hintmask 01110111
          -43 callsubr
          458 hlineto
          8 158 -164 -7 rlineto
          2 vlineto
          46 33 45 59 47 64 78 105 rcurveline
          128 2 146 5 126 3 -5 -111 rcurveline
          -8 -165 -55 -8 -92 -5 -54 callgsubr
          1076 hlineto
          36 451 rlineto
          -135 hlineto
          -222 -12 -132 -73 -121 hhcurveto
          -275 hlineto
          7 34 41 callsubr
          17 336 rcurveline
          54 hlineto
          111 4 90 -11 -9 -172 rrcurveto
          -87 callgsubr
          8 159 52 17 86 2 rlinecurve
          74 2 111 3 136 -45 -12 -222 rlinecurve
          -741 -11 rmoveto
          -35 -461 rlineto
          -301 hlineto
          178 238 87 117 17 22 52 84 rlinecurve
          endchar
        </CharString>
        <CharString name="Aacute">
          -22 callgsubr
          hstem
          78 callgsubr
          vstem
          891 -69 callgsubr
          69 -99 rlineto
          203 -106 -107 callgsubr
        </CharString>
        <CharString name="Abreve">
          -22 callgsubr
          1068 182 hstem
          78 callgsubr
          vstem
          908 1974 -57 callsubr
          -234 -455 -107 callgsubr
        </CharString>
        <CharString name="Acircumflex">
          -22 callgsubr
          hstem
          78 callgsubr
          vstem
          772 -33 callsubr
          -370 -211 -107 callgsubr
        </CharString>
        <CharString name="Acute">
          -610 1576 396 hstem
          92 467 vstem
          469 -69 callgsubr
          69 -99 rlineto
          endchar
        </CharString>
        <CharString name="Adieresis">
          -22 callgsubr
          hstem
          677 94 vstem
          537 -16 callsubr
          -82 52 -63 71 hvcurveto
          -55 callsubr
          -108 -162 -107 callgsubr
        </CharString>
        <CharString name="Agrave">
          -22 callgsubr
          hstem
          78 callgsubr
          vstem
          660 -38 callgsubr
          79 101 rlineto
          -97 -207 -107 callgsubr
        </CharString>
        <CharString name="Amacron">
          -22 callgsubr
          1128 186 hstem
          78 callgsubr
          vstem
          994 1705 -51 callsubr
          374 -228 -107 callgsubr
        </CharString>
        <CharString name="Aogonek">
          222 -532 186 346 135 -135 158 266 149 hstemhm
          756 200 hintmask 00000000
          hintmask 00111000
          1322 hmoveto
          -78 callgsubr
          -45 37 callgsubr
          -4 61 -30 100 -13 41 -379 1116 rcurveline
          -137 hlineto
          -457 -1095 rlineto
          -123 -52 -44 -111 -113 hhcurveto
          -7 -141 rlineto
          438 hlineto
          9 164 -29 -1 -77 37 callgsubr
          25 47 33 82 15 37 38 96 rcurveline
          449 8 36 -112 rlineto
          hintmask 11011000
          -104 32 -5 -77 -114 28 callsubr
          190 hlineto
          -118 -87 -84 -112 -7 -122 -84 callsubr
          hintmask 00111000
          76 callgsubr
          -416 573 rmoveto
          -345 hlineto
          105 266 51 128 32 95 11 47 rlinecurve
          2 hlineto
          9 -75 25 -106 30 -98 rrcurveto
          endchar
        </CharString>
        <CharString name="Aring">
          -22 callgsubr
          1020 105 314 104 hstem
          457 177 191 178 vstem
          728 2116 -5 callgsubr
          58 -542 -107 callgsubr
        </CharString>
        <CharString name="Atilde">
          -22 callgsubr
          1062 182 -81 182 hstemhm
          78 callgsubr
          61 callgsubr
          1054 -8 callgsubr
          -374 -419 -107 callgsubr
        </CharString>
        <CharString name="B">
          -78 callsubr
        </CharString>
        <CharString name="Breve">
          -375 1611 189 hstem
          94 718 vstem
          701 1912 rmoveto
          -58 -58 -73 -54 -119 hhcurveto
          -119 -67 54 58 -48 hvcurveto
          -123 -82 rlineto
          -162 57 152 -57 135 hhcurveto
          133 160 57 162 81 hvcurveto
          endchar
        </CharString>
        <CharString name="C">
          -5 callsubr
          1294 376 -80 callsubr
        </CharString>
        <CharString name="CR">
          -543 endchar
        </CharString>
        <CharString name="Cacute">
          -5 callsubr
          661 1651 -96 callgsubr
          451 -1561 -80 callsubr
        </CharString>
        <CharString name="Caron">
          -99 1576 395 hstem
          92 859 vstem
          476 -69 callsubr
          endchar
        </CharString>
        <CharString name="Ccaron">
          271 -33 155 1206 139 -101 87 hstemhm
          78 320 784 144 hintmask 11011000
          865 -69 callsubr
          813 -1510 rmoveto
          -139 -180 -191 -75 -163 1 -276 2 -146 260 19 354 15 295 155 296 286 -1 191 -1 110 -124 27 callgsubr
          hintmask 10111000
          -27 callgsubr
          50 callsubr
          hintmask 11011000
          66 -106 -134 35 -107 hhcurveto
          -477 -260 -398 -373 -20 hvcurveto
          -407 -21 263 -322 422 hhcurveto
          169 250 51 277 214 hvcurveto
          endchar
        </CharString>
        <CharString name="Ccedilla">
          276 -248 142 73 155 1206 139 -101 87 0 -20 hstemhm
          79 320 323 240 221 144 hintmask 00000000
          hintmask 11100111
          498 -247 rmoveto
          52 callgsubr
          10 -112 rcurveline
          32 callgsubr
          46 106 rlineto
          -1 8 9 0 9 hhcurveto
          169 250 51 277 214 hvcurveto
          -81 81 -139 -180 -191 -75 -163 1 rlinecurve
          -276 2 -146 260 19 354 15 295 155 296 286 -1 191 -1 110 -124 27 callgsubr
          hintmask 11001111
          -27 callgsubr
          hintmask 11010111
          50 callsubr
          hintmask 11100111
          66 -106 -134 35 -107 hhcurveto
          -477 -260 -398 -373 -20 hvcurveto
          -18 -347 188 -285 316 -76 rrcurveto
          endchar
        </CharString>
        <CharString name="Cedilla">
          -459 -563 583 hstem
          92 497 vstem
          102 -563 rmoveto
          32 callgsubr
          69 158 rlineto
          -165 hlineto
          -77 -267 52 callgsubr
          rrcurveto
          endchar
        </CharString>
        <CharString name="Circumflex">
          -100 1596 392 hstem
          92 858 vstem
          566 -33 callsubr
          endchar
        </CharString>
        <CharString name="D">
          33 callgsubr
          57 callgsubr
          147 1436 rmoveto
          hintmask 11010000
          -8 -160 -107 callsubr
          582 hlineto
          hintmask 10101000
          -17 callsubr
          -171 -311 rmoveto
          8 157 51 20 101 -3 -42 callgsubr
        </CharString>
        <CharString name="Dcaron">
          33 callgsubr
          hintmask 11010000
          745 -69 callsubr
          -214 -450 rmoveto
          -8 -160 -107 callsubr
          582 hlineto
          hintmask 11001000
          -17 callsubr
          -171 -311 rmoveto
          hintmask 10101000
          8 157 51 20 101 -3 -42 callgsubr
        </CharString>
        <CharString name="Dcroat">
          -70 callgsubr
        </CharString>
        <CharString name="Delta">
          255 0 143 1324 -20 hstem
          10 1303 vstem
          1313 hmoveto
          -516 1467 rlineto
          -151 hlineto
          -636 -1467 rlineto
          648 1149 rmoveto
          119 -352 113 -316 115 -338 -258 2 -258 0 -247 1 rrcurveto
          endchar
        </CharString>
        <CharString name="Dieresis">
          -336 1632 311 hstem
          356 94 vstem
          216 -16 callsubr
          -82 52 -63 71 hvcurveto
          -55 callsubr
          endchar
        </CharString>
        <CharString name="E">
          -67 callgsubr
          hintmask 00000000
          hintmask 11101100
          1158 1037 -45 callgsubr
          1076 hlineto
          36 451 rlineto
          -135 hlineto
          -222 -12 -132 -73 -121 hhcurveto
          -275 hlineto
          7 34 41 callsubr
          17 336 rcurveline
          54 hlineto
          111 4 90 -11 -9 -172 rrcurveto
          -87 callgsubr
          rlineto
          hintmask 11011100
          -82 callgsubr
          endchar
        </CharString>
        <CharString name="Eacute">
          -67 callgsubr
          hintmask 00000000
          886 -69 callgsubr
          hintmask 11101100
          69 -99 rlineto
          580 -539 -45 callgsubr
          1076 hlineto
          36 451 rlineto
          -135 hlineto
          -222 -12 -132 -73 -121 hhcurveto
          -275 hlineto
          7 34 41 callsubr
          17 336 rcurveline
          54 hlineto
          111 4 90 -11 -9 -172 rrcurveto
          -87 callgsubr
          rlineto
          hintmask 11011100
          -82 callgsubr
          endchar
        </CharString>
        <CharString name="Ecaron">
          -67 callgsubr
          hintmask 11101100
          715 -69 callsubr
          827 -849 -45 callgsubr
          1076 hlineto
          36 451 rlineto
          -135 hlineto
          -222 -12 -132 -73 -121 hhcurveto
          -275 hlineto
          7 34 41 callsubr
          17 336 rcurveline
          54 hlineto
          111 4 90 -11 -9 -172 rrcurveto
          -87 callgsubr
          8 159 52 17 86 2 rlinecurve
          hintmask 11011100
          74 2 111 3 136 -45 -12 -222 rlinecurve
          endchar
        </CharString>
        <CharString name="Ecircumflex">
          -67 callgsubr
          hintmask 00000000
          hintmask 11101100
          780 -33 callsubr
          -6 -644 -45 callgsubr
          1076 hlineto
          36 451 rlineto
          -135 hlineto
          -222 -12 -132 -73 -121 hhcurveto
          -275 hlineto
          7 34 41 callsubr
          17 336 rcurveline
          54 hlineto
          111 4 90 -11 -9 -172 rrcurveto
          -87 callgsubr
          rlineto
          hintmask 11011100
          -82 callgsubr
          endchar
        </CharString>
        <CharString name="Edieresis">
          133 0 156 516 142 468 69 callsubr
          700 94 -1 35 callgsubr
          560 -20 callgsubr
          hintmask 11101010
          -82 52 -63 71 vhcurveto
          -55 callsubr
          241 -595 -45 callgsubr
          1076 hlineto
          36 451 rlineto
          -135 hlineto
          -222 -12 -132 -73 -121 hhcurveto
          -275 hlineto
          7 34 41 callsubr
          17 336 rcurveline
          54 hlineto
          111 4 90 -11 -9 -172 rrcurveto
          hintmask 11010110
          -87 callgsubr
          8 159 52 17 86 2 rlinecurve
          74 2 111 3 136 -45 -12 -222 rlinecurve
          endchar
        </CharString>
        <CharString name="Edotaccent">
          -67 callgsubr
          hintmask 00000000
          hintmask 11101100
          711 1953 -47 callgsubr
          447 -916 -45 callgsubr
          1076 hlineto
          36 451 rlineto
          -135 hlineto
          -222 -12 -132 -73 -121 hhcurveto
          -275 hlineto
          7 34 41 callsubr
          17 336 rcurveline
          54 hlineto
          111 4 90 -11 -9 -172 rrcurveto
          -87 callgsubr
          rlineto
          hintmask 11011100
          -82 callgsubr
          endchar
        </CharString>
        <CharString name="Egrave">
          -67 callgsubr
          hintmask 00000000
          719 -38 callgsubr
          hintmask 11101100
          79 101 rlineto
          216 -640 -45 callgsubr
          1076 hlineto
          36 451 rlineto
          -135 hlineto
          -222 -12 -132 -73 -121 hhcurveto
          -275 hlineto
          7 34 41 callsubr
          17 336 rcurveline
          54 hlineto
          111 4 90 -11 -9 -172 rrcurveto
          -87 callgsubr
          rlineto
          hintmask 11011100
          -82 callgsubr
          endchar
        </CharString>
        <CharString name="Emacron">
          133 0 156 516 142 468 152 -133 133 267 186 hstemhm
          793 35 callgsubr
          hintmask 11101110
          989 1705 -51 callsubr
          751 -661 -45 callgsubr
          1076 hlineto
          36 451 rlineto
          -135 hlineto
          -222 -12 -132 -73 -121 hhcurveto
          -275 hlineto
          7 34 41 callsubr
          17 336 rcurveline
          54 hlineto
          111 4 90 -11 -9 -172 rrcurveto
          -87 callgsubr
          rlineto
          hintmask 11011110
          -82 callgsubr
          endchar
        </CharString>
        <CharString name="Eogonek">
          133 -532 186 346 156 516 142 468 69 callsubr
          676 200 -83 35 callgsubr
          hintmask 01110011
          1148 hmoveto
          1 11 rlineto
          1 hlineto
          3 47 31 393 rlineto
          -135 hlineto
          -222 -12 -132 -73 -121 hhcurveto
          -275 hlineto
          7 34 41 callsubr
          17 336 rcurveline
          54 hlineto
          111 4 90 -11 -9 -172 rrcurveto
          -87 callgsubr
          rlineto
          hintmask 01101011
          -82 callgsubr
          135 hlineto
          hintmask 11110101
          -61 callsubr
          813 hlineto
          -118 -87 -84 -112 -7 -122 -84 callsubr
          76 callgsubr
          endchar
        </CharString>
        <CharString name="Eth">
          -70 callgsubr
        </CharString>
        <CharString name="Euro">
          478 -33 166 343 155 124 156 407 149 -14 -20 hstemhm
          60 1483 -1280 286 hintmask 00000000
          hintmask 11110100
          121 913 rmoveto
          -47 -159 rlineto
          hintmask 11110010
          192 hlineto
          -3 -40 -3 -41 1 -40 rrcurveto
          -155 hlineto
          -46 -159 rlineto
          219 hlineto
          -296 64 225 -211 342 hhcurveto
          169 250 51 277 214 hvcurveto
          -89 85 rlineto
          -158 -122 -192 -89 -171 hhcurveto
          -208 -142 117 226 -48 hvcurveto
          451 hlineto
          109 155 rlineto
          -578 hlineto
          -6 42 3 41 5 41 rrcurveto
          610 hlineto
          105 156 rlineto
          -687 hlineto
          61 224 151 184 227 -1 191 -1 95 -113 -8 -200 rrcurveto
          134 hlineto
          hintmask 11101100
          73 449 rlineto
          -158 hlineto
          -7 -87 rlineto
          -2 hlineto
          hintmask 11110100
          72 -106 -124 29 -107 hhcurveto
          -384 -232 -258 -296 -87 hvcurveto
          endchar
        </CharString>
        <CharString name="F">
          16 0 152 470 142 518 69 callsubr
          761 145 117 139 hintmask 00000000
          hintmask 11101100
          1158 1037 -45 callgsubr
          611 -63 callsubr
          -109 -60 callsubr
          15 286 rcurveline
          25 hlineto
          111 4 89 -11 -9 -172 46 callgsubr
          26 498 rlineto
          -158 hlineto
          1 -50 -2 -71 1 -56 rrcurveto
          -212 hlineto
          19 357 rlineto
          hintmask 11011100
          -82 callgsubr
          endchar
        </CharString>
        <CharString name="G">
          18 callsubr
          hstemhm
          79 319 703 254 -140 144 hintmask 00000000
          1347 69 -62 callsubr
          hintmask 11100110
          49 callgsubr
          hintmask 11001101
          50 callsubr
          hintmask 11010101
          66 -106 -170 35 -107 hhcurveto
          -477 -256 -398 -373 -20 hvcurveto
          -407 -21 236 -322 445 251 149 102 158 hhcurveto
          endchar
        </CharString>
        <CharString name="Gamma">
          17 0 152 1130 69 callsubr
          1023 139 -2 callgsubr
          1158 1037 -45 callgsubr
          611 -63 callsubr
          -109 -2 -44 -3 rlinecurve
          7 35 7 75 4 74 41 785 rcurveline
          hintmask 10110000
          -82 callgsubr
          endchar
        </CharString>
        <CharString name="Gbreve">
          18 callsubr
          208 182 hstemhm
          79 319 703 254 -140 144 hintmask 0000000000000000
          hintmask 1110011010000000
          1075 1974 -57 callsubr
          hintmask 1110011100000000
          160 -1856 -62 callsubr
          hintmask 1100111010000000
          49 callgsubr
          hintmask 1101011010000000
          50 callsubr
          hintmask 1110011100000000
          66 -106 -170 35 -107 hhcurveto
          -477 -256 -398 -373 -20 hvcurveto
          -407 -21 236 -322 445 251 149 102 158 hhcurveto
          endchar
        </CharString>
        <CharString name="Gcommaaccent">
          18 callsubr
          hstemhm
          79 319 196 245 262 254 -140 144 hintmask 0000000000000000
          1347 69 -62 callsubr
          hintmask 1110011100000000
          49 callgsubr
          hintmask 1100111010000000
          50 callsubr
          hintmask 1101011010000000
          66 -106 -170 35 -107 hhcurveto
          -477 -256 -398 -373 -20 hvcurveto
          -407 -21 236 -322 445 251 149 102 158 hhcurveto
          -711 -191 rmoveto
          -97 callgsubr
        </CharString>
        <CharString name="Grave">
          -513 1576 396 hstem
          92 446 vstem
          315 -38 callgsubr
          79 101 rlineto
          endchar
        </CharString>
        <CharString name="H">
          499 0 152 489 158 482 16 callgsubr
          1513 61 callgsubr
          1585 -33 callgsubr
          -15 -298 rcurveline
          -564 hlineto
          17 321 rlineto
          hintmask 11011000
          -94 callsubr
          hintmask 11101000
          -49 callsubr
          -99 callgsubr
          7 35 7 75 4 74 15 302 rcurveline
          565 7 -18 -332 -8 -165 -55 -8 -92 -5 rlinecurve
          -7 -135 rlineto
          4 callgsubr
          hintmask 11011000
          -7 callsubr
        </CharString>
        <CharString name="I">
          -356 -51 callgsubr
          72 658 -2 callgsubr
          730 1434 rmoveto
          -99 callgsubr
          7 35 7 75 4 74 41 785 rcurveline
          -49 callgsubr
        </CharString>
        <CharString name="Iacute">
          -356 -51 callgsubr
          72 664 hintmask 00000000
          646 -69 callgsubr
          hintmask 11010000
          69 -99 rlineto
          392 -142 rmoveto
          -99 callgsubr
          7 35 7 75 4 74 41 785 rcurveline
          -49 callgsubr
        </CharString>
        <CharString name="Icircumflex">
          -355 -51 callgsubr
          30 838 -2 callgsubr
          868 1681 rmoveto
          -374 307 rlineto
          -40 hlineto
          -424 -307 40 -82 384 176 357 -179 rlineto
          -81 -162 rmoveto
          -99 callgsubr
          7 35 7 75 4 74 41 785 rcurveline
          -49 callgsubr
        </CharString>
        <CharString name="Idieresis">
          -356 -51 callgsubr
          418 94 hintmask 00000000
          278 -20 callgsubr
          hintmask 11010000
          -82 52 -63 71 vhcurveto
          -55 callsubr
          95 -198 rmoveto
          -99 callgsubr
          7 35 7 75 4 74 41 785 rcurveline
          -49 callgsubr
        </CharString>
        <CharString name="Idotaccent">
          -356 -51 callgsubr
          72 658 -2 callgsubr
          471 1953 -47 callgsubr
          259 -519 rmoveto
          -99 callgsubr
          7 35 7 75 4 74 41 785 rcurveline
          -49 callgsubr
        </CharString>
        <CharString name="Igrave">
          -356 -51 callgsubr
          72 658 hintmask 00000000
          310 -38 callgsubr
          hintmask 11010000
          79 101 rlineto
          197 -243 rmoveto
          -99 callgsubr
          7 35 7 75 4 74 41 785 rcurveline
          -49 callgsubr
        </CharString>
        <CharString name="Imacron">
          -356 -48 callgsubr
          267 186 hstemhm
          72 686 hintmask 00000000
          hintmask 11011000
          749 1705 -51 callsubr
          563 -264 rmoveto
          -99 callgsubr
          7 35 7 75 4 74 41 785 rcurveline
          73 callsubr
          endchar
        </CharString>
        <CharString name="Iogonek">
          -356 -542 186 356 -39 callgsubr
          hstemhm
          180 200 hintmask 00000000
          hintmask 00101000
          568 1121 rmoveto
          hintmask 00011000
          -94 callsubr
          hintmask 11101000
          -49 callsubr
          -58 callsubr
          331 hlineto
          -125 -88 -91 -116 -7 -127 -84 callsubr
          2 114 137 105 133 55 rrcurveto
          3 42 callsubr
        </CharString>
        <CharString name="J">
          -50 callsubr
        </CharString>
        <CharString name="K">
          -27 callsubr
          72 1353 hintmask 00000000
          hintmask 01101010
          1401 1434 -102 callgsubr
          endchar
        </CharString>
        <CharString name="Kcommaaccent">
          -27 callsubr
          569 245 hintmask 00000000
          hintmask 01101010
          1401 1434 -102 callgsubr
          -833 -1421 rmoveto
          -97 callgsubr
        </CharString>
        <CharString name="L">
          98 0 156 1126 16 callgsubr
          1125 -2 callgsubr
          730 1434 rmoveto
          -76 callgsubr
          -49 callgsubr
        </CharString>
        <CharString name="Lacute">
          98 0 156 1126 16 callgsubr
          1125 hintmask 00000000
          615 -69 callgsubr
          hintmask 11010000
          69 -99 rlineto
          423 -142 rmoveto
          -76 callgsubr
          -49 callgsubr
        </CharString>
        <CharString name="Lcaron">
          98 0 156 875 -20 271 -77 callsubr
          34 -20 hstemhm
          952 185 hintmask 11101100
          927 1468 -44 callgsubr
          -379 hmoveto
          -76 callgsubr
          hintmask 11011100
          -7 callsubr
        </CharString>
        <CharString name="Lcommaaccent">
          98 0 156 1126 -50 callgsubr
          462 245 -2 callgsubr
          730 1434 rmoveto
          -76 callgsubr
          -75 callsubr
          -269 -1421 rmoveto
          -97 callgsubr
        </CharString>
        <CharString name="Lslash">
          99 0 156 892 -20 254 -50 callgsubr
          74 1125 61 callgsubr
          732 -33 callgsubr
          -20 -384 rcurveline
          -162 -116 -12 -229 162 116 -9 -172 -74 callgsubr
          1087 hlineto
          38 491 rlineto
          -136 hlineto
          -12 -222 -104 -112 -161 -1 rrcurveto
          -275 hlineto
          7 34 41 callsubr
          19 368 rcurveline
          164 118 12 226 -164 -118 10 191 rlineto
          hintmask 11011000
          -7 callsubr
        </CharString>
        <CharString name="M">
          -80 callgsubr
        </CharString>
        <CharString name="N">
          438 -51 callgsubr
          74 1483 -2 callgsubr
          1557 1434 -103 callsubr
          -30 callsubr
          endchar
        </CharString>
        <CharString name="NULL">
          -543 endchar
        </CharString>
        <CharString name="Nacute">
          438 -51 callgsubr
          74 1483 -2 callgsubr
          633 1651 -96 callgsubr
          742 -503 -103 callsubr
          -30 callsubr
          endchar
        </CharString>
        <CharString name="Ncaron">
          438 -51 callgsubr
          74 1483 hintmask 11010000
          825 -69 callsubr
          1116 -452 -103 callsubr
          -30 callsubr
          endchar
        </CharString>
        <CharString name="Ncommaaccent">
          438 -51 callgsubr
          632 245 -2 callgsubr
          1557 1434 -103 callsubr
          -30 callsubr
          -926 -1421 rmoveto
          -97 callgsubr
        </CharString>
        <CharString name="Ntilde">
          438 -48 callgsubr
          201 182 -81 182 hstemhm
          74 1483 hintmask 00000000
          hintmask 11010100
          1178 1943 rmoveto
          -78 -40 -82 -48 -55 hhcurveto
          hintmask 11001100
          -23 callgsubr
          hintmask 11010100
          6 callsubr
          273 -455 -103 callsubr
          hintmask 10110100
          -47 callsubr
          endchar
        </CharString>
        <CharString name="O">
          417 832 1467 -104 callgsubr
        </CharString>
        <CharString name="OE">
          935 0 156 516 142 487 133 -116 149 hstemhm
          79 318 1198 35 callgsubr
          hintmask 11101110
          1950 hmoveto
          36 451 rlineto
          -135 hlineto
          -222 -12 -132 -73 -121 hhcurveto
          -275 hlineto
          7 34 41 callsubr
          17 336 rcurveline
          54 hlineto
          111 4 90 -11 -9 -172 rrcurveto
          -87 callgsubr
          8 159 52 17 86 2 rlinecurve
          74 2 111 3 136 -45 -12 -222 rlinecurve
          135 hlineto
          9 397 rlineto
          -856 hlineto
          hintmask 11011110
          23 -85 -111 10 -66 hhcurveto
          -522 -230 -403 -373 -20 hvcurveto
          -21 -407 263 -311 421 -6 89 -1 107 6 100 28 rrcurveto
          -10 160 rmoveto
          -70 -25 -71 -10 -86 7 -275 22 -148 240 19 354 15 295 133 264 296 11 95 4 88 -20 67 -43 -5 -39 -6 -61 -3 -61 rrcurveto
          endchar
        </CharString>
        <CharString name="Oacute">
          417 -34 callgsubr
          1001 -69 callgsubr
          hintmask 11100000
          69 -99 rlineto
          hintmask 11011000
          139 -109 -104 callgsubr
        </CharString>
        <CharString name="Ocircumflex">
          417 -34 callgsubr
          hintmask 11100000
          934 -33 callsubr
          hintmask 11011000
          -486 -214 -104 callgsubr
        </CharString>
        <CharString name="Odieresis">
          49 callsubr
          hstem
          81 316 453 94 236 315 vstem
          710 -16 callsubr
          -82 52 -63 71 hvcurveto
          -55 callsubr
          -235 -165 -104 callgsubr
        </CharString>
        <CharString name="Ograve">
          417 -34 callgsubr
          812 -38 callgsubr
          hintmask 11100000
          79 101 rlineto
          hintmask 11011000
          -203 -210 -104 callgsubr
        </CharString>
        <CharString name="Ohungarumlaut">
          417 -34 callgsubr
          hintmask 11100000
          432 1681 -73 callsubr
          hintmask 11011000
          -142 -461 -104 callgsubr
        </CharString>
        <CharString name="Omacron">
          49 callsubr
          234 186 hstemhm
          80 1416 -1415 316 783 315 hintmask 00000000
          hintmask 11110000
          1104 1705 -51 callsubr
          hintmask 11101100
          310 -231 -104 callgsubr
        </CharString>
        <CharString name="Omega">
          -66 callsubr
        </CharString>
        <CharString name="Oslash">
          416 -34 callgsubr
          hintmask 11100000
          1422 1503 rmoveto
          -157 101 -128 -201 rlineto
          40 -85 -101 24 -119 hhcurveto
          hintmask 11011000
          -485 -249 -407 -343 -17 hvcurveto
          -12 -227 62 -241 181 -146 -133 -210 rcurveline
          147 -102 143 223 rlineto
          -30 78 92 -17 108 hhcurveto
          484 246 411 339 18 hvcurveto
          10 202 -60 227 -155 150 rrcurveto
          -829 -959 rmoveto
          -55 125 -16 154 7 125 13 253 106 326 281 7 98 2 79 -31 60 -58 rrcurveto
          105 -179 rmoveto
          35 -105 13 -130 -7 -144 -13 -251 -108 -322 -283 -2 -83 -1 -67 27 -53 44 rrcurveto
          endchar
        </CharString>
        <CharString name="Otilde">
          49 callsubr
          168 182 -81 182 hstemhm
          80 1416 -1415 316 783 315 61 callgsubr
          1214 -8 callgsubr
          hintmask 11100110
          -488 -422 -104 callgsubr
        </CharString>
        <CharString name="P">
          -62 callgsubr
        </CharString>
        <CharString name="Pi">
          -65 callgsubr
        </CharString>
        <CharString name="Q">
          421 -446 137 276 149 1201 150 hstem
          80 318 784 317 vstem
          1563 -446 rmoveto
          8 137 rlineto
          -89 -10 28 177 -181 hvcurveto
          99 -101 -67 16 -117 hhcurveto
          2 vlineto
          315 116 164 316 14 272 rrcurveto
          341 18 -186 409 -498 hhcurveto
          -485 -250 -407 -343 -18 hvcurveto
          -352 -18 162 -398 504 hhcurveto
          169 68 -149 -153 166 hvcurveto
          -102 111 47 -9 189 hhcurveto
          -680 1763 rmoveto
          285 7 117 -267 -20 -375 -13 -251 -107 -313 -283 -2 -310 -2 -83 371 14 256 13 253 105 316 282 7 rrcurveto
          endchar
        </CharString>
        <CharString name="R">
          -21 callgsubr
          72 1271 hintmask 00000000
          hintmask 01110100
          147 1438 -95 callgsubr
          endchar
        </CharString>
        <CharString name="Racute">
          -21 callgsubr
          72 1271 hintmask 00000000
          hintmask 01110100
          516 1658 -96 callgsubr
          -551 -506 -95 callgsubr
          endchar
        </CharString>
        <CharString name="Rcaron">
          -21 callgsubr
          72 1271 hintmask 10110100
          738 -69 callsubr
          -207 -448 rmoveto
          -8 -162 -107 callsubr
          603 hlineto
          8 158 rlineto
          hintmask 01110100
          -29 -1 -101 -2 -44 -3 7 35 7 76 3 74 12 221 rcurveline
          40 -1 24 0 44 1 23 -29 25 -35 32 -56 137 -245 rcurveline
          49 -88 45 -70 47 -35 rrcurveto
          332 hlineto
          hintmask 10110100
          50 callgsubr
          -43 49 -84 138 rlinecurve
          -88 145 -34 55 -51 53 -50 20 rlinecurve
          2 vlineto
          242 67 124 154 14 174 26 326 -223 117 15 callgsubr
          hintmask 10101100
          144 8 52 18 87 hhcurveto
          83 195 -18 -263 -14 hvcurveto
          -209 -11 -96 -99 -226 hhcurveto
          -35 -33 3 4 -32 hvcurveto
          endchar
        </CharString>
        <CharString name="Rcommaaccent">
          -21 callgsubr
          538 245 hintmask 00000000
          hintmask 01110100
          147 1438 -95 callgsubr
          -16 -834 rmoveto
          -97 callgsubr
        </CharString>
        <CharString name="Ring">
          -411 1538 105 314 104 hstem
          93 177 191 178 vstem
          364 2061 -5 callgsubr
          endchar
        </CharString>
        <CharString name="S">
          -24 callsubr
          -132 270 568 144 hintmask 00000000
          hintmask 10101010
          115 460 -92 callsubr
        </CharString>
        <CharString name="Sacute">
          -24 callsubr
          -132 270 568 144 hintmask 00000000
          hintmask 10101010
          472 1651 -96 callgsubr
          -539 -1477 -92 callsubr
        </CharString>
        <CharString name="Scaron">
          -24 callsubr
          706 144 hintmask 01101100
          607 -69 callsubr
          -108 -1426 rmoveto
          -20 callsubr
          hintmask 10101100
          -66 106 136 -35 107 hhcurveto
          317 218 171 242 13 hvcurveto
          14 268 -256 123 -201 83 -221 91 -102 70 7 128 5 102 108 73 116 1 191 2 121 -118 27 callgsubr
          hintmask 10011100
          -27 callgsubr
          3 -84 rlineto
          -2 hlineto
          hintmask 10101100
          -65 callsubr
        </CharString>
        <CharString name="Scedilla">
          86 -244 135 79 145 -134 87 1251 148 -98 84 hstemhm
          102 144 -132 270 305 234 29 144 hintmask 0000000000000000
          hintmask 0001010010000000
          1085 974 rmoveto
          hintmask 0000110010000000
          -27 callgsubr
          3 -84 rlineto
          -2 hlineto
          hintmask 0101001010000000
          -88 callsubr
          hintmask 0011010010000000
          -134 hlineto
          -20 callsubr
          hintmask 1101001110000000
          87 -54 107 -34 95 -10 -62 -210 rcurveline
          75 -32 41 33 104 15 -4 -70 rlinecurve
          -56 callgsubr
          48 113 268 29 178 161 12 218 rlinecurve
          14 268 -256 123 -201 83 -221 91 -102 70 7 128 5 102 108 73 116 1 191 2 121 -118 25 -229 rrcurveto
          endchar
        </CharString>
        <CharString name="Scommaaccent">
          -24 callsubr
          -132 270 135 245 188 144 hintmask 00000000
          hintmask 10101011
          115 460 rmoveto
          hintmask 01101011
          -20 callsubr
          hintmask 10100111
          -66 106 136 -35 107 hhcurveto
          317 218 171 242 13 hvcurveto
          14 268 -256 123 -201 83 -221 91 -102 70 7 128 5 102 108 73 116 1 191 2 121 -118 27 callgsubr
          hintmask 10011011
          -27 callgsubr
          3 -84 rlineto
          -2 hlineto
          hintmask 10100111
          -88 callsubr
          263 -582 rmoveto
          -97 callgsubr
        </CharString>
        <CharString name="T">
          26 callsubr
          1184 141 vstem
          1319 970 rmoveto
          -86 callsubr
          50 960 rcurveline
          98 hlineto
          15 callsubr
          endchar
        </CharString>
        <CharString name="Tcaron">
          26 callsubr
          1184 141 vstem
          695 -69 callsubr
          1008 -916 rmoveto
          -86 callsubr
          50 960 rcurveline
          98 hlineto
          15 callsubr
          endchar
        </CharString>
        <CharString name="Thorn">
          147 0 152 159 146 568 144 113 16 callgsubr
          1195 hintmask 00000000
          hintmask 11110100
          730 1434 rmoveto
          -99 callgsubr
          6 30 6 64 4 65 41 -1 35 -1 56 2 388 11 203 194 17 219 26 326 -238 113 -359 -4 -122 -2 rcurveline
          hintmask 11101100
          16 119 52 7 83 5 rrcurveto
          -160 -275 rmoveto
          1 32 39 0 49 hhcurveto
          85 196 -8 -263 -14 hvcurveto
          -199 -10 -106 -98 -226 hhcurveto
          -27 -24 1 3 -24 hvcurveto
          endchar
        </CharString>
        <CharString name="Tilde">
          -97 1635 182 -81 182 hstemhm
          92 862 hintmask 00000000
          hintmask 01100000
          848 1943 rmoveto
          hintmask 10100000
          -78 -40 -82 -48 -55 hhcurveto
          hintmask 01100000
          -23 callgsubr
          hintmask 10100000
          6 callsubr
          endchar
        </CharString>
        <CharString name="U">
          -31 callgsubr
          hstemhm
          1188 184 -2 callgsubr
          1548 1434 -101 callsubr
        </CharString>
        <CharString name="Uacute">
          -31 callgsubr
          hstemhm
          1188 71 callsubr
          1047 -69 callgsubr
          hintmask 11010000
          69 -99 rlineto
          809 -142 -101 callsubr
        </CharString>
        <CharString name="Ucircumflex">
          -31 callgsubr
          hstemhm
          1188 184 -2 callgsubr
          927 -33 callsubr
          237 -247 -101 callsubr
        </CharString>
        <CharString name="Udieresis">
          -31 callgsubr
          hstemhm
          847 94 247 71 callsubr
          707 -20 callgsubr
          hintmask 11011000
          -82 52 -63 71 vhcurveto
          -55 callsubr
          484 -198 -95 callsubr
          73 callsubr
          hintmask 11011000
          20 callsubr
          -81 callgsubr
          -26 -496 rcurveline
          -351 -18 109 -284 462 hhcurveto
          327 255 170 471 25 hvcurveto
          27 513 rlineto
          73 callsubr
          endchar
        </CharString>
        <CharString name="Ugrave">
          -31 callgsubr
          hstemhm
          1188 71 callsubr
          723 -38 callgsubr
          hintmask 11010000
          79 101 rlineto
          602 -243 -101 callsubr
        </CharString>
        <CharString name="Uhungarumlaut">
          -31 callgsubr
          hstemhm
          1188 184 -2 callgsubr
          478 1681 -73 callsubr
          528 -494 -101 callsubr
        </CharString>
        <CharString name="Umacron">
          -31 callgsubr
          267 186 hstemhm
          1188 71 callsubr
          hintmask 11011000
          1150 1705 -51 callsubr
          980 -264 -95 callsubr
          73 callsubr
          hintmask 11011000
          20 callsubr
          -81 callgsubr
          -26 -496 rcurveline
          -351 -18 109 -284 462 hhcurveto
          327 255 170 471 25 hvcurveto
          27 513 rlineto
          73 callsubr
          endchar
        </CharString>
        <CharString name="Uogonek">
          404 -532 186 314 155 1159 -50 callgsubr
          536 200 452 71 callsubr
          hintmask 01101100
          1548 1434 -95 callsubr
          hintmask 01011100
          -94 callsubr
          hintmask 11101100
          20 callsubr
          -81 callgsubr
          -26 -496 rcurveline
          -17 -339 101 -276 422 -19 -97 -81 -66 -100 -6 -108 -84 callsubr
          2 115 139 105 133 55 195 77 136 183 18 337 27 513 rcurveline
          hintmask 01011100
          -7 callsubr
        </CharString>
        <CharString name="Uring">
          -31 callgsubr
          129 65 callsubr
          hstemhm
          621 168 155 162 82 71 callsubr
          hintmask 11011111
          875 2038 -77 callgsubr
          680 -483 -95 callsubr
          hintmask 10111111
          -94 callsubr
          hintmask 11011111
          20 callsubr
          -81 callgsubr
          -26 -496 rcurveline
          -351 -18 109 -284 462 hhcurveto
          327 255 170 471 25 hvcurveto
          27 513 rlineto
          hintmask 10111111
          -7 callsubr
        </CharString>
        <CharString name="V">
          295 1276 158 40 callsubr
          52 1434 hintmask 00000000
          hintmask 01010000
          1486 43 callsubr
          -461 22 callsubr
          84 4 45 3 -1 -2 rcurveline
          -37 -42 -38 -99 -18 -45 -178 -429 rcurveline
          -38 -93 -42 -111 -35 -81 rrcurveto
          -2 hlineto
          -36 104 -22 78 -41 113 -165 464 rcurveline
          hintmask 00110000
          -42 121 67 39 102 -2 rrcurveto
          hintmask 01010000
          -49 callsubr
          -596 22 callsubr
          36 58 callsubr
          25 -83 25 -68 416 -1099 rcurveline
          160 hlineto
          466 1092 rlineto
          hintmask 00110000
          67 157 69 57 92 5 rrcurveto
          endchar
        </CharString>
        <CharString name="W">
          925 1276 158 40 callsubr
          59 2057 hintmask 00000000
          hintmask 01010000
          2116 43 callsubr
          -461 22 callsubr
          84 4 45 3 -1 -2 rcurveline
          -43 -44 -29 -77 -21 -65 -137 -429 rcurveline
          -31 -99 -33 -94 -29 -90 rrcurveto
          -2 hlineto
          -17 102 -17 99 -24 94 -193 755 rcurveline
          -183 hlineto
          -223 -628 -21 -59 -95 -285 -22 -75 rlinecurve
          -2 hlineto
          -19 132 -15 65 -20 93 -99 468 rcurveline
          hintmask 00110000
          -28 125 55 31 102 -2 rrcurveto
          hintmask 01010000
          -49 callsubr
          -598 22 callsubr
          36 58 callsubr
          25 -79 25 -68 308 -1103 rcurveline
          173 hlineto
          273 768 33 92 22 82 20 93 rlinecurve
          2 hlineto
          14 -93 14 -102 30 -107 205 -733 rcurveline
          179 hlineto
          392 1092 rlineto
          hintmask 00110000
          60 159 76 55 92 5 rrcurveto
          endchar
        </CharString>
        <CharString name="X">
          -83 callgsubr
        </CharString>
        <CharString name="Y">
          218 0 152 1124 -23 callsubr
          48 1353 hintmask 00000000
          hintmask 10101000
          1401 1434 -93 callgsubr
        </CharString>
        <CharString name="Yacute">
          218 0 152 1124 -23 callsubr
          48 1353 hintmask 00000000
          956 -69 callgsubr
          hintmask 10101000
          69 -99 rlineto
          753 -142 -93 callgsubr
        </CharString>
        <CharString name="Ydieresis">
          218 0 152 1124 -23 callsubr
          733 94 hintmask 00000000
          593 -20 callgsubr
          hintmask 10101000
          -82 52 -63 71 vhcurveto
          -55 callsubr
          451 -198 -93 callgsubr
        </CharString>
        <CharString name="Z">
          6 callgsubr
          1179 1280 -85 callsubr
        </CharString>
        <CharString name="Zacute">
          6 callgsubr
          470 1651 -96 callgsubr
          527 -657 -85 callsubr
        </CharString>
        <CharString name="Zcaron">
          6 callgsubr
          665 -69 callsubr
          898 -606 -85 callsubr
        </CharString>
        <CharString name="Zdotaccent">
          6 callgsubr
          684 1953 -47 callgsubr
          495 -673 -85 callsubr
        </CharString>
        <CharString name="a">
          -35 callsubr
          673 283 -100 callsubr
        </CharString>
        <CharString name="aacute">
          -35 callsubr
          457 1241 -96 callgsubr
          34 -1244 -100 callsubr
        </CharString>
        <CharString name="abreve">
          -36 callgsubr
          184 182 hstemhm
          52 279 334 72 callgsubr
          hintmask 10111100
          863 1564 -57 callsubr
          -302 -1232 rmoveto
          -5 -35 -3 -49 -36 vvcurveto
          hintmask 01111100
          -100 callgsubr
          hintmask 10111100
          -254 122 -120 149 125 123 69 237 100 vhcurveto
          -78 628 rmoveto
          32 39 -7 -5 14 hvcurveto
          -307 -17 -102 -433 -150 hhcurveto
          -48 -30 69 111 375 108 197 154 hvcurveto
          endchar
        </CharString>
        <CharString name="acircumflex">
          -35 callsubr
          1012 -46 callsubr
          -250 -879 -100 callsubr
        </CharString>
        <CharString name="acute">
          -546 1158 445 hstem
          93 411 vstem
          93 1241 -96 callgsubr
          endchar
        </CharString>
        <CharString name="adieresis">
          -36 callgsubr
          491 -20 hstemhm
          52 279 21 266 47 205 -162 266 hintmask 00000000
          495 1538 -92 callgsubr
          hintmask 10111101
          -178 -1255 rmoveto
          -5 -35 -3 -49 -36 vvcurveto
          hintmask 10111010
          -100 callgsubr
          hintmask 01111010
          -254 122 -120 149 125 123 69 237 100 vhcurveto
          -78 628 rmoveto
          32 39 -7 -5 14 hvcurveto
          -307 -17 -102 -433 -150 hhcurveto
          -48 -30 69 111 375 108 197 154 hvcurveto
          endchar
        </CharString>
        <CharString name="ae">
          354 -23 188 -188 193 731 146 41 callgsubr
          39 269 302 251 314 239 hintmask 00000000
          hintmask 10011110
          619 583 rmoveto
          -275 -11 -291 -63 -14 -259 rrcurveto
          hintmask 01011110
          -156 -8 98 -117 196 hhcurveto
          120 2 136 29 122 117 rrcurveto
          hintmask 10011110
          71 -94 78 -55 142 1 160 1 164 61 43 callgsubr
          -116 57 rcurveline
          -171 -74 -129 -29 -68 hhcurveto
          -88 -100 68 233 hvcurveto
          241 35 312 65 223 vvcurveto
          179 -131 79 -181 -121 -111 -56 -95 -76 vhcurveto
          117 -35 -97 34 -130 hhcurveto
          -240 -174 -119 -151 -8 hvcurveto
          -4 -75 43 -63 81 -2 95 -2 46 73 3 57 rrcurveto
          hintmask 10101110
          1 20 -2 39 -19 23 35 36 49 16 54 2 103 4 35 -82 -5 -106 rrcurveto
          hintmask 01011110
          454 195 rmoveto
          41 53 -28 -66 2 hvcurveto
          3 -102 -89 -78 -221 -40 rrcurveto
          153 16 56 161 139 hhcurveto
          -469 -454 rmoveto
          -2 -73 6 -61 13 -84 rrcurveto
          -46 -45 -93 -24 -63 hhcurveto
          -58 -62 38 76 2 hvcurveto
          3 117 146 42 153 15 rrcurveto
          endchar
        </CharString>
        <CharString name="agrave">
          -35 callsubr
          737 -64 callsubr
          168 -1094 -100 callsubr
        </CharString>
        <CharString name="amacron">
          -36 callgsubr
          244 186 hstemhm
          52 279 334 72 callgsubr
          hintmask 10111100
          949 -11 callsubr
          306 -1005 rmoveto
          -5 -35 -3 -49 -36 vvcurveto
          hintmask 01111100
          -100 callgsubr
          hintmask 10111100
          -254 122 -120 149 125 123 69 237 100 vhcurveto
          -78 628 rmoveto
          32 39 -7 -5 14 hvcurveto
          -307 -17 -102 -433 -150 hhcurveto
          -48 -30 69 111 375 108 197 154 hvcurveto
          endchar
        </CharString>
        <CharString name="ampersand">
          260 -33 142 362 191 44 140 481 140 hstemhm
          46 313 -208 300 hintmask 00000000
          424 788 rmoveto
          hintmask 11110100
          -222 -53 -156 -158 -199 vvcurveto
          -281 238 -130 303 417 140 292 221 22 vhcurveto
          144 19 58 70 70 123 -79 68 rcurveline
          -91 -94 -82 -7 -86 hhcurveto
          -176 -74 -36 -174 -117 hvcurveto
          68 -73 rlineto
          74 97 92 18 53 hhcurveto
          1 hlineto
          -186 -28 -103 -176 -265 hhcurveto
          -161 -139 109 199 14 hvcurveto
          12 173 122 121 193 -5 71 -2 rcurveline
          8 144 rlineto
          -1 -35 -14 -1 -19 hhcurveto
          hintmask 11111000
          -198 -53 134 106 5 hvcurveto
          7 152 100 87 101 2 69 1 45 -18 32 -32 rrcurveto
          -18 -20 -9 -50 -23 vvcurveto
          -74 4 49 -48 77 hhcurveto
          82 52 67 76 145 -155 113 -250 3 hvcurveto
          -262 4 -224 -149 -261 vvcurveto
          -133 106 -105 167 -33 vhcurveto
          endchar
        </CharString>
        <CharString name="aogonek">
          -18 -532 186 323 182 752 136 hstemhm
          52 279 144 200 -10 72 callgsubr
          hintmask 11110100
          949 11 rmoveto
          99 64 50 135 17 87 -111 33 rcurveline
          -123 -35 -38 -38 callsubr
          140 65 431 29 205 hvcurveto
          28 -112 -106 16 -77 hhcurveto
          -393 -224 -323 -373 -254 122 -120 149 125 123 69 237 100 hvcurveto
          2 hlineto
          -5 -35 -3 -49 -36 vvcurveto
          -70 18 -46 28 -28 vhcurveto
          hintmask 11111000
          -132 -89 -97 -120 -7 -131 -84 callsubr
          2 100 106 93 115 59 rrcurveto
          hintmask 11110100
          17 5 15 7 15 9 rrcurveto
          -536 150 rmoveto
          -48 -30 69 111 375 108 197 154 32 39 -7 -5 14 hvcurveto
          -307 -17 -102 -433 -150 hhcurveto
          endchar
        </CharString>
        <CharString name="approxequal">
          33 253 220 -76 221 -27 220 -76 221 hstemhm
          124 925 hintmask 00000000
          hintmask 01011000
          124 642 rmoveto
          51 77 68 42 112 hhcurveto
          hintmask 00101000
          164 57 -144 205 hhcurveto
          108 62 44 callgsubr
          -26 132 -211 hhcurveto
          -108 -68 -37 -65 -90 hvcurveto
          -12 -550 rmoveto
          51 77 68 42 112 hhcurveto
          hintmask 10011000
          164 37 -144 205 hhcurveto
          108 82 44 callgsubr
          -46 132 -211 hhcurveto
          -108 -48 -37 -65 -90 hvcurveto
          endchar
        </CharString>
        <CharString name="aring">
          -36 callgsubr
          106 65 callsubr
          hstemhm
          52 279 89 168 77 205 -127 162 hintmask 0000000000000000
          hintmask 1011111010000000
          674 1628 -77 callgsubr
          hintmask 1011111100000000
          6 -1224 rmoveto
          -5 -35 -3 -49 -36 vvcurveto
          hintmask 0111111100000000
          -100 callgsubr
          hintmask 1011111010000000
          -254 122 -120 149 vhcurveto
          hintmask 1011111100000000
          125 123 69 237 100 hvcurveto
          hintmask 1011111010000000
          -78 628 rmoveto
          32 39 -7 -5 14 hvcurveto
          -307 -17 -102 -433 -150 hhcurveto
          -48 -30 69 111 375 108 197 154 hvcurveto
          endchar
        </CharString>
        <CharString name="asciicircum">
          552 1322 145 0 -20 hstemhm
          111 1440 hintmask 00000000
          hintmask 01100000
          1551 894 rmoveto
          -627 573 rlineto
          -182 hlineto
          -631 -563 rlineto
          262 hlineto
          hintmask 10100000
          450 418 rlineto
          2 hlineto
          451 -428 rlineto
          endchar
        </CharString>
        <CharString name="asciitilde">
          -38 568 246 hstem
          91 925 vstem
          91 469 rmoveto
          54 77 68 45 112 164 37 -154 205 hhcurveto
          108 82 45 62 59 hvcurveto
          13 236 -73 -64 -94 -41 -98 8 rlinecurve
          13 -145 -26 141 -211 hhcurveto
          -108 -68 -39 -70 -90 hvcurveto
          endchar
        </CharString>
        <CharString name="asterisk">
          -95 1467 -20 hstem
          467 205 vstem
          577 63 callgsubr
          -89 -18 -76 -71 -3 hvcurveto
          -3 -56 8 -83 34 -121 -99 75 -71 36 -54 19 -66 22 -77 15 -32 -83 -32 -84 65 -42 67 -22 rrcurveto
          -18 53 82 -13 128 hhcurveto
          -108 -73 -64 -61 -37 -47 -44 -57 -33 -68 67 -52 70 -52 61 55 45 58 37 45 38 73 46 121 31 -121 35 -76 31 -48 38 -56 54 -51 74 52 74 52 -30 71 -39 59 rrcurveto
          -31 45 -55 57 -100 74 127 -1 83 14 57 17 68 21 69 38 -23 84 -23 83 -78 -9 -70 -22 -54 -18 -75 -38 -106 -74 46 121 18 82 3 57 rrcurveto
          71 3 -10 76 -88 hhcurveto
          endchar
        </CharString>
        <CharString name="at">
          427 -203 100 249 98 -88 141 594 102 223 88 hstemhm
          64 157 192 198 270 166 310 145 hintmask 0000000000000000
          hintmask 1101111110000000
          1316 112 rmoveto
          -144 -139 -201 -71 -166 hhcurveto
          -337 -274 226 414 22 hvcurveto
          351 18 260 328 350 hhcurveto
          302 226 -204 -373 -20 hvcurveto
          -142 -7 -66 -253 -162 hhcurveto
          -67 -11 61 60 3 hvcurveto
          6 105 56 296 35 184 rrcurveto
          29 -90 -87 14 -60 hhcurveto
          -307 -173 -274 -266 -14 hvcurveto
          hintmask 1011111110000000
          -210 -11 94 -87 114 hhcurveto
          88 105 69 185 83 hvcurveto
          hintmask 1101111110000000
          -28 -210 105 -48 98 -6 170 -10 243 149 26 336 rrcurveto
          338 27 -213 345 -449 hhcurveto
          -493 -289 -431 -348 -19 hvcurveto
          -20 -391 235 -348 500 11 213 5 207 85 160 170 rrcurveto
          -502 834 rmoveto
          24 2 34 -3 17 -6 rrcurveto
          hintmask 1011111110000000
          -232 -22 -133 -355 -104 hhcurveto
          -42 -25 54 95 5 hvcurveto
          hintmask 1101111110000000
          10 190 94 243 142 12 rrcurveto
          endchar
        </CharString>
        <CharString name="atilde">
          -36 callgsubr
          200 40 callgsubr
          52 279 334 72 callgsubr
          hintmask 10110111
          916 7 callgsubr
          hintmask 10101011
          0 callgsubr
          hintmask 10110111
          13 callsubr
          -353 -1197 rmoveto
          -5 -35 -3 -49 -36 vvcurveto
          hintmask 01110111
          -100 callgsubr
          hintmask 10110111
          -254 122 -120 149 125 123 69 237 100 vhcurveto
          -78 628 rmoveto
          32 39 -7 -5 14 hvcurveto
          -307 -17 -102 -433 -150 hhcurveto
          -48 -30 69 111 375 108 197 154 hvcurveto
          endchar
        </CharString>
        <CharString name="b">
          -93 -23 136 745 189 289 47 callsubr
          hstem
          96 256 346 280 vstem
          350 1546 rmoveto
          0 callsubr
          -9 -61 -5 -81 -3 -47 -25 -430 -17 -250 -17 -435 rrcurveto
          -40 107 156 -15 65 hhcurveto
          402 152 310 368 205 -85 187 -206 -87 -124 -63 -180 -94 hvcurveto
          -2 hlineto
          19 111 13 168 5 45 9 83 18 217 17 118 rrcurveto
          144 -688 rmoveto
          47 46 -44 -148 -192 -23 -361 -222 -27 -52 7 11 -22 hvcurveto
          389 9 111 338 133 hhcurveto
          endchar
        </CharString>
        <CharString name="backslash">
          480 1547 -20 hstem
          90 1426 vstem
          1516 -451 rmoveto
          -1253 1998 -173 -120 1280 -1982 rlineto
          endchar
        </CharString>
        <CharString name="bar">
          -663 1556 -20 hstem
          70 333 vstem
          285 -555 rmoveto
          118 2111 rlineto
          -228 hlineto
          -105 -2111 rlineto
          endchar
        </CharString>
        <CharString name="braceleft">
          -436 -555 135 873 136 832 135 0 -20 hstemhm
          170 233 -175 244 hintmask 00000000
          hintmask 11010100
          730 1556 rmoveto
          -103 hlineto
          -290 -111 -182 -294 2 hvcurveto
          -68 5 -259 -2 -22 vhcurveto
          -93 -5 -31 -49 -101 hhcurveto
          -89 hlineto
          -11 -136 rlineto
          hintmask 11011000
          95 hlineto
          93 27 -61 -84 -2 hvcurveto
          -2 -84 -35 -276 -58 vvcurveto
          -254 89 -191 269 vhcurveto
          100 hlineto
          9 135 rlineto
          -176 -4 -58 149 149 vvcurveto
          98 41 226 1 60 vhcurveto
          3 136 -75 76 -119 52 rrcurveto
          2 vlineto
          hintmask 11100100
          125 46 87 67 6 142 3 69 -15 214 3 38 12 177 56 150 192 -6 rrcurveto
          endchar
        </CharString>
        <CharString name="braceright">
          -437 412 136 873 135 hstemhm
          218 244 -175 233 hintmask 00000000
          hintmask 11100000
          -40 -555 rmoveto
          103 hlineto
          290 111 182 294 -2 hvcurveto
          68 -5 259 2 22 vhcurveto
          93 5 31 49 101 hhcurveto
          89 hlineto
          11 136 rlineto
          hintmask 11010000
          -95 hlineto
          -93 -27 61 84 2 hvcurveto
          2 84 35 276 58 vvcurveto
          254 -89 191 -269 vhcurveto
          -100 hlineto
          -9 -135 rlineto
          176 4 58 -149 -149 vvcurveto
          -98 -41 -226 -1 -60 vhcurveto
          -3 -136 75 -76 119 -52 rrcurveto
          -2 vlineto
          hintmask 11100000
          -125 -46 -87 -67 -6 -142 -3 -69 15 -214 -3 -38 -12 -177 -56 -150 -192 6 rrcurveto
          endchar
        </CharString>
        <CharString name="bracketleft">
          64 callgsubr
          66 766 vstem
          824 1401 rmoveto
          8 145 rlineto
          -655 hlineto
          -111 -2068 rlineto
          661 hlineto
          8 145 -408 6 102 1766 rlineto
          endchar
        </CharString>
        <CharString name="bracketright">
          64 callgsubr
          -52 766 vstem
          -44 -377 rmoveto
          -8 -145 rlineto
          655 hlineto
          111 2068 rlineto
          -661 hlineto
          -8 -145 408 -6 -102 -1766 rlineto
          endchar
        </CharString>
        <CharString name="breve">
          -334 1231 182 hstem
          92 625 vstem
          605 1564 -57 callsubr
          endchar
        </CharString>
        <CharString name="brokenbar">
          -633 1557 -20 hstem
          85 331 vstem
          366 767 rmoveto
          50 790 rlineto
          -226 hlineto
          -36 -790 rlineto
          143 -1322 rmoveto
          49 786 rlineto
          -226 hlineto
          -35 -786 rlineto
          endchar
        </CharString>
        <CharString name="bullet">
          -369 426 635 hstem
          72 646 vstem
          411 1061 rmoveto
          -181 -148 -137 -181 -10 hvcurveto
          -180 -9 134 -137 181 hhcurveto
          179 152 137 180 9 hvcurveto
          181 10 -138 137 -179 hhcurveto
          endchar
        </CharString>
        <CharString name="c">
          -4 callgsubr
          787 379 -87 callsubr
        </CharString>
        <CharString name="cacute">
          -4 callgsubr
          376 1241 -96 callgsubr
          229 -1148 -87 callsubr
        </CharString>
        <CharString name="caron">
          -270 1167 447 hstem
          92 689 vstem
          781 -60 callgsubr
          endchar
        </CharString>
        <CharString name="caroncomb.alt">
          -1143 1113 495 hstem
          332 185 vstem
          307 1608 -44 callgsubr
          endchar
        </CharString>
        <CharString name="ccaron">
          -4 callgsubr
          926 -60 callgsubr
          214 -788 -87 callsubr
        </CharString>
        <CharString name="ccedilla">
          -185 -244 135 1021 135 hstemhm
          56 280 157 234 -93 257 hintmask 00000000
          hintmask 11110000
          277 -240 rmoveto
          75 -32 41 33 104 15 -4 -70 rlinecurve
          -56 callgsubr
          51 120 157 11 146 81 110 251 21 callsubr
          hintmask 11101000
          48 38 -21 -25 11 hvcurveto
          -15 -27 -5 -34 -24 vvcurveto
          -48 33 -76 94 3 vhcurveto
          80 2 50 56 82 vvcurveto
          150 -143 97 -188 -341 -163 -359 -264 -253 113 -140 176 -41 vhcurveto
          endchar
        </CharString>
        <CharString name="cedilla">
          -467 -244 264 hstemhm
          92 490 -234 234 hintmask 00000000
          hintmask 11000000
          296 -141 rmoveto
          69 161 rlineto
          -156 hlineto
          -77 -260 75 -32 rlineto
          hintmask 10100000
          41 33 104 15 -4 -70 -4 -84 -187 -34 -65 -12 10 -106 rcurveline
          159 22 311 65 10 191 5 98 -62 43 -85 2 rrcurveto
          hintmask 11000000
          21 callgsubr
          endchar
        </CharString>
        <CharString name="cent">
          -144 -274 1554 hstem
          70 280 vstem
          695 1280 rmoveto
          -210 hlineto
          -24 -248 rlineto
          -264 -69 -127 -306 -233 vvcurveto
          -248 108 -140 170 -43 vhcurveto
          -27 -267 rlineto
          197 hlineto
          28 257 142 22 130 88 101 229 21 callsubr
          48 38 -21 -25 11 hvcurveto
          -15 -27 -5 -34 -24 vvcurveto
          -48 33 -76 94 3 vhcurveto
          80 2 50 56 82 vvcurveto
          123 -97 88 -139 27 vhcurveto
          endchar
        </CharString>
        <CharString name="circumflex">
          -265 1162 441 hstem
          90 698 vstem
          788 -46 callsubr
          endchar
        </CharString>
        <CharString name="colon">
          -607 -33 1145 hstem
          112 297 vstem
          270 1112 -59 callgsubr
          -825 vmoveto
          29 callsubr
        </CharString>
        <CharString name="comma">
          -634 -382 663 hstem
          234 154 vstem
          176 -382 -97 callsubr
          endchar
        </CharString>
        <CharString name="commaaccentcomb">
          -1143 -602 529 hstem
          184 245 vstem
          176 -122 rmoveto
          -97 callgsubr
        </CharString>
        <CharString name="copyright">
          679 -146 118 220 169 710 137 220 118 hstem
          74 145 224 237 936 143 vstem
          -35 callgsubr
          314 -917 rmoveto
          -86 -101 -115 -51 -98 2 -191 4 -112 165 9 185 rrcurveto
          204 11 131 152 145 hhcurveto
          109 108 -65 -164 12 hvcurveto
          126 hlineto
          19 359 rlineto
          -146 hlineto
          -8 -2 -39 1 -17 vhcurveto
          -69 50 -81 18 -82 3 -330 12 -176 -286 -13 -241 rrcurveto
          -281 -15 196 -220 284 hhcurveto
          116 184 49 187 147 hvcurveto
          endchar
        </CharString>
        <CharString name="currency">
          -10 126 150 507 144 hstemhm
          91 935 -854 249 279 244 hintmask 00000000
          hintmask 11100000
          279 999 rmoveto
          hintmask 11011000
          -151 -116 116 -141 -43 -67 -25 -80 -4 -75 rlinecurve
          -4 -75 15 -77 33 -62 -125 -134 rcurveline
          140 -116 103 122 rlineto
          -33 54 68 -19 80 hhcurveto
          81 70 19 34 59 hvcurveto
          92 -123 151 116 -111 134 39 62 23 77 4 75 rlinecurve
          4 75 -17 74 -37 67 132 141 rcurveline
          -139 121 -109 -128 rlineto
          35 -54 -67 22 -78 hhcurveto
          -79 -68 -21 -35 -57 hvcurveto
          197 -88 rmoveto
          106 26 -154 -79 -4 hvcurveto
          -102 -6 -38 -172 -111 hhcurveto
          -111 -19 172 102 6 hvcurveto
          79 4 41 154 106 hhcurveto
          endchar
        </CharString>
        <CharString name="d">
          12 25 callsubr
          hintmask 00000000
          hintmask 10101111
          1044 1546 rmoveto
          -14 callsubr
          -9 -61 -8 -84 -5 -47 rrcurveto
          hintmask 10011111
          -11 -101 rlineto
          hintmask 10101111
          2 -20 -58 2 -20 hhcurveto
          -390 -177 -290 -389 -221 97 -170 206 108 140 68 241 98 hvcurveto
          2 hlineto
          -6 -46 -2 -23 -54 vvcurveto
          hintmask 01101111
          -145 76 -6 callsubr
          76 -101 callgsubr
          -33 -38 callsubr
          124 35 260 32 280 hvcurveto
          -370 20 rmoveto
          26 64 -7 -9 18 hvcurveto
          hintmask 10101111
          55 callgsubr
          -59 -41 68 140 hvcurveto
          hintmask 01101111
          70 callgsubr
          vhcurveto
          endchar
        </CharString>
        <CharString name="dagger">
          -104 815 226 504 -20 hstemhm
          65 951 -584 263 hintmask 00000000
          hintmask 11100000
          525 -554 rmoveto
          41 355 43 428 63 344 -22 60 -15 129 -17 96 69 -14 68 -18 110 -11 rrcurveto
          76 callsubr
          -74 hhcurveto
          -86 -92 -28 -17 -87 hvcurveto
          25 108 38 146 16 107 rrcurveto
          hintmask 11010000
          82 11 -22 106 -106 hhcurveto
          -107 -40 -106 -82 3 hvcurveto
          4 -110 23 -142 15 -108 rrcurveto
          16 -86 -88 28 -86 59 callsubr
          87 3 41 149 hvcurveto
          -28 -97 -27 -127 -28 -62 26 -342 0 -435 2 -350 rrcurveto
          endchar
        </CharString>
        <CharString name="daggerdbl">
          -66 -40 226 622 226 516 -20 hstemhm
          36 989 -672 262 -168 261 hintmask 00000000
          hintmask 11110000
          384 498 rmoveto
          60 -357 rlineto
          14 -67 -92 31 -97 hhcurveto
          -74 -73 -20 -94 -5 hvcurveto
          -91 -5 68 -21 75 hhcurveto
          70 97 28 16 88 hvcurveto
          -26 -109 -32 -150 -15 -111 rrcurveto
          hintmask 11101000
          -82 -12 22 -107 107 hhcurveto
          106 40 107 82 -4 hvcurveto
          -4 110 -15 151 -14 109 rrcurveto
          -19 99 79 -25 71 hhcurveto
          75 69 21 91 5 hvcurveto
          94 5 -70 20 -74 hhcurveto
          -83 -23 -8 -36 -155 hvcurveto
          92 356 -45 354 66 -13 69 -20 112 -11 rlinecurve
          76 callsubr
          -73 hhcurveto
          -87 -90 -27 -18 -89 hvcurveto
          26 110 40 153 17 110 rrcurveto
          hintmask 11100100
          82 11 -22 106 -107 hhcurveto
          -106 -38 -106 -82 3 hvcurveto
          4 -110 26 -153 13 -109 rrcurveto
          17 -87 -86 27 -87 59 callsubr
          91 2 42 145 hvcurveto
          endchar
        </CharString>
        <CharString name="dcaron">
          195 25 callsubr
          319 185 hintmask 0000000000000000
          hintmask 1010111110000000
          1196 1608 -44 callgsubr
          -334 -28 rmoveto
          -14 callsubr
          -9 -61 -8 -84 -5 -47 rrcurveto
          hintmask 1001111110000000
          -11 -101 -31 callsubr
          -370 20 rmoveto
          26 64 -7 -9 18 hvcurveto
          hintmask 1010111110000000
          55 callgsubr
          -59 -41 68 140 hvcurveto
          hintmask 0110111110000000
          70 callgsubr
          vhcurveto
          endchar
        </CharString>
        <CharString name="dcroat">
          12 -23 186 -186 190 744 136 -4 -20 96 147 70 47 callsubr
          hstemhm
          57 279 364 202 hintmask 0000000000000000
          hintmask 1010111110000000
          996 1125 rmoveto
          150 hlineto
          9 141 rlineto
          -143 hlineto
          32 280 rlineto
          -14 callsubr
          -3 -21 -3 -25 -3 -24 rrcurveto
          -343 hlineto
          -9 -147 rlineto
          337 hlineto
          hintmask 1001111110000000
          -9 -76 -31 callsubr
          hintmask 1010111110000000
          -533 -728 rmoveto
          -59 -41 68 140 70 callgsubr
          26 64 -7 -9 18 hvcurveto
          55 callgsubr
          endchar
        </CharString>
        <CharString name="degree">
          -357 808 144 375 140 hstem
          95 171 326 171 vstem
          448 63 callgsubr
          -182 -162 -142 -186 -9 hvcurveto
          -187 -10 121 -144 202 hhcurveto
          182 163 144 187 10 hvcurveto
          186 9 -121 142 -203 hhcurveto
          -11 -140 rmoveto
          97 58 -71 -110 -106 -71 -88 -104 -95 -56 76 105 103 77 91 94 hvcurveto
          endchar
        </CharString>
        <CharString name="dieresis">
          -293 256 1538 -92 callgsubr
          endchar
        </CharString>
        <CharString name="divide">
          -577 90 1028 hstem
          122 317 vstem
          300 1118 -59 callgsubr
          -20 -708 rmoveto
          29 callsubr
        </CharString>
        <CharString name="dollar">
          24 -19 87 1301 84 13 -20 hstemhm
          85 144 -122 270 99 188 -121 190 75 276 -198 144 hintmask 0000000000000000
          744 1714 rmoveto
          -192 hlineto
          -13 -248 -329 -17 -93 -211 -9 -162 rlinecurve
          -14 -269 200 -134 231 -97 152 -64 141 -54 -7 -138 rrcurveto
          -118 -7 -85 -85 -146 hhcurveto
          -191 -125 114 229 -25 hvcurveto
          hintmask 1010101100000000
          -134 hlineto
          -20 callsubr
          79 -49 90 -32 85 -13 -13 -289 rcurveline
          187 hlineto
          16 289 253 34 149 158 11 214 rlinecurve
          14 268 -229 112 -198 92 rrcurveto
          hintmask 1011010100000000
          -230 106 -73 57 7 128 5 102 81 81 116 1 191 2 91 -126 25 -229 rrcurveto
          49 callgsubr
          3 -84 rlineto
          -2 hlineto
          hintmask 1100110010000000
          -48 35 -55 26 -58 16 rrcurveto
          endchar
        </CharString>
        <CharString name="dotaccent">
          -677 1543 -20 hstem
          95 274 vstem
          240 1543 -47 callgsubr
          endchar
        </CharString>
        <CharString name="dotlessi">
          -42 callsubr
          115 694 -98 callgsubr
        </CharString>
        <CharString name="e">
          -32 callgsubr
          786 363 -29 callsubr
          -106 callsubr
        </CharString>
        <CharString name="eacute">
          -32 callgsubr
          332 1241 -96 callgsubr
          272 -1164 -29 callsubr
          -106 callsubr
        </CharString>
        <CharString name="ecaron">
          -32 callgsubr
          882 -60 callgsubr
          257 -804 -29 callsubr
          -106 callsubr
        </CharString>
        <CharString name="ecircumflex">
          -32 callgsubr
          887 -46 callsubr
          -12 -799 -29 callsubr
          -106 callsubr
        </CharString>
        <CharString name="edieresis">
          -23 188 747 135 491 -20 hstemhm
          227 61 callsubr
          hintmask 00000000
          370 1538 -92 callgsubr
          60 -1175 -29 callsubr
          hintmask 11111000
          -106 callsubr
        </CharString>
        <CharString name="edotaccent">
          -23 188 747 135 496 -20 hstem
          56 280 305 239 vstem
          546 1543 -47 callgsubr
          240 -1180 -29 callsubr
          -106 callsubr
        </CharString>
        <CharString name="egrave">
          -32 callgsubr
          612 -64 callsubr
          406 -1014 -29 callsubr
          -106 callsubr
        </CharString>
        <CharString name="eight">
          8 -33 144 1212 144 hstemhm
          89 251 -251 973 -244 223 -2 callgsubr
          380 705 rmoveto
          hintmask 11101000
          -139 -77 -143 -148 -8 -157 rrcurveto
          -269 -14 265 -87 194 hhcurveto
          266 247 118 267 14 hvcurveto
          9 156 -90 144 -201 128 rrcurveto
          2 vlineto
          118 68 136 127 8 142 rrcurveto
          224 11 -204 124 -212 hhcurveto
          -210 -261 -124 -267 -14 hvcurveto
          hintmask 11010000
          -6 -111 59 -144 175 -114 rrcurveto
          265 616 rmoveto
          hintmask 11001000
          105 1 82 -76 -13 -139 -7 -74 -71 -107 -90 -64 -119 48 -97 115 5 106 rrcurveto
          hintmask 11010000
          6 103 80 86 119 1 rrcurveto
          hintmask 11100000
          -128 -691 rmoveto
          198 -101 56 -120 -5 -102 -6 -112 -84 -88 -131 2 -130 2 -88 102 14 129 8 77 54 125 114 86 rrcurveto
          endchar
        </CharString>
        <CharString name="ellipsis">
          441 -33 320 hstem
          57 1403 vstem
          215 287 -59 callgsubr
          553 hmoveto
          -83 callsubr
          553 hmoveto
          29 callsubr
        </CharString>
        <CharString name="emacron">
          -23 188 747 135 244 186 hstem
          56 280 305 239 vstem
          824 -11 callsubr
          544 -925 -29 callsubr
          -106 callsubr
        </CharString>
        <CharString name="emdash">
          216 535 215 hstem
          102 1157 vstem
          1248 535 rmoveto
          11 215 rlineto
          -1146 hlineto
          -11 -215 rlineto
          endchar
        </CharString>
        <CharString name="endash">
          10 535 215 hstem
          101 952 vstem
          1042 535 rmoveto
          11 215 rlineto
          -941 hlineto
          -11 -215 rlineto
          endchar
        </CharString>
        <CharString name="eogonek">
          -532 186 332 -20 946 135 hstemhm
          56 280 -168 200 273 239 hintmask 00000000
          hintmask 11101100
          786 363 -29 callsubr
          hintmask 11110100
          -88 -96 57 233 hvcurveto
          241 35 303 76 223 vvcurveto
          179 -126 79 -181 -361 -156 -359 -264 -259 114 -143 189 -36 vhcurveto
          hintmask 11101100
          -109 -85 -76 -106 -6 -116 -84 callsubr
          2 111 129 102 129 56 101 39 96 86 77 177 rrcurveto
          -352 605 rmoveto
          41 48 -28 -66 2 hvcurveto
          3 -102 -80 -89 -221 -40 rrcurveto
          153 16 52 172 139 hhcurveto
          endchar
        </CharString>
        <CharString name="equal">
          26 349 192 194 191 hstem
          109 952 vstem
          1061 926 rmoveto
          -921 hlineto
          -11 -191 rlineto
          923 hlineto
          -11 -194 rmoveto
          -921 hlineto
          -11 -192 rlineto
          923 hlineto
          endchar
        </CharString>
        <CharString name="estimated">
          38 -26 70 463 71 396 67 hstem
          84 221 570 221 vstem
          967 275 rmoveto
          -153 -90 -126 -78 -162 hhcurveto
          -108 -96 39 75 -80 hvcurveto
          349 791 vlineto
          293 -10 -172 241 -325 hhcurveto
          -303 -202 -231 -303 -300 196 -233 309 190 145 91 169 111 hvcurveto
          -160 344 rmoveto
          -570 279 hlineto
          79 77 94 38 111 hhcurveto
          110 96 -38 -79 82 hvcurveto
          endchar
        </CharString>
        <CharString name="eth">
          -74 -23 135 779 134 531 -20 hstem
          59 275 370 268 vstem
          707 1512 rmoveto
          -113 106 -112 -137 -62 31 -90 33 -119 11 rlinecurve
          -34 -145 72 -14 60 -24 48 -29 rlinecurve
          -106 -117 118 -109 126 145 93 -52 117 -166 14 -113 rlinecurve
          -2 hlineto
          44 -41 -53 49 -104 hhcurveto
          -329 -131 -337 -235 -349 194 -127 217 346 156 313 348 347 -150 265 -227 159 hvcurveto
          -45 -518 rmoveto
          128 26 -167 -192 -169 -48 -251 -158 -128 -36 150 203 200 58 226 158 hvcurveto
          endchar
        </CharString>
        <CharString name="exclam">
          -621 1467 -20 hstem
          89 354 vstem
          184 437 rmoveto
          137 hlineto
          119 844 rlineto
          87 13 -37 99 -110 hhcurveto
          -104 -54 -99 -87 3 hvcurveto
          93 -994 rmoveto
          -79 -72 -72 -89 -4 hvcurveto
          -88 -5 61 -71 80 hhcurveto
          78 74 71 88 5 hvcurveto
          89 4 -57 72 -85 hhcurveto
          endchar
        </CharString>
        <CharString name="exclamdown">
          -662 1057 -20 hstem
          45 354 vstem
          244 737 rmoveto
          79 72 72 89 4 hvcurveto
          88 5 -61 71 -80 hhcurveto
          -78 -74 -71 -88 -5 hvcurveto
          -89 -4 57 -72 85 hhcurveto
          60 -150 rmoveto
          -137 hlineto
          -119 -844 rlineto
          -87 -13 37 -99 110 hhcurveto
          104 54 99 87 -3 hvcurveto
          endchar
        </CharString>
        <CharString name="f">
          -67 callsubr
        </CharString>
        <CharString name="fi">
          256 -555 145 387 190 690 190 -172 149 -143 143 23 -20 394 135 hstemhm
          -236 1618 -507 266 -200 264 -254 254 hintmask 0000000000000000
          hintmask 1000101100000000
          67 1024 rmoveto
          hintmask 1001001100000000
          -57 callgsubr
          1 7 0 6 6 vvcurveto
          64 -49 43 -57 -89 -34 -82 -46 -90 71 -58 124 279 128 216 316 37 vhcurveto
          hintmask 1000101100000000
          29 callgsubr
          80 111 181 hhcurveto
          hintmask 1000101000100000
          98 42 -27 -47 43 hvcurveto
          -7 -19 -3 -28 -17 vvcurveto
          -72 56 -50 70 98 30 87 49 195 -272 64 -150 -322 -184 -175 -357 -45 vhcurveto
          579 -330 rmoveto
          hintmask 1010001001000000
          -89 callgsubr
          16 -9 -45 hvcurveto
          hintmask 1100101010000000
          -129 -66 -305 -161 vvcurveto
          -145 45 -18 callgsubr
          103 -101 callgsubr
          -33 -53 callgsubr
          -16 9 45 hvcurveto
          hintmask 1000011001000000
          91 64 363 134 vvcurveto
          145 -48 93 -141 -185 -108 -71 callsubr
          endchar
        </CharString>
        <CharString name="five">
          -59 -33 145 646 149 321 205 hstem
          156 149 401 314 vstem
          959 1234 rmoveto
          33 333 rlineto
          -130 hlineto
          -114 -6 -63 -19 -93 hhcurveto
          -530 hlineto
          -28 -684 84 -67 rlineto
          56 98 94 19 58 hhcurveto
          230 8 -232 -123 -7 hvcurveto
          -140 -7 -76 -151 -163 hhcurveto
          -57 -82 30 46 -17 hvcurveto
          18 27 8 35 2 22 2 55 -27 80 -103 -3 -84 -3 -57 -73 -4 -81 rrcurveto
          -131 -7 148 -149 268 hhcurveto
          266 269 162 318 17 hvcurveto
          243 12 -146 217 -339 hhcurveto
          -82 -106 -22 -27 -64 hvcurveto
          19 365 rlineto
          endchar
        </CharString>
        <CharString name="fl">
          205 -555 145 387 190 708 149 -143 143 397 135 -10 -20 hstemhm
          -236 1564 -500 260 hintmask 00000000
          hintmask 10011010
          67 1024 rmoveto
          hintmask 10101010
          -57 callgsubr
          1 7 0 6 6 vvcurveto
          64 -49 43 -57 -89 -34 -82 -46 -90 71 -58 124 279 128 216 316 37 vhcurveto
          hintmask 10011010
          29 callgsubr
          68 111 159 hhcurveto
          60 76 -20 -46 61 hvcurveto
          hintmask 11010101
          -8 -61 -13 -97 -6 -53 rrcurveto
          -39 -347 -47 -68 callsubr
          -111 hlineto
          hintmask 10011001
          -84 -80 -126 94 -169 hhcurveto
          -312 -152 -180 -352 -44 hvcurveto
          endchar
        </CharString>
        <CharString name="florin">
          -67 callsubr
        </CharString>
        <CharString name="foundry">
          1370 -107 110 579 54 hstemhm
          275 231 159 83 148 87 331 28 146 156 -32 221 -59 81 122 68 hintmask 0000000000000000
          881 569 rmoveto
          -38 40 -80 34 -50 -7 rrcurveto
          11 -74 24 -130 -132 vvcurveto
          -56 -4 -58 -12 -53 vhcurveto
          -3 -10 -6 -23 -21 -5 rrcurveto
          -29 90 -8 99 103 vvcurveto
          47 1 47 3 48 vhcurveto
          -37 35 -69 12 -30 6 rrcurveto
          -17 -33 -10 -48 -72 vvcurveto
          -76 6 -78 20 -66 vhcurveto
          -21 -47 -47 -83 -74 -24 rrcurveto
          -83 59 -32 155 159 vvcurveto
          187 44 190 51 48 vhcurveto
          20 -25 24 -89 -73 vvcurveto
          -13 -1 -14 -1 -13 vhcurveto
          -3 -8 0 -14 17 19 rrcurveto
          53 45 37 57 70 vvcurveto
          179 -130 31 -86 18 vhcurveto
          -157 -137 -57 -236 2 -234 rrcurveto
          -204 5 85 -209 217 hhcurveto
          97 47 68 58 20 hvcurveto
          -62 31 46 -42 69 hhcurveto
          18 18 15 12 7 hvcurveto
          -23 -190 -2 -127 -120 -77 rrcurveto
          -4 19 -3 23 24 vvcurveto
          40 6 41 4 35 vhcurveto
          38 -38 -57 15 -47 hhcurveto
          -11 -39 -10 -43 -46 vvcurveto
          -103 26 -57 100 231 96 330 367 vhcurveto
          hintmask 1111111011000000
          89 -5 90 -10 88 vhcurveto
          851 377 rmoveto
          0 1 0 -1 1 vhcurveto
          -24 hlineto
          5 28 rlineto
          0 4 1 -5 vhcurveto
          -25 -9 rlineto
          8 -11 -13 1 -14 hhcurveto
          -36 -36 -24 -42 -12 hvcurveto
          -21 -21 -136 -22 -138 -26 rrcurveto
          -27 -169 15 4 -2 hvcurveto
          -8 -3 -8 -7 7 hvcurveto
          37 -34 94 4 27 -24 57 -68 69 -68 77 -16 6 -19 8 -21 10 -17 rrcurveto
          1 -9 -9 1 -8 hhcurveto
          -8 -8 -1 -1 -9 hvcurveto
          -36 -58 -22 -124 -2 -105 rrcurveto
          -1 -10 0 -9 -10 vvcurveto
          -128 54 -113 139 vhcurveto
          63 7 42 44 24 39 rrcurveto
          -52 14 40 -38 76 hhcurveto
          36 5 49 30 10 40 rrcurveto
          -40 17 43 -49 55 hhcurveto
          47 34 44 43 11 hvcurveto
          -55 34 52 -32 70 hhcurveto
          142 35 158 112 12 0 9 -1 10 hvcurveto
          -5 -5 2 -5 -10 hvcurveto
          -30 -122 -45 -76 -58 -44 rrcurveto
          -41 60 -20 80 99 vvcurveto
          107 50 57 198 164 vvcurveto
          174 -45 73 -169 28 vhcurveto
          -77 -139 -41 -212 -204 vvcurveto
          -94 8 -93 19 -83 vhcurveto
          3 -21 -12 -22 -31 -65 -28 7 rlinecurve
          -20 68 -7 89 90 vvcurveto
          100 9 100 11 79 vhcurveto
          -22 22 -72 30 -31 -9 -13 -8 -15 -79 -5 -14 rrcurveto
          11 -30 -38 8 -33 hhcurveto
          -66 -70 -23 -97 -5 -103 rrcurveto
          hintmask 0100000100000000
          -77 vlineto
          -18 -45 -32 -67 -56 -24 -27 18 -9 40 -10 40 rrcurveto
          78 24 42 109 98 vvcurveto
          85 -31 53 -52 26 vhcurveto
          hintmask 0100111011000000
          -2 1 0 0 1 vvcurveto
          -11 20 -13 26 -13 26 134 21 45 176 43 87 rrcurveto
          499 -547 rmoveto
          7 149 29 171 28 116 rrcurveto
          6 -28 2 -36 -40 vvcurveto
          -116 -24 -146 -48 -70 vhcurveto
          -740 261 rmoveto
          10 -24 13 -23 13 -17 -13 4 -13 1 -15 3 -17 56 rcurveline
          -546 -41 rmoveto
          62 -150 7 -256 11 -170 rrcurveto
          -2 7 6 -1 7 hhcurveto
          52 32 42 53 16 hvcurveto
          14 41 0 79 48 vvcurveto
          13 53 40 39 14 40 rrcurveto
          -63 9 30 -32 52 hhcurveto
          15 14 3 5 18 hvcurveto
          -5 27 -3 32 32 vvcurveto
          49 6 51 7 41 vhcurveto
          -19 37 -56 16 -60 6 rrcurveto
          -11 -22 -11 -44 -25 vvcurveto
          -13 -39 -22 -43 -32 -62 -6 76 -19 55 -22 38 -15 18 -21 12 -25 5 -23 5 -30 4 -39 2 rrcurveto
          624 -111 rmoveto
          10 -20 15 -42 -42 vvcurveto
          -71 -20 -83 -44 -6 vhcurveto
          91 14 94 25 79 vhcurveto
          263 -405 rmoveto
          -11 34 -5 41 42 vvcurveto
          111 30 124 31 38 vhcurveto
          -2 -16 0 -25 -30 vvcurveto
          -63 5 -84 17 -72 vhcurveto
          -2 -40 -40 -41 -23 -19 rrcurveto
          endchar
        </CharString>
        <CharString name="four">
          -52 0 152 218 189 908 -20 hstem
          -1 1031 vstem
          830 555 rmoveto
          48 912 rlineto
          -124 hlineto
          -744 -904 -11 -193 rlineto
          534 hlineto
          -3 -57 -74 callgsubr
          579 -58 callgsubr
          rrcurveto
          34 201 vlineto
          10 185 rlineto
          -463 456 rmoveto
          2 hlineto
          -26 -452 rlineto
          -344 hlineto
          endchar
        </CharString>
        <CharString name="fraction">
          -208 1467 -20 hstem
          -79 1107 vstem
          1028 1361 14 callsubr
          endchar
        </CharString>
        <CharString name="g">
          34 callsubr
          hstem
          55 279 vstem
          689 283 -88 callgsubr
        </CharString>
        <CharString name="gbreve">
          34 callsubr
          184 182 hstem
          55 279 vstem
          816 1564 -57 callsubr
          -239 -1232 -88 callgsubr
        </CharString>
        <CharString name="gcommaaccent">
          34 callsubr
          hstem
          55 279 127 245 vstem
          714 1215 rmoveto
          -17 143 2 72 119 182 -106 83 rcurveline
          -127 -110 -116 -150 -8 -121 -4 -48 11 -52 25 -48 rrcurveto
          196 -883 -88 callgsubr
        </CharString>
        <CharString name="germandbls">
          232 -555 145 387 135 763 149 385 147 hstemhm
          563 257 -197 245 137 228 -156 251 hintmask 00000000
          hintmask 11110101
          67 1024 rmoveto
          -57 callgsubr
          11 71 -50 53 -61 2 rrcurveto
          -93 3 -35 -84 -47 vvcurveto
          -90 71 -58 124 279 128 216 316 37 vhcurveto
          79 955 rlineto
          211 17 51 266 258 hhcurveto
          hintmask 11110110
          86 101 -29 -127 10 hvcurveto
          18 -234 -400 -48 -260 vvcurveto
          -100 70 -79 188 -107 vhcurveto
          hintmask 11111001
          107 -61 89 -48 -76 vvcurveto
          -65 -32 -63 -120 -41 -63 29 30 -14 vhcurveto
          93 40 -58 94 -95 hhcurveto
          -73 -58 -59 -84 -146 160 -92 196 236 173 132 184 170 -160 88 -135 78 hvcurveto
          hintmask 11110110
          -167 96 2 31 48 137 365 71 254 vvcurveto
          246 -274 44 -178 -239 -263 -113 -419 -47 vhcurveto
          endchar
        </CharString>
        <CharString name="grave">
          -576 1158 444 hstem
          93 382 vstem
          376 -64 callsubr
          endchar
        </CharString>
        <CharString name="greater">
          -51 146 996 hstem
          87 954 vstem
          99 357 rmoveto
          -12 -211 944 409 10 186 -901 401 -12 -213 642 -285 rlineto
          -2 vlineto
          endchar
        </CharString>
        <CharString name="greaterequal">
          -11 0 169 865 -20 hstem
          89 966 vstem
          1055 841 rmoveto
          -901 401 -11 -208 642 -290 rlineto
          -2 vlineto
          -672 -290 -11 -206 943 409 rlineto
          -33 -655 rmoveto
          9 174 -923 -10 -9 -164 rlineto
          endchar
        </CharString>
        <CharString name="guillemotleft">
          -142 1053 -20 hstem
          34 905 vstem
          34 525 rmoveto
          512 -551 90 84 -354 486 rlineto
          2 vlineto
          413 507 -82 89 -577 -569 rlineto
          448 -43 rmoveto
          326 -397 89 70 -188 356 rlineto
          3 vlineto
          228 355 -82 69 -371 -409 rlineto
          endchar
        </CharString>
        <CharString name="guillemotright">
          -140 1050 -20 hstem
          54 905 vstem
          959 583 rmoveto
          -512 551 -90 -84 354 -486 rlineto
          -2 vlineto
          -413 -507 82 -89 577 569 rlineto
          -448 43 rmoveto
          -326 397 -89 -70 188 -356 rlineto
          -3 vlineto
          -228 -355 82 -69 371 409 rlineto
          endchar
        </CharString>
        <CharString name="guilsinglleft">
          -381 1028 -20 hstem
          34 684 vstem
          34 529 rmoveto
          523 -562 105 99 -348 480 rlineto
          2 vlineto
          404 480 -96 105 -586 -560 rlineto
          endchar
        </CharString>
        <CharString name="guilsinglright">
          -383 1034 -20 hstem
          34 684 vstem
          718 571 rmoveto
          -523 562 -105 -99 348 -480 rlineto
          -2 vlineto
          -404 -480 96 -105 586 560 rlineto
          endchar
        </CharString>
        <CharString name="h">
          33 -23 190 692 188 289 47 callsubr
          hstemhm
          104 263 293 263 -212 263 hintmask 00000000
          hintmask 01111010
          371 1546 rmoveto
          -26 -30 -91 -40 callgsubr
          70 2 44 3 rlinecurve
          -13 -56 -9 -88 -5 -47 rrcurveto
          -28 -243 -36 -468 -336 70 callsubr
          263 hlineto
          -2 32 -4 79 37 vvcurveto
          286 162 425 2 callgsubr
          vhcurveto
          hintmask 11111100
          -126 -51 -276 -162 vvcurveto
          -145 43 -18 callgsubr
          102 -101 callgsubr
          -33 -53 callgsubr
          -16 9 45 hvcurveto
          hintmask 01111010
          150 51 210 151 vvcurveto
          191 -74 124 -174 -117 -139 -63 -246 -96 vhcurveto
          -2 hlineto
          31 144 22 201 6 45 11 83 24 217 16 118 rrcurveto
          endchar
        </CharString>
        <CharString name="hungarumlaut">
          -185 1188 437 hstem
          92 772 vstem
          92 1271 -73 callsubr
          endchar
        </CharString>
        <CharString name="hungarumlaut.case">
          -250 1587 458 hstem
          112 803 vstem
          112 1681 rmoveto
          95 -76 228 229 55 55 37 93 -63 48 rlinecurve
          -60 43 -77 -57 -52 -81 rrcurveto
          166 -242 rmoveto
          61 -106 300 159 69 36 74 71 -43 70 rlinecurve
          -38 63 -98 -25 -81 -67 rrcurveto
          endchar
        </CharString>
        <CharString name="hyphen">
          -175 535 214 hstem
          103 765 vstem
          857 535 rmoveto
          11 214 rlineto
          -754 hlineto
          -11 -214 rlineto
          endchar
        </CharString>
        <CharString name="i">
          -42 callsubr
          392 1562 rmoveto
          -83 -77 -75 -94 -5 hvcurveto
          -92 -4 61 -75 94 hhcurveto
          92 64 75 92 4 hvcurveto
          94 5 -62 75 -89 hhcurveto
          -277 -868 -98 callgsubr
        </CharString>
        <CharString name="iacute">
          -42 callsubr
          245 1241 -96 callgsubr
          -312 -833 -98 callgsubr
        </CharString>
        <CharString name="icircumflex">
          -26 callsubr
          hstemhm
          4 706 -531 266 -200 264 57 callgsubr
          710 1256 rmoveto
          -290 347 rlineto
          -21 hlineto
          -357 -337 72 -97 263 205 rlineto
          2 hlineto
          242 -212 rlineto
          -506 -468 -98 callgsubr
        </CharString>
        <CharString name="idieresis">
          -26 callsubr
          511 -20 hstemhm
          58 266 -145 266 -200 264 -95 266 hintmask 00000000
          201 1538 -92 callgsubr
          -442 -844 rmoveto
          hintmask 10111001
          -89 callgsubr
          16 -9 -45 hvcurveto
          hintmask 11010010
          -129 -66 -305 -161 vvcurveto
          -145 45 -18 callgsubr
          103 -101 callgsubr
          -33 -53 callgsubr
          -16 9 45 hvcurveto
          hintmask 10110100
          91 64 363 134 vvcurveto
          145 -48 93 -141 -185 -108 -71 callsubr
          endchar
        </CharString>
        <CharString name="igrave">
          -42 callsubr
          394 -64 callsubr
          -47 -683 -98 callgsubr
        </CharString>
        <CharString name="imacron">
          -26 callsubr
          264 186 hstemhm
          4 682 -507 266 -200 264 71 callgsubr
          674 -11 callsubr
          23 -594 rmoveto
          hintmask 11010010
          -89 callgsubr
          16 -9 -45 hvcurveto
          hintmask 10110100
          -129 -66 -305 -161 vvcurveto
          -145 45 -18 callgsubr
          103 -101 callgsubr
          -33 -53 callgsubr
          -16 9 45 hvcurveto
          hintmask 10110010
          91 64 363 134 vvcurveto
          145 -48 93 -141 -185 -108 -71 callsubr
          endchar
        </CharString>
        <CharString name="infinity">
          502 259 228 -220 229 408 234 -214 223 hstemhm
          96 134 1195 134 hintmask 00000000
          hintmask 10011100
          849 895 rmoveto
          hintmask 01101100
          148 -92 -131 95 -147 hhcurveto
          -227 -144 -187 -238 -12 hvcurveto
          -209 -11 82 -237 277 hhcurveto
          141 136 110 120 85 hvcurveto
          2 hlineto
          hintmask 10011100
          -168 116 130 -70 131 hhcurveto
          219 143 201 238 12 hvcurveto
          248 13 -78 201 -248 hhcurveto
          -147 -135 -97 -155 -113 hvcurveto
          378 29 rmoveto
          141 62 -90 -124 -7 hvcurveto
          -127 -7 -64 -96 -133 hhcurveto
          -123 -106 141 127 -61 hvcurveto
          125 96 121 44 81 hhcurveto
          hintmask 01101100
          -808 -20 rmoveto
          117 117 -135 -127 64 hvcurveto
          -95 -71 -149 -51 -79 hhcurveto
          -114 -82 77 127 6 hvcurveto
          136 7 92 68 92 hhcurveto
          endchar
        </CharString>
        <CharString name="integral">
          -325 -555 173 1770 168 hstemhm
          -82 248 -248 971 -248 248 -2 callgsubr
          246 -223 rmoveto
          -3 -94 -12 -67 -70 2 rrcurveto
          hintmask 11101000
          17 60 -21 92 -106 -3 -75 -3 -54 -55 -4 -83 rrcurveto
          -116 -6 101 -65 118 hhcurveto
          251 114 211 262 10 hvcurveto
          48 1328 5 126 39 29 49 -17 rlinecurve
          -20 -60 22 -94 107 3 76 3 53 55 4 83 rrcurveto
          116 6 -101 66 -118 hhcurveto
          -259 -115 -216 -259 -9 hvcurveto
          endchar
        </CharString>
        <CharString name="iogonek">
          -439 -542 186 343 -20 890 78 callsubr
          516 -20 hstemhm
          94 200 -115 266 -200 66 callsubr
          hintmask 11011100
          228 1248 rmoveto
          81 56 65 81 4 hvcurveto
          82 4 -54 67 -79 hhcurveto
          -72 -69 -67 -82 -4 hvcurveto
          -81 -4 53 -65 84 hhcurveto
          344 -1178 rmoveto
          63 69 38 93 13 65 -111 33 rcurveline
          hintmask 11011010
          -123 -35 -33 -53 callgsubr
          -16 9 45 hvcurveto
          hintmask 11011001
          91 64 363 134 vvcurveto
          145 -48 93 -141 -185 -108 -39 callsubr
          hintmask 11101001
          -89 callgsubr
          16 -9 -45 hvcurveto
          hintmask 11011010
          -129 -66 -305 -161 vvcurveto
          -117 29 -78 91 -26 vhcurveto
          hintmask 11011100
          -116 -87 -83 -110 -6 -121 -84 callsubr
          2 115 139 105 133 55 rrcurveto
          endchar
        </CharString>
        <CharString name="j">
          -66 callgsubr
        </CharString>
        <CharString name="k">
          53 callsubr
          62 964 -931 266 333 246 hintmask 00000000
          hintmask 01111000
          382 1546 rmoveto
          -26 -30 -92 -40 callgsubr
          73 2 44 3 rlinecurve
          hintmask 11110110
          -63 callgsubr
          endchar
        </CharString>
        <CharString name="kcommaaccent">
          53 callsubr
          95 266 20 245 68 246 hintmask 00000000
          hintmask 01110110
          382 1546 rmoveto
          -26 -30 -92 -40 callgsubr
          73 2 44 3 rlinecurve
          hintmask 11111110
          -63 callgsubr
          -269 -1033 rmoveto
          hintmask 01110110
          -97 callgsubr
        </CharString>
        <CharString name="l">
          -522 19 callgsubr
          hstemhm
          69 531 -500 260 hintmask 00000000
          hintmask 01110000
          387 1546 -4 callsubr
          hintmask 11101000
          -10 -61 -11 -76 -6 -55 rrcurveto
          -41 -347 -45 -68 callsubr
          endchar
        </CharString>
        <CharString name="lacute">
          -522 19 callgsubr
          hstemhm
          69 531 -500 260 hintmask 00000000
          hintmask 01110000
          105 1652 -96 callgsubr
          100 -392 -4 callsubr
          hintmask 11101000
          -10 -61 -11 -76 -6 -55 rrcurveto
          -41 -347 -45 -68 callsubr
          endchar
        </CharString>
        <CharString name="lcaron">
          -522 19 callgsubr
          hstem
          100 260 288 185 vstem
          623 1608 -44 callgsubr
          -418 -28 -4 callsubr
          -10 -61 -11 -76 -6 -55 rrcurveto
          -41 -347 -45 -68 callsubr
          endchar
        </CharString>
        <CharString name="lcommaaccent">
          -522 19 callgsubr
          hstemhm
          100 260 -165 245 hintmask 00000000
          hintmask 01101000
          387 1546 -4 callsubr
          hintmask 11110000
          -10 -61 -11 -76 -6 -55 rrcurveto
          -41 -347 -45 -68 callsubr
          -311 -1668 rmoveto
          hintmask 01101000
          -97 callgsubr
        </CharString>
        <CharString name="less">
          -50 146 996 hstem
          56 954 vstem
          998 931 rmoveto
          12 211 -944 -409 -10 -186 901 -401 12 213 -642 285 rlineto
          2 vlineto
          endchar
        </CharString>
        <CharString name="lessequal">
          -15 0 169 hstem
          53 988 vstem
          1030 1034 rmoveto
          11 206 -943 -409 -10 -186 901 -401 11 208 -642 290 rlineto
          2 vlineto
          618 -744 rmoveto
          10 174 -924 -10 -9 -164 rlineto
          endchar
        </CharString>
        <CharString name="logicalnot">
          31 547 188 hstem
          854 180 vstem
          1046 735 rmoveto
          -920 hlineto
          -10 -188 rlineto
          742 hlineto
          -7 -235 rlineto
          173 hlineto
          endchar
        </CharString>
        <CharString name="lozenge">
          -149 1555 -20 hstem
          72 869 vstem
          941 794 rmoveto
          -328 761 rlineto
          -109 hlineto
          -428 -773 -4 -75 340 -741 rlineto
          109 hlineto
          417 757 rlineto
          -400 523 rmoveto
          207 -489 -252 -472 rlineto
          -2 hlineto
          -211 474 83 152 93 187 80 148 rlinecurve
          endchar
        </CharString>
        <CharString name="lslash">
          -477 19 callgsubr
          hstemhm
          7 636 -500 260 hintmask 00000000
          hintmask 01110000
          468 908 rmoveto
          73 638 rlineto
          -111 hlineto
          -1 callsubr
          -10 -61 -11 -76 -6 -55 -17 -143 -18 -148 -15 -141 -161 -110 rcurveline
          -11 -224 rlineto
          hintmask 11101000
          151 104 rlineto
          -10 -114 -5 -105 -88 vvcurveto
          -145 86 -53 99 197 84 182 138 34 vhcurveto
          -111 33 rlineto
          -123 -35 -33 -38 callsubr
          71 10 118 29 262 hvcurveto
          157 109 12 219 rlineto
          endchar
        </CharString>
        <CharString name="m">
          -86 callgsubr
        </CharString>
        <CharString name="macron">
          -368 1291 186 hstem
          92 591 vstem
          674 -11 callsubr
          endchar
        </CharString>
        <CharString name="minus">
          22 554 213 hstem
          118 934 vstem
          1052 767 rmoveto
          -923 hlineto
          -11 -213 rlineto
          923 hlineto
          endchar
        </CharString>
        <CharString name="mu">
          -55 callgsubr
        </CharString>
        <CharString name="multiply">
          -40 136 975 hstem
          57 990 vstem
          1047 964 rmoveto
          -130 147 -105 -98 -137 -139 -112 -104 rlinecurve
          -307 327 -162 -151 309 -323 -346 -325 135 -149 346 332 316 -345 160 148 -313 344 rlineto
          endchar
        </CharString>
        <CharString name="n">
          24 callsubr
          451 738 rmoveto
          -90 callgsubr
          hintmask 11010100
          -79 callgsubr
          hintmask 11100100
          -93 callsubr
          hintmask 11101000
          -32 callsubr
          hintmask 11100100
          8 callgsubr
          endchar
        </CharString>
        <CharString name="nacute">
          23 callgsubr
          493 1241 -96 callgsubr
          hintmask 11010100
          -224 -789 rmoveto
          -90 callgsubr
          hintmask 11100100
          -79 callgsubr
          hintmask 11101000
          -93 callsubr
          hintmask 11100100
          -32 callsubr
          hintmask 11010100
          8 callgsubr
          endchar
        </CharString>
        <CharString name="ncaron">
          23 callgsubr
          1043 -60 callgsubr
          hintmask 11010100
          -239 -429 rmoveto
          -90 callgsubr
          hintmask 11100100
          -79 callgsubr
          hintmask 11101000
          -93 callsubr
          hintmask 11100100
          -32 callsubr
          hintmask 11010100
          8 callgsubr
          endchar
        </CharString>
        <CharString name="ncommaaccent">
          -28 callsubr
          48 245 -20 8 callsubr
          451 738 rmoveto
          -90 callgsubr
          hintmask 11011010
          -79 callgsubr
          hintmask 11101010
          -93 callsubr
          hintmask 11100100
          -32 callsubr
          hintmask 11101010
          8 callgsubr
          50 -860 rmoveto
          hintmask 11011010
          -97 callgsubr
        </CharString>
        <CharString name="nine">
          5 -33 146 408 163 639 144 hstem
          103 308 379 287 vstem
          616 63 callgsubr
          -292 -206 -195 -274 -15 hvcurveto
          -14 -280 123 -206 302 9 102 3 116 61 46 51 -2 -259 -90 -252 -198 -12 -68 -4 -49 29 -20 33 21 21 11 44 1 22 rrcurveto
          55 3 -24 75 -102 hhcurveto
          -84 -55 -79 -73 -4 hvcurveto
          -137 -7 97 -132 270 hhcurveto
          479 103 502 305 15 hvcurveto
          400 21 -115 293 -365 hhcurveto
          -9 -144 rmoveto
          160 35 -241 -263 -15 hvcurveto
          -74 -40 -81 -61 -87 hhcurveto
          -170 -5 238 123 7 hvcurveto
          141 7 65 137 124 hhcurveto
          endchar
        </CharString>
        <CharString name="noBreak">
          -604 endchar
        </CharString>
        <CharString name="nonmarkingreturn">
          -604 endchar
        </CharString>
        <CharString name="notequal">
          -52 333 181 196 184 148 -20 hstem
          67 951 vstem
          973 1042 rmoveto
          -132 95 -177 -243 rlineto
          -568 hlineto
          -10 -184 rlineto
          445 hlineto
          -142 -194 rlineto
          -313 hlineto
          -9 -185 rlineto
          188 hlineto
          -120 -164 129 -97 191 263 rlineto
          534 hlineto
          9 181 rlineto
          -409 hlineto
          143 198 rlineto
          277 hlineto
          9 181 rlineto
          -154 hlineto
          endchar
        </CharString>
        <CharString name="ntilde">
          107 -23 190 692 188 200 40 callgsubr
          182 264 -190 207 273 261 -210 261 hintmask 0000000000000000
          hintmask 1110110010000000
          952 7 callgsubr
          hintmask 1101010010000000
          0 callgsubr
          hintmask 1110101010000000
          13 callsubr
          -611 -742 rmoveto
          -90 callgsubr
          hintmask 1110110010000000
          -79 callgsubr
          hintmask 1110110100000000
          -93 callsubr
          hintmask 1110110010000000
          -32 callsubr
          hintmask 1110101010000000
          8 callgsubr
          endchar
        </CharString>
        <CharString name="numbersign">
          581 318 176 410 176 387 -20 hstem
          36 1664 vstem
          1357 1080 rmoveto
          60 callsubr
          -355 hlineto
          60 callsubr
          -341 hlineto
          -53 -176 rlineto
          345 hlineto
          -123 -410 rlineto
          -335 hlineto
          -53 -176 rlineto
          340 hlineto
          -101 -351 rlineto
          212 hlineto
          98 351 rlineto
          349 hlineto
          -101 -351 rlineto
          213 hlineto
          98 351 rlineto
          337 hlineto
          52 176 rlineto
          -342 hlineto
          118 410 rlineto
          340 hlineto
          51 174 rlineto
          2 vlineto
          -949 -176 rmoveto
          354 hlineto
          -123 -410 rlineto
          -350 hlineto
          endchar
        </CharString>
        <CharString name="o">
          -28 callgsubr
          572 1047 -103 callgsubr
        </CharString>
        <CharString name="oacute">
          -28 callgsubr
          353 1241 -96 callgsubr
          37 -480 -103 callgsubr
        </CharString>
        <CharString name="ocircumflex">
          -28 callgsubr
          908 -46 callsubr
          -247 -115 -103 callgsubr
        </CharString>
        <CharString name="odieresis">
          -88 -23 136 798 136 491 -20 hstemhm
          248 61 callsubr
          hintmask 00000000
          391 1538 -92 callgsubr
          hintmask 11111000
          -175 -491 -103 callgsubr
        </CharString>
        <CharString name="oe">
          462 -23 136 -136 188 746 136 hstemhm
          58 279 354 287 305 239 hintmask 00000000
          hintmask 10111100
          860 847 rmoveto
          154 -72 -127 46 -103 hhcurveto
          -315 -185 -277 -327 -256 130 62 callsubr
          100 137 33 162 93 hvcurveto
          2 hlineto
          hintmask 01111100
          -158 78 146 -37 85 hhcurveto
          160 159 61 269 118 hvcurveto
          -121 57 rlineto
          -171 -74 -119 -28 -68 hhcurveto
          -88 -96 57 233 hvcurveto
          241 35 303 76 223 vvcurveto
          179 -126 79 -181 vhcurveto
          hintmask 10111100
          -137 -120 -56 -144 -96 hvcurveto
          -326 64 rmoveto
          138 -2 21 17 callgsubr
          -167 -5 -47 -250 -141 hhcurveto
          -131 -30 223 164 224 75 189 124 -2 hvcurveto
          656 1 rmoveto
          41 48 -28 -66 2 hvcurveto
          3 -102 -80 -89 -221 -40 rrcurveto
          153 16 52 172 139 hhcurveto
          endchar
        </CharString>
        <CharString name="ogonek">
          -473 -542 186 hstem
          94 200 vstem
          575 126 rmoveto
          -240 -76 -230 -176 -11 -205 -84 callsubr
          2 115 139 105 133 55 rrcurveto
          endchar
        </CharString>
        <CharString name="ograve">
          -28 callgsubr
          633 -64 callsubr
          171 -330 -103 callgsubr
        </CharString>
        <CharString name="ohungarumlaut">
          -28 callgsubr
          173 1271 -73 callsubr
          -143 -471 -103 callgsubr
        </CharString>
        <CharString name="omacron">
          -88 -23 136 798 136 244 186 hstem
          57 28 callgsubr
          vstem
          845 -11 callsubr
          309 -241 -103 callgsubr
        </CharString>
        <CharString name="one">
          -330 0 152 1315 -20 hstem
          35 682 vstem
          640 63 callgsubr
          -124 hlineto
          -481 -343 66 -123 230 133 -43 -821 -8 -165 -55 -8 -92 -5 rlinecurve
          33 callsubr
          rrcurveto
          endchar
        </CharString>
        <CharString name="onehalf">
          562 0 166 450 90 26 116 618 -20 hstemhm
          1052 199 144 219 hintmask 00000000
          hintmask 11011100
          -37 callgsubr
          928 552 14 callsubr
          1227 33 13 callgsubr
          hintmask 11111100
          -12 callsubr
        </CharString>
        <CharString name="onequarter">
          483 0 55 callsubr
          293 90 760 -20 hstemhm
          84 1457 hintmask 00000000
          hintmask 10111100
          -37 callgsubr
          928 552 14 callsubr
          hintmask 11011100
          1045 238 4 callsubr
          hintmask 10111100
          -15 callsubr
          hintmask 11011100
          3 20 4 43 2 42 rrcurveto
          hintmask 10111100
          22 callgsubr
        </CharString>
        <CharString name="onesuperior">
          -578 617 90 760 -20 hstem
          84 419 vstem
          -37 callgsubr
          endchar
        </CharString>
        <CharString name="ordfeminine">
          -312 751 123 -123 144 469 103 -28 -20 hstemhm
          97 209 192 158 hintmask 00000000
          hintmask 01101100
          505 949 rmoveto
          -4 -22 -3 -32 -23 vvcurveto
          hintmask 10011100
          -89 42 -32 77 124 59 132 75 15 vhcurveto
          -68 20 rlineto
          -79 -22 -29 -25 -20 hhcurveto
          -10 -10 8 31 90 47 303 19 133 hvcurveto
          hintmask 01101100
          18 -72 -103 10 -50 hhcurveto
          -253 -147 -198 -276 -164 95 -78 95 81 71 45 153 65 hvcurveto
          -56 415 rmoveto
          21 1 33 -5 11 -4 rrcurveto
          -193 -11 -72 -268 -74 hhcurveto
          -35 -17 45 71 2 hvcurveto
          9 264 59 84 74 5 rrcurveto
          endchar
        </CharString>
        <CharString name="ordmasculine">
          -389 746 108 509 104 hstem
          97 215 198 216 vstem
          444 1467 -17 callgsubr
          endchar
        </CharString>
        <CharString name="oslash">
          -88 -23 136 798 136 hstem
          57 253 417 257 vstem
          1021 1066 rmoveto
          -130 101 -120 -169 rlineto
          32 -59 -68 17 -72 hhcurveto
          -315 -200 -277 -327 -127 33 -116 68 -84 hvcurveto
          -131 -184 108 -89 133 181 rlineto
          -30 56 67 -17 79 hhcurveto
          -19 callgsubr
          124 -34 102 -57 76 hvcurveto
          -567 -555 rmoveto
          -11 54 -5 57 52 vvcurveto
          224 94 187 136 57 41 -33 -49 29 vhcurveto
          51 -161 rmoveto
          7 -48 3 -48 -1 -42 rrcurveto
          -167 -5 -60 -250 -156 hhcurveto
          -55 -42 32 49 -30 hvcurveto
          endchar
        </CharString>
        <CharString name="otilde">
          -88 -23 136 798 136 200 40 callgsubr
          57 28 callgsubr
          hintmask 00000000
          hintmask 11101110
          812 7 callgsubr
          hintmask 11010110
          0 callgsubr
          hintmask 11101110
          13 callsubr
          -350 -433 -103 callgsubr
        </CharString>
        <CharString name="p">
          -74 callsubr
        </CharString>
        <CharString name="paragraph">
          -2 1291 143 hstem
          94 922 vstem
          909 -522 rmoveto
          107 1956 rlineto
          -593 hlineto
          -157 -160 -99 -210 -11 hvcurveto
          -11 -203 125 -77 131 -24 -76 -1343 rcurveline
          227 hlineto
          29 546 40 717 30 549 192 2 rcurveline
          -98 -1814 rlineto
          endchar
        </CharString>
        <CharString name="parenleft">
          -536 1556 -20 hstem
          41 270 vstem
          526 -484 rmoveto
          -196 280 -29 508 10 185 10 185 82 530 225 281 -70 71 rcurveline
          -213 -186 -280 -426 -24 -455 -24 -455 238 -403 193 -186 rrcurveto
          endchar
        </CharString>
        <CharString name="parenright">
          -536 1556 -20 hstem
          280 270 vstem
          65 1485 rmoveto
          196 -280 29 -508 -10 -185 -10 -185 -82 -530 -225 -281 70 -71 rcurveline
          213 186 280 426 24 455 24 455 -238 403 -193 186 rrcurveto
          endchar
        </CharString>
        <CharString name="partialdiff">
          -107 -23 147 762 145 373 155 -9 -20 hstemhm
          56 269 384 251 hintmask 00000000
          hintmask 11011100
          281 1402 rmoveto
          hintmask 11101100
          322 28 95 -256 18 -202 rrcurveto
          -2 hlineto
          35 -32 -71 24 -60 hhcurveto
          -266 -210 -225 -369 -19 hvcurveto
          -301 -16 181 -159 208 hhcurveto
          262 239 192 525 27 hvcurveto
          hintmask 11011100
          26 489 -166 449 -533 -82 rrcurveto
          288 -664 rmoveto
          84 2 42 -53 11 -20 rrcurveto
          -261 15 -67 -430 -196 hhcurveto
          -85 -64 80 243 13 hvcurveto
          13 263 116 173 118 3 rrcurveto
          endchar
        </CharString>
        <CharString name="percent">
          670 52 callsubr
          91 57 callsubr
          113 57 callsubr
          hintmask 00000000
          hintmask 10111111
          493 63 callgsubr
          -245 -7 -147 -209 -10 -192 rrcurveto
          42 callgsubr
          10 189 -123 205 -251 -4 rrcurveto
          1104 -135 rmoveto
          -142 135 -1239 -1377 126 -124 rlineto
          144 1361 -2 callsubr
          hintmask 11011111
          885 -558 rmoveto
          -30 callgsubr
          -6 -140 -2 callsubr
          endchar
        </CharString>
        <CharString name="period">
          -665 -33 320 hstem
          57 297 vstem
          215 287 rmoveto
          29 callsubr
        </CharString>
        <CharString name="periodcentered">
          -678 538 320 hstem
          88 297 vstem
          246 858 rmoveto
          29 callsubr
        </CharString>
        <CharString name="perthousand">
          1513 52 callsubr
          98 57 callsubr
          113 57 callsubr
          74 57 callsubr
          hintmask 0000000000000000
          hintmask 1101111111000000
          500 63 callgsubr
          -245 -5 -147 -211 -10 -192 rrcurveto
          hintmask 0010110000000000
          42 callgsubr
          hintmask 1101111111000000
          10 189 -123 207 -251 -6 rrcurveto
          1104 -135 rmoveto
          -142 135 -1239 -1377 126 -124 rlineto
          144 1361 rmoveto
          95 30 -130 -121 hvcurveto
          hintmask 0010110000000000
          11 callsubr
          vhcurveto
          hintmask 1101111111000000
          75 23 191 127 vhcurveto
          885 -558 rmoveto
          -30 callgsubr
          840 hmoveto
          -30 callgsubr
          -846 -140 -2 callsubr
          840 hmoveto
          95 30 -130 -121 11 callsubr
          75 23 191 127 hvcurveto
          endchar
        </CharString>
        <CharString name="pi">
          101 -33 203 877 -20 hstem
          329 138 257 275 vstem
          1145 1066 rmoveto
          -44 -91 -68 -11 -55 -227 -108 36 -204 hhcurveto
          -136 -118 -86 -88 -77 hvcurveto
          59 -95 69 32 84 15 56 5 rlinecurve
          -10 -206 -19 -344 -60 -71 rrcurveto
          13 -22 -32 10 -33 hhcurveto
          -57 -73 -41 -90 -4 hvcurveto
          -82 -5 63 -52 74 hhcurveto
          103 81 65 127 51 hvcurveto
          54 135 16 314 11 217 70 -7 143 -11 76 -6 -6 -112 -16 -269 -8 -141 rrcurveto
          -112 -6 -13 -200 216 hhcurveto
          100 89 58 73 64 hvcurveto
          -58 90 -60 -33 -65 1 6 123 rlinecurve
          9 176 12 194 9 176 71 33 75 63 39 53 rrcurveto
          endchar
        </CharString>
        <CharString name="plus">
          -106 559 183 hstemhm
          406 195 -166 195 hintmask 00000000
          640 1112 rmoveto
          -195 hlineto
          -19 -370 rlineto
          -356 hlineto
          -10 -185 rlineto
          hintmask 10100000
          110 130 1 116 hhcurveto
          -20 -390 rlineto
          195 hlineto
          20 391 rlineto
          363 hlineto
          10 181 rlineto
          hintmask 11000000
          -106 -143 2 -114 hhcurveto
          endchar
        </CharString>
        <CharString name="plusminus">
          -29 1 182 386 186 299 -20 hstemhm
          446 195 -170 195 hintmask 00000000
          675 1054 rmoveto
          -195 hlineto
          -16 -299 rlineto
          -361 hlineto
          -10 -188 rlineto
          hintmask 11101000
          105 145 1 112 hhcurveto
          -17 -314 rlineto
          195 hlineto
          17 315 rlineto
          364 hlineto
          9 185 rlineto
          hintmask 11110000
          -107 -143 1 -114 hhcurveto
          325 -754 rmoveto
          9 182 rlineto
          -921 hlineto
          -9 -182 rlineto
          endchar
        </CharString>
        <CharString name="product">
          491 -522 86 1784 85 -68 68 hstemhm
          254 179 763 178 hintmask 00000000
          hintmask 11011000
          1515 43 callsubr
          -1402 -91 hlineto
          148 9 rlineto
          -5 -41 -2 -51 -56 vvcurveto
          -1407 vlineto
          -145 13 75 callsubr
          -148 -8 rlineto
          5 35 2 53 74 vvcurveto
          1622 vlineto
          763 9 rlineto
          -1556 vlineto
          -145 12 75 callsubr
          -147 -8 rlineto
          4 35 2 53 74 vvcurveto
          1392 vlineto
          hintmask 10111000
          146 -12 100 153 6 vhcurveto
          endchar
        </CharString>
        <CharString name="q">
          -73 -522 150 349 186 748 136 hstem
          55 280 vstem
          662 218 rmoveto
          -13 -72 -9 -95 -6 -71 -6 -76 -3 -52 -6 -60 rrcurveto
          -108 -10 -6 -73 -114 hhcurveto
          -133 518 156 vlineto
          -29 -1 -65 -2 -44 -3 8 61 5 81 3 39 88 1203 rcurveline
          18 -102 -142 17 -86 hhcurveto
          -412 -176 -312 -368 -202 96 -188 195 97 110 35 206 107 hvcurveto
          -46 693 rmoveto
          19 51 -4 -7 17 hvcurveto
          -343 -11 -122 -394 -128 hhcurveto
          -42 -63 47 169 253 57 279 222 hvcurveto
          endchar
        </CharString>
        <CharString name="question">
          -150 371 141 812 143 hstemhm
          93 861 -663 207 hintmask 00000000
          hintmask 11100000
          639 521 rmoveto
          hintmask 11010000
          -101 -25 -42 32 2 45 7 131 434 148 15 289 rrcurveto
          163 8 -101 163 -325 hhcurveto
          -245 -190 -158 -146 -8 hvcurveto
          -4 -81 41 -61 84 -4 95 -5 48 79 6 56 3 28 -10 55 -26 28 rrcurveto
          31 27 65 35 67 hhcurveto
          138 37 -97 -127 -6 hvcurveto
          -9 -156 -77 -85 -101 -95 -146 -137 -31 -48 -3 -66 rrcurveto
          -103 -6 88 -39 88 hhcurveto
          52 82 9 36 71 hvcurveto
          -187 -129 rmoveto
          -79 -74 -72 -89 -4 hvcurveto
          -88 -5 63 -71 80 hhcurveto
          78 76 71 88 5 hvcurveto
          89 4 -59 72 -85 hhcurveto
          endchar
        </CharString>
        <CharString name="questiondown">
          -164 -443 143 812 141 404 -20 hstemhm
          16 861 -405 207 hintmask 00000000
          hintmask 11110000
          491 737 rmoveto
          79 74 72 89 4 hvcurveto
          88 5 -63 71 -80 hhcurveto
          -78 -76 -71 -88 -5 hvcurveto
          -89 -4 59 -72 85 hhcurveto
          -160 -234 rmoveto
          hintmask 11101000
          101 25 42 -32 -2 -45 -7 -131 -434 -148 -15 -289 rrcurveto
          -163 -8 101 -163 325 hhcurveto
          245 190 158 146 8 hvcurveto
          4 81 -41 61 -84 4 -95 5 -48 -79 -6 -56 -3 -28 10 -55 26 -28 rrcurveto
          -31 -27 -65 -35 -67 hhcurveto
          -138 -37 97 127 6 hvcurveto
          9 156 77 85 101 95 146 137 31 48 3 66 rrcurveto
          103 6 -88 39 -88 hhcurveto
          -52 -82 -9 -36 -71 hvcurveto
          endchar
        </CharString>
        <CharString name="quotedbl">
          -479 1467 -20 hstem
          134 495 vstem
          294 1006 rmoveto
          68 callgsubr
          453 hmoveto
          68 callgsubr
          endchar
        </CharString>
        <CharString name="quotedblbase">
          -244 -382 663 hstem
          234 154 236 154 vstem
          176 -382 -97 callsubr
          466 -57 -97 callsubr
          endchar
        </CharString>
        <CharString name="quotedblleft">
          -294 902 663 hstem
          105 154 235 154 vstem
          317 1565 -37 callsubr
          313 57 -37 callsubr
          endchar
        </CharString>
        <CharString name="quotedblright">
          -333 1557 -20 hstem
          271 154 226 154 vstem
          213 894 -97 callsubr
          456 -57 -97 callsubr
          endchar
        </CharString>
        <CharString name="quoteleft">
          -683 902 663 hstem
          105 154 vstem
          317 1565 -37 callsubr
          endchar
        </CharString>
        <CharString name="quoteright">
          -709 1555 -20 hstem
          273 154 vstem
          215 892 -97 callsubr
          endchar
        </CharString>
        <CharString name="quotesinglbase">
          -634 -382 663 hstem
          234 154 vstem
          176 -382 -97 callsubr
          endchar
        </CharString>
        <CharString name="quotesingle">
          -758 1467 -20 hstem
          136 215 vstem
          308 1006 rmoveto
          43 461 rlineto
          -209 hlineto
          -6 -461 rlineto
          endchar
        </CharString>
        <CharString name="r">
          -52 callgsubr
          endchar
        </CharString>
        <CharString name="racute">
          -9 callgsubr
          hintmask 01100000
          306 1241 -96 callgsubr
          hintmask 01010000
          -45 -849 -25 callgsubr
          hintmask 10010000
          -52 callsubr
          hintmask 01100000
          -59 callsubr
          hintmask 01010000
          69 callgsubr
        </CharString>
        <CharString name="radical">
          552 878 146 588 152 hstem
          2 1821 vstem
          1815 1609 rmoveto
          8 156 rlineto
          -625 hlineto
          -381 -1051 -55 -153 -51 -140 -24 -87 rlinecurve
          -2 hlineto
          -21 83 -35 120 -32 96 -133 391 rcurveline
          -455 hlineto
          -7 -143 232 -6 5 -30 5 -34 27 -76 rlinecurve
          265 -740 rlineto
          174 hlineto
          172 497 252 625 174 499 rrcurveto
          endchar
        </CharString>
        <CharString name="rcaron">
          -9 callgsubr
          hintmask 01100000
          856 -60 callgsubr
          hintmask 01010000
          -60 -489 -25 callgsubr
          hintmask 10010000
          -52 callsubr
          hintmask 01100000
          -59 callsubr
          hintmask 01010000
          69 callgsubr
        </CharString>
        <CharString name="rcommaaccent">
          -52 callgsubr
          -197 -800 rmoveto
          hintmask 01010000
          -97 callgsubr
        </CharString>
        <CharString name="registered">
          679 -146 43 callgsubr
          103 -103 107 261 116 361 114 228 118 hstemhm
          74 145 398 203 795 143 hintmask 0000000000000000
          hintmask 1101111110000000
          -35 callgsubr
          -414 -228 rmoveto
          -6 -108 rlineto
          20 54 2 2 30 hvcurveto
          -4 -22 -6 -51 -2 -53 -27 -518 rcurveline
          -6 -112 -36 -5 -63 -4 -5 -90 rcurveline
          408 hlineto
          hintmask 1011111110000000
          6 107 rlineto
          hintmask 1101111110000000
          -19 -2 -68 0 -29 -2 2 23 4 52 2 49 8 141 rcurveline
          29 -1 20 0 29 1 14 -22 -1 -12 112 -205 rrcurveto
          hintmask 1011111110000000
          32 -58 35 -46 30 -25 rrcurveto
          210 hlineto
          5 90 -63 4 -22 33 -56 93 rlinecurve
          -45 88 -22 38 -22 35 -34 14 rlinecurve
          1 vlineto
          164 46 64 104 10 117 19 219 -148 78 -241 -1 rrcurveto
          -100 -225 rmoveto
          89 5 29 22 57 hhcurveto
          57 122 -12 -159 -8 hvcurveto
          -121 -7 -76 -69 -135 hhcurveto
          -22 -12 1 5 -23 hvcurveto
          endchar
        </CharString>
        <CharString name="ring">
          -470 1153 65 callsubr
          hstem
          94 168 155 162 vstem
          348 1628 -77 callgsubr
          endchar
        </CharString>
        <CharString name="s">
          -41 callgsubr
          hintmask 11101000
          477 1047 rmoveto
          -96 callsubr
        </CharString>
        <CharString name="sacute">
          -41 callgsubr
          hintmask 11101000
          280 1241 -96 callgsubr
          15 -480 rmoveto
          -96 callsubr
        </CharString>
        <CharString name="scaron">
          -41 callgsubr
          hintmask 11101000
          830 -60 callgsubr
          -120 vmoveto
          -96 callsubr
        </CharString>
        <CharString name="scedilla">
          -229 -244 135 1021 135 hstemhm
          43 257 -212 244 137 234 -134 252 -244 251 hintmask 00000000
          hintmask 11100100
          253 -240 rmoveto
          75 -32 rlineto
          hintmask 11101000
          41 33 104 15 -4 -70 -56 callgsubr
          52 121 rlineto
          hintmask 11010010
          206 20 153 125 168 vvcurveto
          170 -170 88 -135 78 vhcurveto
          -167 96 -24 22 57 vvcurveto
          68 80 40 58 36 53 -12 -29 22 vhcurveto
          hintmask 11010100
          -88 -39 55 -96 96 hhcurveto
          79 49 62 73 140 -179 85 -165 -250 -139 -152 -143 -144 88 -72 195 -111 hvcurveto
          hintmask 11100010
          107 -61 99 -48 -76 vvcurveto
          -65 -42 -63 -120 -41 -73 29 30 -14 vhcurveto
          93 40 -58 94 -95 hhcurveto
          -73 -58 -59 -84 -123 121 -85 155 -23 hvcurveto
          endchar
        </CharString>
        <CharString name="scommaaccent">
          -41 callgsubr
          477 1047 rmoveto
          -250 -139 -152 -143 -144 88 -72 195 -111 hvcurveto
          hintmask 11011000
          107 -61 99 -48 -76 vvcurveto
          -65 -42 -63 -120 -41 -73 29 30 -14 vhcurveto
          93 40 -58 94 -95 hhcurveto
          -73 -58 -59 -84 -146 170 -92 196 236 183 132 184 170 -170 88 -135 78 hvcurveto
          hintmask 11100100
          -167 96 -24 22 57 vvcurveto
          68 80 40 58 36 53 -12 -29 22 vhcurveto
          -88 -39 55 -96 96 hhcurveto
          79 49 62 73 140 -179 85 -165 hvcurveto
          -186 -1169 rmoveto
          hintmask 11011000
          -97 callgsubr
        </CharString>
        <CharString name="section">
          -64 -467 145 1733 145 hstemhm
          66 238 -131 228 269 228 -130 235 hintmask 00000000
          hintmask 11100100
          600 1556 rmoveto
          hintmask 11010100
          -299 -125 -234 -156 -3 hvcurveto
          -1 -78 11 -65 58 -79 rrcurveto
          hintmask 11101000
          -101 -92 -68 -135 -6 -108 -11 -211 139 -121 145 -97 119 -79 221 -89 -9 -167 rrcurveto
          -82 -4 -69 -85 -126 hhcurveto
          -61 -60 27 43 -18 hvcurveto
          18 26 8 30 1 29 3 45 -32 81 -97 -3 -80 -3 -48 -70 -4 -77 rrcurveto
          -133 -7 146 -140 225 hhcurveto
          317 108 218 156 8 hvcurveto
          5 100 -42 64 -33 54 rrcurveto
          hintmask 11010100
          97 93 78 148 97 vvcurveto
          196 -74 85 -191 144 vhcurveto
          -129 97 -213 71 5 185 rrcurveto
          79 6 67 91 126 hhcurveto
          61 54 -27 -43 18 hvcurveto
          -18 -26 -8 -30 -1 -29 -3 -45 32 -79 97 3 80 3 48 68 4 77 rrcurveto
          hintmask 11100100
          133 7 -146 140 -225 hhcurveto
          -259 -727 rmoveto
          141 -112 286 -94 -210 vvcurveto
          -43 -16 -90 -21 -40 vhcurveto
          -140 114 -287 95 209 vvcurveto
          44 15 86 22 41 vhcurveto
          endchar
        </CharString>
        <CharString name="semicolon">
          -590 -382 1494 hstem
          275 154 vstem
          283 1112 -59 callgsubr
          -66 -1494 -97 callsubr
          endchar
        </CharString>
        <CharString name="seven">
          -201 1228 205 hstem
          51 906 vstem
          957 43 callsubr
          -872 hlineto
          -34 -349 rlineto
          130 hlineto
          6 115 63 32 93 -1 431 -5 rcurveline
          -467 -964 -46 -93 -89 vvcurveto
          -58 30 -55 83 90 41 80 75 23 vhcurveto
          131 435 84 313 204 378 rrcurveto
          endchar
        </CharString>
        <CharString name="six">
          3 -33 144 639 163 410 144 hstem
          82 293 376 308 vstem
          683 63 callgsubr
          -464 -122 -571 -236 -12 hvcurveto
          -424 -23 109 -269 365 hhcurveto
          292 217 215 258 14 hvcurveto
          15 280 -119 202 -302 -9 -102 -3 -121 -61 -46 -51 18 222 73 291 198 12 68 4 49 -29 20 -33 -24 -26 -8 -41 -1 -22 rrcurveto
          -55 -3 29 -75 102 hhcurveto
          84 50 73 73 3 hvcurveto
          124 7 -108 151 -258 hhcurveto
          -97 -717 rmoveto
          170 2 -238 -123 -7 hvcurveto
          -141 -7 -46 -137 -143 hhcurveto
          -160 -31 312 192 11 hvcurveto
          74 40 84 61 87 hhcurveto
          endchar
        </CharString>
        <CharString name="slash">
          219 1547 -20 hstem
          -40 1426 vstem
          1386 1427 rmoveto
          -173 120 -1253 -1997 144 -105 rlineto
          endchar
        </CharString>
        <CharString name="space">
          -604 endchar
        </CharString>
        <CharString name="sterling">
          -16 -33 225 419 156 -148 148 560 139 hstemhm
          214 262 -196 237 hintmask 00000000
          112 768 rmoveto
          -9 -158 161 3 11 -56 8 -81 -3 -69 rlinecurve
          -2 -43 -21 -66 -21 -36 -103 -37 -80 -63 -4 -81 rrcurveto
          -58 -3 27 -56 85 hhcurveto
          72 76 81 100 31 hvcurveto
          70 -2 83 -41 62 -40 rrcurveto
          -48 74 73 -50 89 hhcurveto
          151 87 141 202 19 hvcurveto
          -127 hlineto
          -81 -9 -45 -37 -31 -92 -73 103 -136 hhcurveto
          -47 -51 -8 -35 -78 hvcurveto
          2 vlineto
          hintmask 11010100
          121 81 53 162 -16 120 293 6 rcurveline
          8 145 rlineto
          hintmask 00110100
          -325 hlineto
          -12 81 -6 93 6 106 rrcurveto
          126 6 54 154 147 hhcurveto
          46 30 -17 -16 13 hvcurveto
          -28 -32 -13 -42 -2 -36 -2 -48 32 -80 102 3 85 3 51 69 4 81 rrcurveto
          104 6 -84 150 -254 hhcurveto
          -227 -214 -178 -316 -16 hvcurveto
          hintmask 00111000
          -4 -81 6 -65 11 -59 rrcurveto
          endchar
        </CharString>
        <CharString name="summation">
          232 -521 156 1646 153 -136 136 hstemhm
          1116 139 57 callgsubr
          1251 1037 rmoveto
          9 397 rlineto
          -1153 hlineto
          hintmask 11010000
          -9 -158 30 1 30 1 44 3 rlinecurve
          8 -22 17 -52 16 -34 370 -745 rcurveline
          -2 vlineto
          -334 -606 -82 -148 -44 -53 -93 -5 rlinecurve
          -43 callsubr
          1150 hlineto
          36 451 rlineto
          -135 hlineto
          -222 -12 -132 -73 -121 hhcurveto
          -499 hlineto
          36 46 35 56 16 29 427 779 rcurveline
          33 vlineto
          hintmask 10110000
          -357 720 rlineto
          384 hlineto
          111 4 136 -43 -12 -222 rrcurveto
          endchar
        </CharString>
        <CharString name="t">
          54 callsubr
          hstemhm
          37 761 -644 258 hintmask 00000000
          hintmask 01100000
          477 1024 rmoveto
          -14 callgsubr
          hintmask 11010000
          -53 callsubr
          endchar
        </CharString>
        <CharString name="tcaron">
          54 callsubr
          hstem
          154 258 296 185 vstem
          683 1696 -44 callgsubr
          -388 -638 rmoveto
          -14 callgsubr
          -53 callsubr
          endchar
        </CharString>
        <CharString name="thorn">
          -79 -522 150 349 136 748 186 289 47 callsubr
          hstem
          713 279 vstem
          461 1546 rmoveto
          -14 callsubr
          -9 -61 -2 -81 -3 -47 -30 -487 -18 -347 -32 -517 rrcurveto
          -108 -7 -20 -21 callsubr
          8 169 rcurveline
          -2 24 35 -1 16 hhcurveto
          390 171 292 389 215 -86 174 -205 -111 -108 -62 -187 -98 hvcurveto
          -2 hlineto
          19 152 7 53 12 125 rrcurveto
          183 -267 rmoveto
          59 51 -56 -150 -162 -24 -380 -233 -19 -44 5 9 -30 hvcurveto
          499 29 88 235 123 hhcurveto
          endchar
        </CharString>
        <CharString name="three">
          -24 -33 150 569 139 497 145 hstem
          42 994 vstem
          338 680 rmoveto
          2 24 63 4 19 hhcurveto
          236 5 59 -164 -8 -139 rrcurveto
          -155 -8 -94 -116 -171 hhcurveto
          -76 -79 31 50 -25 hvcurveto
          24 29 12 40 1 25 3 55 -27 80 -102 -3 -84 -3 -59 -71 -4 -81 rrcurveto
          -143 -7 126 -159 309 hhcurveto
          320 231 153 281 15 hvcurveto
          9 174 -107 159 -259 46 rrcurveto
          2 vlineto
          228 49 86 165 6 107 rrcurveto
          268 14 -192 96 -254 hhcurveto
          -288 -152 -192 -121 -7 hvcurveto
          -4 -81 43 -65 84 -3 101 -3 42 86 2 48 2 26 -6 45 -23 30 rrcurveto
          42 25 67 43 74 hhcurveto
          140 48 -100 -141 -10 hvcurveto
          -151 -11 -109 -105 -180 hhcurveto
          -22 -16 0 2 -22 hvcurveto
          endchar
        </CharString>
        <CharString name="threequarters">
          678 0 55 callsubr
          274 34 callgsubr
          hintmask 0000000000000000
          hintmask 1011110101000000
          30 callsubr
          hintmask 1011111001000000
          -8 callsubr
          hintmask 1101110110000000
          -25 callsubr
          1284 260 14 callsubr
          1045 238 4 callsubr
          hintmask 1011110101000000
          -15 callsubr
          hintmask 1101110101000000
          3 20 4 43 2 42 rrcurveto
          hintmask 1011110101000000
          22 callgsubr
        </CharString>
        <CharString name="threesuperior">
          -396 598 34 callgsubr
          hintmask 00000000
          hintmask 11101010
          30 callsubr
          hintmask 11110010
          -8 callsubr
          hintmask 11101100
          -25 callsubr
          endchar
        </CharString>
        <CharString name="tilde">
          -233 1247 40 callgsubr
          92 726 57 callgsubr
          708 7 callgsubr
          hintmask 01010000
          0 callgsubr
          hintmask 10110000
          13 callsubr
          endchar
        </CharString>
        <CharString name="trademark">
          1082 588 108 628 110 -97 97 hstemhm
          435 207 220 84 905 194 hintmask 00000000
          hintmask 11011100
          943 1131 rmoveto
          9 303 rlineto
          -785 hlineto
          -23 -303 rlineto
          80 hlineto
          131 7 61 60 91 hhcurveto
          66 hlineto
          -28 -530 -5 -97 -32 -5 -54 -3 rlinecurve
          -5 -99 rlineto
          385 hlineto
          6 113 -17 -1 -55 -1 -26 -2 rlinecurve
          4 21 5 44 2 44 27 518 rcurveline
          68 hlineto
          91 1 55 -63 -7 -131 rrcurveto
          1285 303 rmoveto
          -319 hlineto
          -209 -479 -14 -30 -39 -100 -16 -48 rlinecurve
          -1 hlineto
          -16 58 -14 55 -27 74 -176 470 rcurveline
          -309 hlineto
          -6 -110 rlineto
          17 49 2 1 26 hvcurveto
          -4 -20 -4 -45 -3 -43 -33 -428 rcurveline
          -7 -97 -27 -5 -54 -3 -5 -98 rcurveline
          293 hlineto
          6 112 -18 -1 -49 -1 -26 -2 rlinecurve
          4 21 9 44 2 44 8 199 rcurveline
          5 73 1 75 4 82 rrcurveto
          1 hlineto
          17 -96 37 -120 17 -44 155 -398 rcurveline
          156 hlineto
          277 662 rlineto
          1 hlineto
          -1 -74 -3 -107 -29 vvcurveto
          -3 -237 -1 -97 -36 -5 -54 -3 rlinecurve
          -5 -98 rlineto
          365 hlineto
          6 112 -18 -1 -48 -1 -26 -2 rlinecurve
          4 21 6 41 1 47 6 427 rcurveline
          hintmask 10111100
          1 98 37 4 55 3 rrcurveto
          endchar
        </CharString>
        <CharString name="two">
          -73 0 205 1115 146 hstem
          38 965 vstem
          935 hmoveto
          34 333 rlineto
          -130 hlineto
          -6 -114 -64 -22 -92 3 -401 11 rcurveline
          16 54 72 107 157 123 387 303 87 143 8 139 rrcurveto
          287 15 -235 100 -220 hhcurveto
          -288 -168 -197 -123 -7 hvcurveto
          -4 -81 41 -66 85 -2 102 -2 42 76 4 53 2 29 -10 51 -27 30 rrcurveto
          46 31 65 40 73 hhcurveto
          155 1 40 -138 -7 -129 -7 -147 -88 -144 -209 -184 -165 -146 -170 -150 -15 -284 rrcurveto
          endchar
        </CharString>
        <CharString name="twosuperior">
          -373 618 166 566 116 hstem
          129 199 144 219 vstem
          673 618 13 callgsubr
          -12 callsubr
        </CharString>
        <CharString name="u">
          -75 callgsubr
          108 694 -106 callgsubr
        </CharString>
        <CharString name="uacute">
          -75 callgsubr
          440 1241 -96 callgsubr
          -514 -833 -106 callgsubr
        </CharString>
        <CharString name="ucircumflex">
          -75 callgsubr
          995 -46 callsubr
          -798 -468 -106 callgsubr
        </CharString>
        <CharString name="udieresis">
          38 callsubr
          511 -20 39 callsubr
          -166 61 callsubr
          -198 -10 callsubr
          hintmask 0000000000000000
          478 1538 -92 callgsubr
          -726 -844 rmoveto
          hintmask 1001100110000000
          -89 callgsubr
          18 -9 -45 hvcurveto
          hintmask 1100101000100000
          -150 -53 -210 -151 vvcurveto
          -191 72 -124 174 117 123 73 246 96 vhcurveto
          2 hlineto
          -6 -46 -6 -33 -54 vvcurveto
          -145 84 -6 callsubr
          72 -101 callgsubr
          -33 -53 callgsubr
          -14 9 45 hvcurveto
          hintmask 1001110001000000
          -99 callsubr
          hintmask 1010110000100000
          -82 callsubr
        </CharString>
        <CharString name="ugrave">
          -75 callgsubr
          720 -64 callsubr
          -380 -683 -106 callgsubr
        </CharString>
        <CharString name="uhungarumlaut">
          -75 callgsubr
          260 1271 -73 callsubr
          -694 -824 -106 callgsubr
        </CharString>
        <CharString name="umacron">
          38 callsubr
          264 186 48 callsubr
          hintmask 0000000000000000
          hintmask 1001110010000000
          932 -11 callsubr
          -242 -594 rmoveto
          hintmask 1100101010000000
          -89 callgsubr
          18 -9 -45 hvcurveto
          hintmask 1001110100000000
          -150 -53 -210 -151 vvcurveto
          -191 72 -124 174 117 123 73 246 96 vhcurveto
          2 hlineto
          -6 -46 -6 -33 -54 vvcurveto
          -145 84 -6 callsubr
          72 -101 callgsubr
          -33 -53 callgsubr
          -14 9 45 hvcurveto
          hintmask 1010110010000000
          -99 callsubr
          hintmask 1001101010000000
          -82 callsubr
        </CharString>
        <CharString name="underscore">
          568 -310 208 hstem
          167 1259 vstem
          1426 -102 rmoveto
          -1259 -208 1259 hlineto
          endchar
        </CharString>
        <CharString name="uni00A0">
          -604 endchar
        </CharString>
        <CharString name="uni00AD">
          -174 550 207 hstem
          106 762 vstem
          857 550 rmoveto
          11 207 rlineto
          -751 hlineto
          -11 -207 rlineto
          endchar
        </CharString>
        <CharString name="uni00B5">
          -55 callgsubr
        </CharString>
        <CharString name="uni0149">
          -28 callsubr
          -107 154 226 8 callsubr
          hintmask 11001010
          298 1168 -97 callsubr
          hintmask 11010010
          229 -487 rmoveto
          -90 callgsubr
          hintmask 11100010
          -79 callgsubr
          hintmask 11001100
          -93 callsubr
          hintmask 11001010
          -32 callsubr
          hintmask 11010010
          8 callgsubr
          endchar
        </CharString>
        <CharString name="uni0162">
          185 -244 135 109 152 1144 138 hstem
          711 234 239 141 vstem
          1331 43 callsubr
          -1236 16 callsubr
          11 222 104 20 callgsubr
          -52 -981 -74 callgsubr
          221 hlineto
          -71 -240 75 -32 41 33 104 15 -4 -70 rlinecurve
          -56 callgsubr
          60 141 rlineto
          219 -63 callsubr
          -91 -60 callsubr
          50 960 rcurveline
          98 hlineto
          15 callsubr
          135 hlineto
          endchar
        </CharString>
        <CharString name="uni0163">
          -334 -244 135 990 143 hstemhm
          37 761 -644 258 46 234 hintmask 00000000
          hintmask 01100000
          695 304 rmoveto
          hintmask 11011000
          -113 -63 -91 -17 -32 hhcurveto
          -89 -8 83 53 92 28 279 24 198 hvcurveto
          257 4 13 141 rlineto
          -257 hlineto
          -14 callgsubr
          38 70 1 1 55 hvcurveto
          -22 -196 -18 -232 -6 -140 -4 -140 26 -134 135 -43 -69 -232 rcurveline
          75 -32 41 33 104 15 -4 -70 rlinecurve
          -56 callgsubr
          52 120 136 15 122 86 82 157 rlinecurve
          endchar
        </CharString>
        <CharString name="uni021A">
          26 callsubr
          541 245 398 141 vstem
          1319 970 rmoveto
          -86 callsubr
          50 960 rcurveline
          98 hlineto
          15 callsubr
          -651 -1092 rmoveto
          -97 callgsubr
        </CharString>
        <CharString name="uni021B">
          54 callsubr
          hstemhm
          154 258 -124 245 hintmask 00000000
          hintmask 01010000
          477 1024 rmoveto
          -14 callgsubr
          hintmask 11100000
          -53 callsubr
          -454 -1146 rmoveto
          hintmask 01010000
          -97 callgsubr
        </CharString>
        <CharString name="uni02C9">
          -368 1218 186 hstem
          68 591 vstem
          650 1222 -51 callsubr
          endchar
        </CharString>
        <CharString name="uni0400">
          -67 callgsubr
          hintmask 00000000
          hintmask 11101100
          777 1568 rmoveto
          99 83 -159 286 -39 69 -77 33 -68 -53 rlinecurve
          -67 -59 28 -88 51 -52 rrcurveto
          613 -750 -45 callgsubr
          1076 hlineto
          36 451 rlineto
          -135 hlineto
          -222 -12 -132 -73 -121 hhcurveto
          -275 hlineto
          7 34 41 callsubr
          17 336 rcurveline
          54 hlineto
          111 4 90 -11 -9 -172 rrcurveto
          -87 callgsubr
          rlineto
          hintmask 11011100
          -82 callgsubr
          endchar
        </CharString>
        <CharString name="uni0401">
          133 0 156 516 142 468 69 callsubr
          700 94 -1 35 callgsubr
          560 -20 callgsubr
          hintmask 11101010
          -82 52 -63 71 vhcurveto
          -55 callsubr
          241 -595 -45 callgsubr
          1076 hlineto
          36 451 rlineto
          -135 hlineto
          -222 -12 -132 -73 -121 hhcurveto
          -275 hlineto
          7 34 41 callsubr
          17 336 rcurveline
          54 hlineto
          111 4 90 -11 -9 -172 rrcurveto
          hintmask 11010110
          -87 callgsubr
          8 159 52 17 86 2 rlinecurve
          74 2 111 3 136 -45 -12 -222 rlinecurve
          endchar
        </CharString>
        <CharString name="uni0402">
          545 -35 134 -99 135 540 189 432 138 hstemhm
          927 254 11 139 -50 259 hintmask 00000000
          hintmask 01110100
          855 1296 rmoveto
          98 hlineto
          155 2 94 -90 -10 -184 46 callgsubr
          9 410 rlineto
          -1241 16 callsubr
          12 222 103 20 callgsubr
          -51 -981 -36 callsubr
          434 hlineto
          8 152 7 35 7 -18 callsubr
          rlinecurve
          14 265 rlineto
          40 55 114 34 83 hhcurveto
          hintmask 10111010
          151 71 -108 -207 -11 hvcurveto
          -171 -9 -25 -90 -39 hhcurveto
          -17 -12 8 10 -5 hvcurveto
          25 90 -51 68 -85 -2 -83 -2 -50 -66 -4 -70 rrcurveto
          -87 -4 66 -83 146 hhcurveto
          259 136 269 214 11 hvcurveto
          216 11 -112 200 -244 hhcurveto
          -123 -143 -52 -62 -103 hvcurveto
          endchar
        </CharString>
        <CharString name="uni0403">
          17 0 152 1130 69 callsubr
          1023 139 hintmask 00000000
          918 -69 callgsubr
          hintmask 11010000
          69 -99 rlineto
          548 -539 -45 callgsubr
          611 -63 callsubr
          -109 -2 -44 -3 rlinecurve
          7 35 7 75 4 74 41 785 rcurveline
          hintmask 10110000
          -82 callgsubr
          endchar
        </CharString>
        <CharString name="uni0404">
          271 -33 155 550 142 514 139 -101 87 0 -20 hstemhm
          78 299 526 145 134 144 hintmask 00000000
          hintmask 11100111
          1294 376 rmoveto
          -139 -180 -191 -75 -163 1 -259 2 -162 228 -3 320 rrcurveto
          331 hlineto
          111 1 90 -8 -9 -172 46 callgsubr
          26 498 rlineto
          -158 hlineto
          -50 -1 -71 1 -56 vhcurveto
          -518 hlineto
          39 268 169 247 261 -1 191 -1 110 -124 27 callgsubr
          hintmask 11001111
          -27 callgsubr
          hintmask 11010111
          50 callsubr
          hintmask 11100111
          66 -106 -134 35 -107 hhcurveto
          -477 -260 -398 -373 -20 hvcurveto
          -407 -21 263 -322 422 hhcurveto
          169 250 51 277 214 hvcurveto
          endchar
        </CharString>
        <CharString name="uni0405">
          -24 callsubr
          -132 270 568 144 hintmask 00000000
          hintmask 10101010
          115 460 -92 callsubr
        </CharString>
        <CharString name="uni0406">
          -356 -51 callgsubr
          72 658 -2 callgsubr
          730 1434 rmoveto
          -99 callgsubr
          7 35 7 75 4 74 41 785 rcurveline
          -49 callgsubr
        </CharString>
        <CharString name="uni0407">
          -356 0 152 1130 152 hstemhm
          152 61 callsubr
          hintmask 00000000
          295 1948 -92 callgsubr
          79 -514 rmoveto
          -99 callgsubr
          7 35 7 75 4 74 41 785 rcurveline
          hintmask 11110000
          -7 callsubr
        </CharString>
        <CharString name="uni0408">
          -50 callsubr
        </CharString>
        <CharString name="uni0409">
          1000 -33 146 -113 145 545 145 443 56 callsubr
          31 2022 hintmask 00000000
          hintmask 01110100
          1371 58 callgsubr
          rlineto
          hintmask 01101100
          9 165 54 8 92 5 rrcurveto
          hintmask 10110100
          -49 callsubr
          -1181 hlineto
          -8 -158 279 6 rlineto
          -830 -124 -64 -339 -119 hhcurveto
          -16 -8 2 5 -6 hvcurveto
          13 24 8 28 1 24 rrcurveto
          69 -38 69 -95 -5 vhcurveto
          -99 -5 -55 -79 -5 -95 rrcurveto
          -118 -6 77 -65 172 hhcurveto
          243 99 125 1061 173 hvcurveto
          16 96 36 22 92 3 165 5 rcurveline
          -50 -966 -9 callsubr
          -93 -5 rlinecurve
          hintmask 01110100
          -43 callsubr
          647 hlineto
          287 219 141 266 14 hvcurveto
          11 218 -129 232 -490 -20 rrcurveto
          -81 -148 rmoveto
          117 14 callgsubr
          -78 -107 -166 -7 rrcurveto
          -2 -49 -52 -1 -49 hhcurveto
          7 35 6 72 67 callgsubr
        </CharString>
        <CharString name="uni040A">
          1037 0 145 -145 152 512 158 -133 145 446 16 callgsubr
          2017 -995 297 hintmask 00000000
          1408 58 callgsubr
          -46 callgsubr
          rlinecurve
          hintmask 10010110
          56 callgsubr
          -9 -158 29 1 81 2 45 3 rlinecurve
          -56 callsubr
          -14 -275 rcurveline
          -561 hlineto
          17 298 rlineto
          hintmask 10101010
          9 165 54 8 92 5 rrcurveto
          hintmask 10100110
          -49 callsubr
          -99 callgsubr
          7 35 8 75 3 74 15 325 rcurveline
          hintmask 01101010
          562 7 -19 -355 -36 callsubr
          647 hlineto
          287 219 141 266 14 hvcurveto
          hintmask 10101001
          11 218 -129 232 -490 -20 rrcurveto
          -80 -148 rmoveto
          116 14 callgsubr
          -77 -107 -167 3 callsubr
        </CharString>
        <CharString name="uni040B">
          679 0 152 535 189 420 138 hstemhm
          1184 141 -7 290 57 callgsubr
          1738 158 rmoveto
          hintmask 11101000
          -155 -6 9 41 9 127 7 119 rlinecurve
          305 15 -137 132 -255 hhcurveto
          -160 -145 -51 -62 -104 hvcurveto
          28 533 rlineto
          98 hlineto
          hintmask 11110000
          15 callsubr
          135 hlineto
          -86 callsubr
          14 278 rcurveline
          40 57 113 33 106 hhcurveto
          hintmask 11101000
          162 72 -78 -167 -6 hvcurveto
          -9 -129 -12 -165 -51 -8 -93 -5 rlinecurve
          -43 callsubr
          583 hlineto
          endchar
        </CharString>
        <CharString name="uni040C">
          -27 callsubr
          72 1353 hintmask 00000000
          987 -69 callgsubr
          hintmask 01101010
          69 -99 rlineto
          722 -142 -102 callgsubr
          endchar
        </CharString>
        <CharString name="uni040D">
          36 callgsubr
          917 1576 rmoveto
          79 101 -223 239 -54 58 -90 26 -54 -68 rlinecurve
          -55 -69 46 -76 63 -39 rrcurveto
          817 -627 rmoveto
          -16 callgsubr
          -584 45 callgsubr
          -4 -20 -4 -34 -4 -38 rlinecurve
          -627 -695 33 626 rlineto
          hintmask 10110000
          9 165 54 8 93 5 rrcurveto
          hintmask 11010000
          -70 callsubr
        </CharString>
        <CharString name="uni040E">
          165 -33 142 1171 154 -135 135 118 109 hstemhm
          55 1332 hintmask 00000000
          hintmask 11011000
          1068 1831 rmoveto
          -38 -68 -27 -47 -41 -26 rrcurveto
          -19 -30 -43 -10 -42 hhcurveto
          -39 -38 9 19 -24 hvcurveto
          -72 callgsubr
          209 -320 rmoveto
          -453 hlineto
          -8 -158 158 8 -1 -2 -37 -42 -48 -69 -32 -75 rlinecurve
          -215 -467 -12 58 -21 57 -53 106 rlinecurve
          -145 291 rlineto
          hintmask 10111000
          -57 114 68 51 118 -7 rrcurveto
          hintmask 11011000
          -29 callgsubr
          hintmask 10111000
          77 callgsubr
        </CharString>
        <CharString name="uni040F">
          489 0 160 1122 -50 callgsubr
          731 153 -2 callgsubr
          1413 1121 rmoveto
          -44 callsubr
          -783 rcurveline
          -11 -128 -45 -26 -72 -1 rrcurveto
          -50 hlineto
          -5 hlineto
          -360 -5 47 966 rlineto
          -44 callsubr
          -785 rcurveline
          -8 -165 -55 -8 -92 -5 -7 -135 rcurveline
          522 hlineto
          107 26 -110 -214 -15 hvcurveto
          148 hlineto
          17 324 rlineto
          608 42 callsubr
        </CharString>
        <CharString name="uni0410">
          -22 callgsubr
          hstem
          78 callgsubr
          vstem
          786 1470 -107 callgsubr
        </CharString>
        <CharString name="uni0411">
          206 0 145 546 144 446 152 -134 134 hstemhm
          961 323 -200 139 hintmask 00000000
          hintmask 11010100
          552 834 rmoveto
          16 287 9 159 51 18 87 1 rlinecurve
          134 2 111 2 135 -44 -11 -222 rlinecurve
          135 hlineto
          9 397 rlineto
          -1081 hlineto
          hintmask 11101000
          -48 callsubr
          693 hlineto
          287 222 140 267 11 hvcurveto
          10 250 -111 192 -508 -12 rrcurveto
          -131 -148 rmoveto
          53 3 45 0 68 -1 144 -3 117 -52 -10 -222 -8 -174 -77 -84 -167 -8 rrcurveto
          -3 -64 -64 0 -72 hhcurveto
          7 35 7 72 67 callgsubr
        </CharString>
        <CharString name="uni0412">
          -78 callsubr
        </CharString>
        <CharString name="uni0413">
          17 0 152 1130 69 callsubr
          1023 139 -2 callgsubr
          1158 1037 -45 callgsubr
          611 -63 callsubr
          -109 -2 -44 -3 rlinecurve
          7 35 7 75 4 74 41 785 rcurveline
          hintmask 10110000
          -82 callgsubr
          endchar
        </CharString>
        <CharString name="uni0414">
          315 0 152 1127 56 callsubr
          33 135 1035 157 hintmask 00000000
          hintmask 11001000
          1249 1121 rmoveto
          hintmask 10101000
          -94 callsubr
          hintmask 11011000
          -49 callsubr
          -1139 hlineto
          -8 -158 220 6 -9 -139 rlineto
          -600 -39 -129 -391 -219 hhcurveto
          -42 hlineto
          -25 -476 rlineto
          148 hlineto
          214 8 37 110 107 hhcurveto
          762 hlineto
          107 25 -110 -214 -14 hvcurveto
          148 hlineto
          25 482 rlineto
          -30 hlineto
          -22 -1 -54 -1 -43 -2 rrcurveto
          -35 hlineto
          7 34 7 75 4 73 rrcurveto
          -868 -184 rmoveto
          131 153 116 295 40 553 7 96 46 21 101 3 180 6 rcurveline
          -50 -949 -8 -165 -55 -8 -92 -5 rlinecurve
          endchar
        </CharString>
        <CharString name="uni0415">
          -67 callgsubr
          hintmask 00000000
          hintmask 11101100
          1158 1037 -45 callgsubr
          1076 hlineto
          36 451 rlineto
          -135 hlineto
          -222 -12 -132 -73 -121 hhcurveto
          -275 hlineto
          7 34 41 callsubr
          17 336 rcurveline
          54 hlineto
          111 4 90 -11 -9 -172 rrcurveto
          -87 callgsubr
          rlineto
          hintmask 11011100
          -82 callgsubr
          endchar
        </CharString>
        <CharString name="uni0416">
          999 0 135 -135 152 494 163 467 -23 callsubr
          -16 2151 hintmask 00000000
          hintmask 01101010
          1659 654 rmoveto
          -30 45 -40 40 -52 33 rrcurveto
          3 vlineto
          262 314 rlineto
          hintmask 01100110
          141 169 95 36 93 5 rrcurveto
          hintmask 01101010
          -49 callsubr
          -467 hlineto
          -9 -158 29 1 58 4 44 3 rlinecurve
          -2 vlineto
          -38 -28 -27 -33 -118 -144 -220 -268 rcurveline
          -152 hlineto
          16 312 rlineto
          hintmask 01100110
          -47 callsubr
          hintmask 01101010
          56 callgsubr
          hintmask 01110010
          -9 -158 rlineto
          hintmask 01101010
          29 1 81 2 45 3 -56 callsubr
          -15 -289 rcurveline
          -144 hlineto
          -192 268 -73 101 -56 77 -34 27 rlinecurve
          2 vlineto
          44 -3 56 -4 29 -1 9 158 rcurveline
          -473 hlineto
          hintmask 10100110
          -7 -135 91 -5 90 -36 124 -169 rlinecurve
          230 -314 rlineto
          -3 vlineto
          -56 -33 -44 -40 -34 -45 -227 -297 rcurveline
          -89 -117 -99 -100 -93 -5 -54 callgsubr
          316 hlineto
          34 2 118 126 59 80 218 295 rcurveline
          40 51 49 65 38 27 rrcurveto
          74 hlineto
          -17 -333 -9 callsubr
          -93 -5 rlinecurve
          hintmask 01101010
          -43 callsubr
          588 hlineto
          9 158 -29 -1 -81 -2 -45 -64 callgsubr
          16 309 rcurveline
          74 hlineto
          36 -26 41 -65 36 -51 186 -295 rcurveline
          hintmask 10101010
          51 -80 106 -126 32 -2 rrcurveto
          316 hlineto
          7 135 -91 5 -89 100 -77 117 rlinecurve
          endchar
        </CharString>
        <CharString name="uni0417">
          209 -32 165 528 146 511 149 -14 -20 hstemhm
          54 1226 61 callgsubr
          942 767 rmoveto
          193 57 96 122 8 163 12 226 -173 139 -288 -7 rrcurveto
          -134 -150 -35 -66 -121 hvcurveto
          -2 hlineto
          hintmask 11011000
          12 87 rlineto
          -158 hlineto
          -26 -479 rlineto
          134 hlineto
          hintmask 11101000
          49 229 153 114 164 1 134 -1 98 -79 -9 -180 -7 -136 -67 -125 -182 11 5 -1 rcurveline
          -187 hlineto
          -8 -146 rlineto
          259 hlineto
          112 108 -81 -167 -9 hvcurveto
          -197 -10 -162 -83 -166 hhcurveto
          -175 -163 94 158 -125 hvcurveto
          -103 -90 173 -257 239 -68 207 -2 rlinecurve
          324 -4 268 150 15 279 9 177 -106 150 -241 40 rrcurveto
          endchar
        </CharString>
        <CharString name="uni0418">
          36 callgsubr
          1446 1121 rmoveto
          -16 callgsubr
          -584 45 callgsubr
          -4 -20 -4 -34 -4 -38 rlinecurve
          -627 -695 33 626 rlineto
          hintmask 10110000
          9 165 54 8 93 5 rrcurveto
          hintmask 11010000
          -70 callsubr
        </CharString>
        <CharString name="uni0419">
          438 0 155 1124 155 -135 135 118 109 hstemhm
          72 1537 hintmask 00000000
          hintmask 11011000
          1139 1831 rmoveto
          -38 -68 -27 -47 -41 -26 rrcurveto
          -19 -30 -43 -10 -42 hhcurveto
          -39 -38 9 19 -24 hvcurveto
          -72 callgsubr
          197 -633 rmoveto
          hintmask 10111000
          -47 callsubr
          hintmask 11011000
          7 135 rlineto
          -584 45 callgsubr
          -4 -20 -4 -34 -4 -38 rlinecurve
          -627 -695 33 626 rlineto
          hintmask 10111000
          -47 callsubr
          hintmask 11011000
          -70 callsubr
        </CharString>
        <CharString name="uni041A">
          -27 callsubr
          72 1353 hintmask 00000000
          hintmask 01101010
          1401 1434 -102 callgsubr
          endchar
        </CharString>
        <CharString name="uni041B">
          456 -23 176 -153 152 1124 157 -155 56 callsubr
          16 1525 hintmask 00000000
          hintmask 01010100
          1379 1121 rmoveto
          hintmask 01001100
          9 165 54 8 92 5 rrcurveto
          hintmask 10010100
          -49 callsubr
          -1141 hlineto
          -8 -158 239 6 -12 -238 rlineto
          -634 -32 -171 -257 -81 hhcurveto
          -12 -12 2 5 -6 hvcurveto
          64 28 -58 105 -101 hhcurveto
          -106 -52 -82 -97 -108 99 -65 116 271 242 305 871 38 hvcurveto
          hintmask 01100100
          4 91 48 27 92 3 rrcurveto
          hintmask 01010100
          165 5 -50 -966 -36 callsubr
          588 hlineto
          9 158 -29 -1 -82 -60 callsubr
          rrcurveto
          endchar
        </CharString>
        <CharString name="uni041C">
          -80 callgsubr
        </CharString>
        <CharString name="uni041D">
          499 0 152 489 158 482 16 callgsubr
          1513 61 callgsubr
          1585 -33 callgsubr
          -15 -298 rcurveline
          -564 hlineto
          17 321 rlineto
          hintmask 11011000
          -94 callsubr
          hintmask 11101000
          -49 callsubr
          -99 callgsubr
          7 35 7 75 4 74 15 302 rcurveline
          565 7 -18 -332 -8 -165 -55 -8 -92 -5 rlinecurve
          -7 -135 rlineto
          4 callgsubr
          hintmask 11011000
          -7 callsubr
        </CharString>
        <CharString name="uni041E">
          417 832 1467 -104 callgsubr
        </CharString>
        <CharString name="uni041F">
          -65 callgsubr
        </CharString>
        <CharString name="uni0420">
          -62 callgsubr
        </CharString>
        <CharString name="uni0421">
          -5 callsubr
          1294 376 -80 callsubr
        </CharString>
        <CharString name="uni0422">
          26 callsubr
          1184 141 vstem
          1319 970 rmoveto
          -86 callsubr
          50 960 rcurveline
          98 hlineto
          15 callsubr
          endchar
        </CharString>
        <CharString name="uni0423">
          165 -33 142 1171 154 41 callgsubr
          55 1332 hintmask 00000000
          hintmask 01010000
          1387 43 callsubr
          -453 hlineto
          -8 -158 158 8 -1 -2 -37 -42 -48 -69 -32 -75 rlinecurve
          -215 -467 -12 58 -21 57 -53 106 rlinecurve
          -145 291 rlineto
          hintmask 00110000
          -57 114 68 51 118 -7 rrcurveto
          hintmask 11010000
          -29 callgsubr
          hintmask 00110000
          77 callgsubr
        </CharString>
        <CharString name="uni0424">
          615 -110 152 1381 152 hstemhm
          79 1614 -1613 303 1005 305 hintmask 00000000
          hintmask 11100000
          1207 1575 rmoveto
          -568 hlineto
          -8 -158 -94 callgsubr
          -5 -23 -4 -40 -4 -46 rrcurveto
          hintmask 11011000
          -447 -41 -229 -258 -16 -312 -15 -276 167 -243 474 -36 -18 -112 -51 -7 -81 -4 -54 callgsubr
          568 -63 callsubr
          -81 37 callgsubr
          5 23 4 40 4 46 459 45 235 244 15 277 15 275 -190 273 -468 48 17 116 52 7 81 4 rrcurveto
          -485 -1155 rmoveto
          -237 42 -109 155 14 245 13 243 119 169 249 40 rrcurveto
          276 -3 rmoveto
          256 -49 106 -179 -14 -266 -14 -247 -122 -125 -260 -29 rrcurveto
          endchar
        </CharString>
        <CharString name="uni0425">
          -83 callgsubr
        </CharString>
        <CharString name="uni0426">
          502 63 callsubr
          1392 157 -2 callgsubr
          1429 1121 rmoveto
          -44 callsubr
          -783 rcurveline
          -11 -128 -45 -26 -72 -1 -415 -5 rcurveline
          47 966 rlineto
          -44 callsubr
          -785 rcurveline
          -8 -165 -55 -8 -92 -5 -7 -135 rcurveline
          1167 hlineto
          107 26 -110 -214 -15 hvcurveto
          148 hlineto
          26 484 -39 -2 rlineto
          -4 hlineto
          -33 -1 -74 64 callsubr
        </CharString>
        <CharString name="uni0427">
          444 0 155 365 189 570 56 callsubr
          105 1426 -1296 290 hintmask 00000000
          hintmask 10101000
          1368 1121 rmoveto
          hintmask 10011000
          -47 callsubr
          hintmask 11101000
          -49 callsubr
          -582 31 callsubr
          -16 -314 rlineto
          -41 -63 -125 -34 -120 hhcurveto
          hintmask 11010100
          -162 -72 78 167 6 hvcurveto
          9 167 -46 callgsubr
          rlinecurve
          hintmask 11100100
          -49 callsubr
          -583 45 callgsubr
          -9 -46 -9 -144 -7 -135 rlinecurve
          -305 -15 137 -132 255 hhcurveto
          141 187 52 62 113 hvcurveto
          -17 -321 -36 callsubr
          582 hlineto
          9 158 -155 -6 7 35 7 -18 callsubr
          rlinecurve
          endchar
        </CharString>
        <CharString name="uni0428">
          1110 63 callsubr
          72 2124 -72 callsubr
          2048 hlineto
          9 158 -29 -1 -81 -2 -45 -64 callgsubr
          rrcurveto
          endchar
        </CharString>
        <CharString name="uni0429">
          1107 63 callsubr
          1997 157 -72 callsubr
          1803 hlineto
          107 26 -110 -214 -15 hvcurveto
          148 hlineto
          26 484 -39 -2 rlineto
          -4 hlineto
          -33 -1 -75 64 callsubr
        </CharString>
        <CharString name="uni042A">
          460 0 145 545 145 458 140 hstem
          59 1453 vstem
          831 58 callgsubr
          -46 callgsubr
          rlinecurve
          -49 callsubr
          -913 hlineto
          -37 -464 rlineto
          135 hlineto
          12 222 103 20 callgsubr
          -51 -981 -36 callsubr
          -22 callsubr
        </CharString>
        <CharString name="uni042B">
          843 0 145 -145 152 538 145 446 16 callgsubr
          1857 hintmask 00000000
          hintmask 10110100
          558 58 callgsubr
          rlineto
          hintmask 10101100
          -47 callsubr
          hintmask 10110100
          56 callgsubr
          -48 callsubr
          647 hlineto
          272 219 141 266 14 hvcurveto
          11 218 -129 232 -475 -20 rrcurveto
          1298 597 rmoveto
          -583 hlineto
          -81 callgsubr
          -41 -785 rcurveline
          -8 -165 -55 -8 -92 -5 rrcurveto
          hintmask 01101100
          -7 -135 rlineto
          4 callgsubr
          -94 callsubr
          -1371 -610 rmoveto
          116 2 138 2 107 -67 -10 -202 rlinecurve
          hintmask 10110100
          -9 -162 -77 -107 -152 3 callsubr
        </CharString>
        <CharString name="uni042C">
          187 0 145 545 145 446 16 callgsubr
          1167 61 callgsubr
          558 58 callgsubr
          rlineto
          hintmask 11011000
          -47 callsubr
          hintmask 11101000
          56 callgsubr
          -48 callsubr
          -22 callsubr
        </CharString>
        <CharString name="uni042D">
          271 -33 141 565 141 513 140 -14 -20 hstemhm
          33 1340 61 callgsubr
          337 1366 rmoveto
          hintmask 11011000
          12 87 rlineto
          -158 hlineto
          -25 -449 rlineto
          134 hlineto
          hintmask 11101000
          51 214 126 108 184 1 266 1 125 -243 8 -271 rrcurveto
          -517 hlineto
          18 127 rlineto
          -149 hlineto
          -26 -448 rlineto
          126 hlineto
          172 9 91 8 111 hhcurveto
          331 hlineto
          -334 -33 -165 -231 -255 hhcurveto
          -171 -185 104 173 -109 hvcurveto
          -103 -90 rlineto
          -277 185 245 -51 169 hhcurveto
          422 297 322 407 21 hvcurveto
          373 19 -218 398 -450 hhcurveto
          -134 -138 -35 -66 -112 hvcurveto
          endchar
        </CharString>
        <CharString name="uni042E">
          1129 -33 140 -107 152 488 160 482 -77 callsubr
          -107 140 hstemhm
          72 2136 -316 315 hintmask 00000000
          hintmask 10100110
          551 800 rmoveto
          17 321 rlineto
          hintmask 10101010
          -94 callsubr
          hintmask 01110010
          -49 callsubr
          -99 callgsubr
          7 35 7 75 4 74 15 302 rcurveline
          290 4 rlineto
          hintmask 10100110
          -334 6 168 -341 453 hhcurveto
          hintmask 10100101
          484 246 411 339 18 hvcurveto
          339 17 -173 411 -507 hhcurveto
          -424 -231 -345 -322 -48 hvcurveto
          1051 -118 rmoveto
          -13 -251 -108 -322 -283 -2 -278 -2 -75 380 14 256 13 253 94 326 253 7 283 7 119 -281 -19 -371 rrcurveto
          endchar
        </CharString>
        <CharString name="uni042F">
          364 0 135 -135 152 406 147 586 143 hstemhm
          38 1412 -1189 317 hintmask 00000000
          hintmask 01011000
          1288 1121 rmoveto
          8 165 55 8 92 5 7 135 rcurveline
          -688 hlineto
          hintmask 10110100
          -289 -207 -153 -270 -5 hvcurveto
          -5 -188 110 -125 234 -72 -74 -22 -57 -37 -60 -92 -83 -118 rcurveline
          -85 -121 -103 -96 -93 -5 -54 callgsubr
          301 hlineto
          33 2 122 124 56 82 142 206 rcurveline
          91 132 63 9 121 3 -13 -245 rcurveline
          -8 -165 -55 -8 -92 -5 rrcurveto
          hintmask 01110100
          33 callsubr
          rrcurveto
          -272 375 rmoveto
          -3 -30 -30 -3 -33 hhcurveto
          -218 -97 115 197 11 hvcurveto
          207 12 114 67 163 hhcurveto
          148 hlineto
          -9 -51 -6 -48 -3 -53 rrcurveto
          endchar
        </CharString>
        <CharString name="uni0430">
          -35 callsubr
          673 283 -100 callsubr
        </CharString>
</ttFont>
